<svg width="114" height="92" viewBox="0 0 114 92" fill="none" xmlns="http://www.w3.org/2000/svg">
<path d="M81.9713 8.08625C81.9713 8.57591 81.9205 9.05921 81.8251 9.53615C81.7297 10.0131 81.5898 10.4773 81.4054 10.9288C81.2146 11.374 80.992 11.8064 80.7186 12.207C80.4451 12.614 80.1399 12.9892 79.7965 13.3326C79.4531 13.676 79.0779 13.9876 78.6709 14.2547C78.2639 14.5281 77.8378 14.7571 77.3863 14.9415C76.9412 15.1259 76.477 15.2722 75.9937 15.3676C75.5167 15.4629 75.0334 15.5075 74.5501 15.5075C74.0605 15.5075 73.5772 15.4629 73.1002 15.3676C72.6233 15.2722 72.159 15.1259 71.7075 14.9415C71.256 14.7571 70.83 14.5281 70.423 14.2547C70.0224 13.9876 69.6472 13.676 69.3038 13.3326C68.954 12.9892 68.6488 12.614 68.3817 12.207C68.1082 11.8064 67.8793 11.374 67.6949 10.9288C67.5041 10.4773 67.3642 10.0131 67.2688 9.53615C67.1734 9.05921 67.1289 8.57591 67.1289 8.08625C67.1289 7.60295 67.1734 7.11965 67.2688 6.63635C67.3642 6.1594 67.5041 5.69518 67.6949 5.25004C67.8793 4.79853 68.1082 4.37246 68.3817 3.96547C68.6488 3.55848 68.954 3.18329 69.3038 2.83989C69.6472 2.4965 70.0224 2.18489 70.423 1.91781C70.83 1.64436 71.256 1.41543 71.7075 1.23101C72.159 1.04659 72.6233 0.90669 73.1002 0.811301C73.5772 0.715914 74.0605 0.665039 74.5501 0.665039C75.0334 0.665039 75.5167 0.715914 75.9937 0.811301C76.477 0.90669 76.9412 1.04659 77.3863 1.23101C77.8378 1.41543 78.2639 1.64436 78.6709 1.91781C79.0779 2.18489 79.4531 2.4965 79.7965 2.83989C80.1399 3.18329 80.4451 3.55848 80.7186 3.96547C80.992 4.37246 81.2146 4.79853 81.4054 5.25004C81.5898 5.69518 81.7297 6.1594 81.8251 6.63635C81.9205 7.11965 81.9713 7.60295 81.9713 8.08625Z" fill="#CC9933"/>
<path fill-rule="evenodd" clip-rule="evenodd" d="M65.7752 87.4564C65.7752 89.7521 67.6448 91.6153 69.9342 91.6153C72.2362 91.6153 74.0995 89.7521 74.0995 87.4564V52.557H75.9563L75.9436 87.4564C75.9436 89.7521 77.8069 91.6153 80.1026 91.6153C82.3982 91.6153 84.2615 89.7521 84.2615 87.4564L84.2806 27.2855H86.1057V49.4601C86.1057 53.9242 91.9243 53.9242 91.9116 49.4601V26.8149C91.9116 21.8865 89.0182 17.0598 83.2504 17.0598L66.6147 17.0471C61.3619 17.0471 58.0742 21.3332 58.0742 26.6813V49.4601C58.0742 53.8924 63.9247 53.8924 63.9247 49.4601V27.2855H65.788L65.7752 87.4564Z" fill="#CC9933"/>
<path fill-rule="evenodd" clip-rule="evenodd" d="M50.0485 23.2793C54.8179 23.2793 56.7511 27.2093 57.4697 29.3714L63.3265 48.6208C64.4966 52.7606 59.2248 54.4776 57.972 50.4395L52.7002 32.7673H51.1677L60.3059 64.2072H51.8863V88.7157C51.8863 92.8937 45.6034 92.8746 45.6034 88.7157V64.0419H43.0406L43.047 88.6839C43.047 92.8937 36.7322 92.8937 36.7322 88.6839V64.2072H28.2872L37.3491 32.7673H35.931L30.6656 50.5031C29.4064 54.3695 24.0965 52.7797 25.3111 48.6399L31.1616 29.3714C31.7911 27.1775 33.7116 23.2793 38.5192 23.2793H50.0485Z" fill="#CC9933"/>
<path d="M51.1479 15.0119C51.1479 15.4571 51.1034 15.9022 51.0143 16.341C50.9317 16.7862 50.7981 17.2122 50.6264 17.6256C50.4547 18.0389 50.2449 18.4332 49.9969 18.8084C49.7489 19.1772 49.4627 19.5206 49.1447 19.8386C48.8268 20.1565 48.4834 20.4427 48.1145 20.6907C47.7393 20.9387 47.3451 21.1486 46.9317 21.3203C46.5184 21.492 46.0923 21.6192 45.6472 21.7082C45.2084 21.7972 44.7632 21.8417 44.3181 21.8417C43.8666 21.8417 43.4214 21.7972 42.9826 21.7082C42.5439 21.6192 42.1178 21.492 41.7044 21.3203C41.2911 21.1486 40.8968 20.9387 40.5216 20.6907C40.1464 20.4427 39.803 20.1565 39.4851 19.8386C39.1671 19.5206 38.8873 19.1772 38.6393 18.8084C38.3913 18.4332 38.1751 18.0389 38.0034 17.6256C37.838 17.2122 37.7045 16.7862 37.6155 16.341C37.5328 15.9022 37.4883 15.4571 37.4883 15.0119C37.4883 14.5604 37.5328 14.1216 37.6155 13.6765C37.7045 13.2377 37.838 12.8116 38.0034 12.3983C38.1751 11.9849 38.3913 11.5907 38.6393 11.2155C38.8873 10.8466 39.1671 10.4969 39.4851 10.1789C39.803 9.86732 40.1464 9.58116 40.5216 9.33315C40.8968 9.08514 41.2911 8.87528 41.7044 8.70358C42.1178 8.53189 42.5439 8.39834 42.9826 8.31567C43.4214 8.22664 43.8666 8.18213 44.3181 8.18213C44.7632 8.18213 45.2084 8.22664 45.6472 8.31567C46.0923 8.39834 46.5184 8.53189 46.9317 8.70358C47.3451 8.87528 47.7393 9.08514 48.1145 9.33315C48.4834 9.58116 48.8268 9.86732 49.1447 10.1789C49.4627 10.4969 49.7489 10.8466 49.9969 11.2155C50.2449 11.5907 50.4547 11.9849 50.6264 12.3983C50.7981 12.8116 50.9317 13.2377 51.0143 13.6765C51.1034 14.1216 51.1479 14.5604 51.1479 15.0119Z" fill="#CC9933"/>
<path fill-rule="evenodd" clip-rule="evenodd" d="M105.094 48.6143C108.083 48.6143 109.298 51.0753 109.749 52.4298L113.425 64.5059C114.156 67.1069 110.849 68.1816 110.067 65.6506L106.76 54.5601H105.8L111.523 74.2801H106.251V89.6567C106.251 92.2767 102.302 92.2639 102.302 89.6567V74.1783H100.7V89.6376C100.7 92.2767 96.7381 92.2767 96.7381 89.6376V74.2801H91.4472L97.126 54.5601H96.242L92.9352 65.6888C92.1467 68.1116 88.8145 67.1196 89.5776 64.5187L93.2468 52.4298C93.6411 51.0562 94.843 48.6143 97.8636 48.6143H105.094Z" fill="#CC9933"/>
<path d="M105.781 43.4248C105.781 43.9908 105.673 44.5377 105.457 45.0655C105.241 45.587 104.929 46.0512 104.528 46.4518C104.128 46.8525 103.664 47.1641 103.142 47.3803C102.614 47.6028 102.067 47.711 101.501 47.711C100.929 47.711 100.382 47.6028 99.8608 47.3803C99.333 47.1641 98.8688 46.8525 98.4681 46.4518C98.0675 46.0512 97.7559 45.587 97.5397 45.0655C97.3235 44.5377 97.2154 43.9908 97.2154 43.4248C97.2154 42.8589 97.3235 42.312 97.5397 41.7842C97.7559 41.2627 98.0675 40.7985 98.4681 40.3915C98.8688 39.9909 99.333 39.6856 99.8608 39.463C100.382 39.2468 100.929 39.1387 101.501 39.1387C102.067 39.1387 102.614 39.2468 103.142 39.463C103.664 39.6856 104.128 39.9909 104.528 40.3915C104.929 40.7985 105.241 41.2627 105.457 41.7842C105.673 42.312 105.781 42.8589 105.781 43.4248ZM16.7458 33.5235C16.7458 34.2103 16.6123 34.8653 16.3515 35.5013C16.0908 36.1308 15.7156 36.6904 15.2323 37.1737C14.749 37.657 14.1894 38.0322 13.5598 38.293C12.9239 38.5537 12.2689 38.6872 11.5821 38.6872C10.9017 38.6872 10.2403 38.5537 9.61077 38.293C8.97485 38.0322 8.41524 37.657 7.93194 37.1737C7.44864 36.6904 7.07981 36.1308 6.81272 35.5013C6.55199 34.8653 6.4248 34.2103 6.4248 33.5235C6.4248 32.8431 6.55199 32.1817 6.81272 31.5522C7.07981 30.9163 7.44864 30.3566 7.93194 29.8733C8.41524 29.39 8.97485 29.0212 9.61077 28.7541C10.2403 28.4934 10.9017 28.3662 11.5821 28.3662C12.2689 28.3662 12.9239 28.4934 13.5598 28.7541C14.1894 29.0212 14.749 29.39 15.2323 29.8733C15.7156 30.3566 16.0908 30.9163 16.3515 31.5522C16.6123 32.1817 16.7458 32.8431 16.7458 33.5235Z" fill="#CC9933"/>
<path fill-rule="evenodd" clip-rule="evenodd" d="M5.48289 88.7218C5.48289 90.3244 6.78017 91.6153 8.37634 91.6153C9.9725 91.6153 11.2698 90.3244 11.2698 88.7218V64.4487H12.5607L12.5543 88.7218C12.5543 90.3244 13.8453 91.6153 15.4478 91.6153C17.044 91.6153 18.3349 90.3244 18.3349 88.7218L18.3476 46.8782H19.6194V62.2993C19.6194 65.4026 23.6639 65.4026 23.6575 62.2993V46.5475C23.6575 43.1199 21.6417 39.7622 17.6354 39.7622L6.06794 39.7559C2.41139 39.7559 0.12207 42.7383 0.12207 46.4521V62.2993C0.12207 65.3772 4.19197 65.3772 4.19197 62.2993V46.8782H5.48925L5.48289 88.7218Z" fill="#CC9933"/>
</svg>
