<svg width="114" height="94" viewBox="0 0 114 94" fill="none" xmlns="http://www.w3.org/2000/svg">
<path d="M53.2707 85.6113C48.6539 85.6113 44.8065 88.6892 43.522 93.0516H62.7586C61.7348 88.9499 57.8875 85.6113 53.2707 85.6113Z" fill="#EBBD58"/>
<path d="M57.3719 76.6382C57.3719 77.1787 57.2701 77.7002 57.0603 78.2089C56.8504 78.7113 56.5579 79.1501 56.17 79.538C55.7884 79.9195 55.3433 80.2184 54.8409 80.4283C54.3385 80.6381 53.8107 80.7399 53.2702 80.7399C52.7233 80.7399 52.2018 80.6381 51.6994 80.4283C51.1971 80.2184 50.7519 79.9195 50.3704 79.538C49.9825 79.1501 49.6836 78.7113 49.4801 78.2089C49.2702 77.7002 49.1685 77.1787 49.1685 76.6382C49.1685 76.0913 49.2702 75.5698 49.4801 75.0674C49.6836 74.5651 49.9825 74.1199 50.3704 73.732C50.7519 73.3505 51.1971 73.0516 51.6994 72.8417C52.2018 72.6382 52.7233 72.5301 53.2702 72.5301C53.8107 72.5301 54.3385 72.6382 54.8409 72.8417C55.3433 73.0516 55.7884 73.3505 56.17 73.732C56.5579 74.1199 56.8504 74.5651 57.0603 75.0674C57.2701 75.5698 57.3719 76.0913 57.3719 76.6382ZM48.6534 22.7692C47.8839 22.2541 46.8601 21.9998 46.345 21.9998L37.8809 31.7484C37.8809 31.7484 37.6201 32.0028 37.3658 32.0028C37.1114 32.0028 37.1114 32.2572 36.8507 32.2572H35.0574C34.803 32.2572 34.803 32.0028 34.5423 32.0028C34.5423 32.0028 34.2879 32.0028 34.2879 31.7484C34.2879 31.7484 34.0335 31.4877 34.0335 31.2333C34.0335 30.979 33.7728 30.979 33.7728 30.7182C31.9795 25.8471 27.3627 22.7692 21.9764 22.7692C16.5902 22.7692 11.7127 26.3622 9.91937 31.4877C9.40427 32.7723 9.1499 34.3112 9.1499 35.8501V80.2248C9.1499 81.7637 10.4345 83.0483 11.9734 83.0483C13.5123 83.0483 14.7905 81.7637 14.7905 80.2248V79.9704V79.716L19.4137 55.8562C19.6681 54.578 20.6919 53.8086 21.9764 53.8086C23.261 53.8086 24.2848 54.578 24.5392 55.8562L29.156 79.716V80.2248C29.156 81.7637 30.4406 83.0483 31.9795 83.0483C33.5184 83.0483 34.803 81.7637 34.803 80.2248V79.716V43.2904V43.0361V42.521C34.803 42.2666 35.0574 42.2666 35.0574 42.0059C35.0574 42.0059 35.0574 41.7515 35.3117 41.7515L49.6772 25.8471C49.6772 24.5625 49.4228 23.2843 48.6534 22.7692Z" fill="#EBBD58"/>
<path d="M0.430664 59.7042C0.685033 60.2193 1.4545 61.2431 2.22396 61.5039C2.73906 61.7582 2.99343 61.5039 3.50853 61.5039V38.1592C1.96959 40.4676 0.430664 43.0367 0.430664 46.1146V59.7042Z" fill="#EBBD58"/>
<path d="M30.187 9.42799C30.187 9.9876 30.1298 10.5345 30.0217 11.0814C29.9136 11.6283 29.7546 12.1561 29.5384 12.6712C29.3285 13.1863 29.0678 13.6696 28.7562 14.1338C28.451 14.598 28.1012 15.0241 27.7069 15.4184C27.3127 15.8126 26.8866 16.1624 26.4224 16.4676C25.9582 16.7792 25.4749 17.04 24.9598 17.2498C24.4447 17.466 23.9169 17.625 23.37 17.7331C22.8294 17.8412 22.2762 17.8985 21.7229 17.8985C21.1633 17.8985 20.6164 17.8412 20.0695 17.7331C19.5226 17.625 18.9948 17.466 18.4797 17.2498C17.9646 17.04 17.4813 16.7792 17.0171 16.4676C16.5529 16.1624 16.1268 15.8126 15.7325 15.4184C15.3446 15.0241 14.9885 14.598 14.6833 14.1338C14.3717 13.6696 14.1109 13.1863 13.9011 12.6712C13.6849 12.1561 13.5259 11.6283 13.4178 11.0814C13.3097 10.5345 13.2524 9.9876 13.2524 9.42799C13.2524 8.87474 13.3097 8.32784 13.4178 7.78095C13.5259 7.23406 13.6849 6.70624 13.9011 6.19115C14.1109 5.67605 14.3717 5.19275 14.6833 4.72852C14.9885 4.2643 15.3446 3.83823 15.7325 3.44396C16.1268 3.04969 16.5529 2.69993 17.0171 2.39469C17.4813 2.08309 17.9646 1.82236 18.4797 1.61251C18.9948 1.39629 19.5226 1.23731 20.0695 1.12921C20.6164 1.0211 21.1633 0.963867 21.7229 0.963867C22.2762 0.963867 22.8294 1.0211 23.37 1.12921C23.9169 1.23731 24.4447 1.39629 24.9598 1.61251C25.4749 1.82236 25.9582 2.08309 26.4224 2.39469C26.8866 2.69993 27.3127 3.04969 27.7069 3.44396C28.1012 3.83823 28.451 4.2643 28.7562 4.72852C29.0678 5.19275 29.3285 5.67605 29.5384 6.19115C29.7546 6.70624 29.9136 7.23406 30.0217 7.78095C30.1298 8.32784 30.187 8.87474 30.187 9.42799Z" fill="#EBBD58"/>
<path d="M44.545 17.1288C45.0601 17.1288 49.1681 16.3593 51.9853 18.9221C54.0393 20.7154 54.8087 23.2845 54.5544 26.8711C54.5544 27.3862 54.2936 27.9013 53.7849 28.41L39.4194 44.3145V45.8534H112.779V4.30225H40.9584V19.9459L42.7517 17.6375C43.5211 17.3832 44.0362 17.1288 44.545 17.1288ZM70.1981 10.7123H95.0817C96.6206 10.7123 97.6444 11.7425 97.6444 13.2815C97.6444 14.8204 96.6206 15.8442 95.0817 15.8442H70.1981C68.6591 15.8442 67.6353 14.8204 67.6353 13.2815C67.6353 11.9969 68.6591 10.7123 70.1981 10.7123ZM70.1981 22.2543H95.0817C96.6206 22.2543 97.6444 23.2845 97.6444 24.8234C97.6444 26.3624 96.6206 27.3862 95.0817 27.3862H70.1981C68.6591 27.3862 67.6353 26.3624 67.6353 24.8234C67.6353 23.5389 68.6591 22.2543 70.1981 22.2543ZM70.1981 33.7963H95.0817C96.6206 33.7963 97.6444 34.8265 97.6444 36.3654C97.6444 37.9044 96.6206 38.9282 95.0817 38.9282H70.1981C68.6591 38.9282 67.6353 37.9044 67.6353 36.3654C67.6353 35.0809 68.6591 33.7963 70.1981 33.7963Z" fill="#EBBD58"/>
<path d="M78.4079 85.6111C73.7911 85.6111 69.9437 88.6889 68.6592 93.0514H87.8958C86.872 88.9497 83.0247 85.6111 78.4079 85.6111Z" fill="#EBBD58"/>
<path d="M82.5096 76.6386C82.5096 77.1791 82.4078 77.7006 82.198 78.2093C81.9881 78.7117 81.6956 79.1505 81.3077 79.5384C80.9261 79.9199 80.481 80.2188 79.9786 80.4287C79.4762 80.6385 78.9484 80.7403 78.4079 80.7403C77.861 80.7403 77.3395 80.6385 76.8371 80.4287C76.3348 80.2188 75.8896 79.9199 75.5081 79.5384C75.1201 79.1505 74.8213 78.7117 74.6178 78.2093C74.4079 77.7006 74.2998 77.1791 74.2998 76.6386C74.2998 76.0917 74.4079 75.5702 74.6178 75.0678C74.8213 74.5655 75.1201 74.1203 75.5081 73.7324C75.8896 73.3509 76.3348 73.052 76.8371 72.8421C77.3395 72.6386 77.861 72.5305 78.4079 72.5305C78.9484 72.5305 79.4762 72.6386 79.9786 72.8421C80.481 73.052 80.9261 73.3509 81.3077 73.7324C81.6956 74.1203 81.9881 74.5655 82.198 75.0678C82.4078 75.5702 82.5096 76.0917 82.5096 76.6386Z" fill="#EBBD58"/>
<path d="M103.545 85.6113C98.9283 85.6113 95.0809 88.6892 93.7964 93.0516H113.294C112.264 88.9499 108.162 85.6113 103.545 85.6113Z" fill="#EBBD58"/>
<path d="M107.647 76.6386C107.647 77.1791 107.545 77.7006 107.335 78.2093C107.125 78.7117 106.833 79.1505 106.445 79.5384C106.063 79.9199 105.618 80.2188 105.116 80.4287C104.613 80.6385 104.086 80.7403 103.545 80.7403C102.998 80.7403 102.477 80.6385 101.974 80.4287C101.472 80.2188 101.027 79.9199 100.639 79.5384C100.257 79.1505 99.9585 78.7117 99.755 78.2093C99.5451 77.7006 99.437 77.1791 99.437 76.6386C99.437 76.0917 99.5451 75.5702 99.755 75.0678C99.9585 74.5655 100.257 74.1203 100.639 73.7324C101.027 73.3509 101.472 73.052 101.974 72.8421C102.477 72.6386 102.998 72.5305 103.545 72.5305C104.086 72.5305 104.613 72.6386 105.116 72.8421C105.618 73.052 106.063 73.3509 106.445 73.7324C106.833 74.1203 107.125 74.5655 107.335 75.0678C107.545 75.5702 107.647 76.0917 107.647 76.6386Z" fill="#EBBD58"/>
</svg>
