<svg width="131" height="98" viewBox="0 0 131 98" fill="none" xmlns="http://www.w3.org/2000/svg">
<path fill-rule="evenodd" clip-rule="evenodd" d="M70.2395 18.9497C70.1568 19.6556 71.5622 20.3614 73.241 20.5331H73.7688L101.902 39.2292L55.8676 33.2325L0.841309 0.164551L73.063 10.9243L130.207 42.9367L104.897 39.6744L104.02 39.5854L75.7974 20.2724C76.2362 20.0943 76.5923 20.0053 76.5923 19.4775C76.6814 18.9497 75.2696 17.9767 73.5908 17.8877C71.8293 17.716 70.3285 18.1548 70.2395 18.9497ZM90.5254 48.8444C90.8751 42.8476 90.8751 39.4073 90.5254 38.5234L55.7786 34.0274L41.4958 25.3852C37.9664 31.2929 35.5817 37.2897 34.259 43.3754C34.1763 43.6425 34.1763 43.9923 34.0873 44.2594C59.1299 52.3737 77.915 53.8682 90.5254 48.8444Z" fill="#CC9933"/>
<path fill-rule="evenodd" clip-rule="evenodd" d="M73.2422 20.6221C71.3916 20.4504 69.9799 19.6555 70.0689 18.8606C70.158 18.0657 71.6524 17.6269 73.5093 17.805C75.3598 17.9767 76.7715 18.7716 76.6825 19.5665C76.6825 19.9163 76.3264 20.1833 75.7986 20.3614L104.021 39.4963L103.932 43.0257C105.433 43.6425 106.31 45.1369 106.221 46.8158C106.049 48.4056 104.987 49.6393 103.493 50.078C103.404 56.3419 103.226 62.5993 103.048 68.8632C103.048 69.6581 102.959 70.4466 102.959 71.1525C102.87 75.038 102.787 78.3893 102.609 81.2954C102.342 88.6149 102.081 92.8502 101.903 93.9948L102.164 81.5625L102.253 77.4163L101.992 81.6516L101.197 95.4066C101.286 89.2318 101.375 84.7358 101.464 81.8233C101.547 80.0618 101.547 78.9171 101.547 78.472C101.464 79.712 101.375 80.7676 101.286 81.9123C100.759 88.2652 100.491 92.494 100.402 94.6116C100.58 88.7039 100.669 84.5577 100.669 82.1794C100.669 80.7676 100.669 79.9727 100.58 79.8837C100.491 80.6786 100.491 81.4735 100.402 82.2684C99.9636 89.4988 99.6075 94.1729 99.5185 96.4622C99.5185 89.9376 99.6075 85.3526 99.6075 82.6182C99.6075 81.3845 99.6965 80.5896 99.6965 80.1508C99.6075 81.0347 99.6075 81.9123 99.5185 82.7072C98.9016 91.7882 98.6409 96.5512 98.5519 96.9964V83.146V82.0903C98.4628 82.4401 98.4628 82.8853 98.4628 83.146C97.757 92.5831 97.4072 97.4351 97.3182 97.6132V81.2954C97.2292 82.1794 97.2292 82.9743 97.2292 83.7628C96.7904 93.556 96.3452 98.23 95.9955 97.8739L96.4343 84.208C97.846 72.9204 99.7856 61.1876 100.759 50.078C99.4358 49.3722 98.5519 47.9604 98.7299 46.377C98.9016 44.7872 99.9636 43.5535 101.375 43.1147L101.725 39.4963L73.9481 20.6221H73.2422Z" fill="#CC9933"/>
</svg>
