<svg width="283" height="209" viewBox="0 0 283 209" fill="none" xmlns="http://www.w3.org/2000/svg">
<path d="M30.5229 164.601C30.5229 178.624 39.7571 192.168 47.9964 201.049C52.9164 206.354 60.0523 208.705 67.2832 208.705H209.205C237.446 208.705 281.604 164.402 282.102 136.148C282.165 132.602 282.038 128.89 281.649 124.983C277.652 84.6138 250.456 72.282 222.066 56.9566C193.676 41.6311 212.068 19.206 163.283 5.75269C114.499 -7.70512 62.9103 36.7744 64.5111 78.2602C66.112 119.746 30.5229 125.729 30.5229 164.601Z" fill="#E7E8FF"/>
<path d="M242.795 56.5089C226.308 50.9015 215.866 34.9248 212.705 27.6352C206.935 11.1385 223.834 19.7984 235.786 34.649C247.738 49.4951 263.403 63.5227 242.795 56.5089Z" fill="#E7E8FF"/>
<path d="M126.179 208.704H99.8198C85.5209 203.613 71.222 180.152 84.4039 182.589C97.5859 185.022 110.542 183.914 93.3396 175.508C76.1375 167.097 85.5209 160.675 93.3396 161.34C101.158 162.005 99.8198 156.691 96.6905 146.512C93.5612 136.333 96.6905 127.035 105.405 127.035C114.119 127.035 107.191 152.269 114.119 154.037C121.042 155.809 117.691 144.079 126.179 146.512C134.672 148.949 120.82 177.941 126.179 175.508C131.542 173.07 130.873 161.34 140.478 170.194C148.166 177.276 134.147 198.819 126.179 208.704ZM0.848853 164.569C4.40776 188.748 22.8218 202.722 32.3815 207.022C32.689 207.162 33.0146 207.226 33.3493 207.226H36.0444C37.6453 207.226 38.8255 205.72 38.3914 204.178C31.0249 177.954 13.9358 165.925 3.69778 162.172C2.12409 161.593 0.609182 162.909 0.848853 164.569Z" fill="white"/>
<path fill-rule="evenodd" clip-rule="evenodd" d="M3.41283 162.945C2.47223 162.597 1.50902 163.361 1.66729 164.446C5.17193 188.26 23.3192 202.043 32.7206 206.271C32.9106 206.357 33.1186 206.398 33.3492 206.398H36.0444C37.1207 206.398 37.8804 205.398 37.6 204.404C30.3058 178.451 13.4248 166.617 3.41283 162.945ZM0.0348113 164.686C-0.295303 162.456 1.77582 160.589 3.98261 161.394C14.4513 165.233 31.7393 177.456 39.1873 203.956C39.7751 206.045 38.1698 208.048 36.0444 208.048H33.3492C32.906 208.048 32.4674 207.962 32.0423 207.777C22.3198 203.404 3.64798 189.236 0.0348113 164.686Z" fill="#032068"/>
<path fill-rule="evenodd" clip-rule="evenodd" d="M15.6722 178.483C13.1217 175.864 10.82 173.762 8.79858 171.966L9.89746 170.736C12.2761 172.853 15.0708 175.408 18.2046 178.745C20.5289 181.223 23.0342 184.131 25.6977 187.608V184.049H27.3438V189.811C29.6184 192.913 31.9925 196.431 34.448 200.442C35.6147 202.35 36.7995 204.363 38.0024 206.502L36.5644 207.311C35.4383 205.312 34.3304 203.418 33.2361 201.627L27.9407 200.736L28.212 199.108L32.0829 199.759C29.9349 196.327 27.8548 193.284 25.856 190.57C22.7764 186.383 19.8868 182.973 17.2414 180.133H11.8872V178.483H15.6722Z" fill="#032068"/>
<path d="M29.7134 122.58C14.3066 155.131 25.3631 190.828 33.7336 206.294C34.1541 207.076 34.9726 207.542 35.8635 207.542H39.7344C41.0368 207.542 42.1176 206.52 42.1944 205.222C44.7178 164.166 38.4547 135.541 33.7245 122.716C33.0281 120.835 30.5726 120.767 29.7134 122.58Z" fill="#032068"/>
<path d="M65.4109 141.135C45.6583 154.476 36.0669 187.071 33.2451 204.766C33.01 206.24 34.1631 207.543 35.6599 207.543H41.3669C42.0045 207.543 42.624 207.294 43.0762 206.846C61.1013 188.889 67.5001 159.255 68.7935 143.175C68.9427 141.289 66.9756 140.077 65.4109 141.135Z" fill="white"/>
<path fill-rule="evenodd" clip-rule="evenodd" d="M67.9703 143.107C68.0698 141.868 66.8262 141.171 65.872 141.818C56.1857 148.357 48.9277 159.676 43.7363 171.646C38.5494 183.598 35.4608 196.101 34.059 204.897C33.9052 205.847 34.6514 206.715 35.6598 206.715H41.3667C41.7963 206.715 42.1988 206.552 42.4927 206.258C51.3877 197.404 57.4383 185.633 61.4268 174.038C65.4153 162.448 67.3282 151.088 67.9703 143.107ZM64.9495 140.448C67.1247 138.978 69.8198 140.71 69.6163 143.238C68.9652 151.337 67.0297 162.837 62.9869 174.576C58.9532 186.307 52.7896 198.331 43.6594 207.429C43.0444 208.04 42.2169 208.365 41.3667 208.365H35.6598C33.6791 208.365 32.1099 206.633 32.431 204.635C33.851 195.731 36.9712 183.091 42.2214 170.99C47.467 158.903 54.8833 147.249 64.9495 140.448Z" fill="#032068"/>
<path d="M82.0114 176.01C62.4171 176.742 47.6343 193.017 40.8692 204.015C39.897 205.593 41.0727 207.542 42.9268 207.542H49.7778C50.1215 207.542 50.4606 207.47 50.7726 207.33C63.6245 201.483 76.6979 188.07 83.7072 179.618C84.9508 178.121 83.9559 175.937 82.0114 176.01Z" fill="#032068"/>
<path fill-rule="evenodd" clip-rule="evenodd" d="M32.3952 127.89C32.1781 134.47 32.142 140.823 32.2505 146.892C32.3319 151.591 32.4992 156.117 32.7298 160.44L36.2661 154.729L37.668 155.597L32.8971 163.312C33.2318 168.766 33.6614 173.871 34.1543 178.57C34.7331 184.141 35.3934 189.133 36.0581 193.443L39.1196 188.387L40.5305 189.242L36.4606 195.962C37.27 200.882 38.0659 204.739 38.7171 207.344L37.1163 207.742C36.438 205.028 35.6149 201.022 34.7829 195.93C34.0051 191.195 33.2227 185.52 32.5444 179.062L26.5843 173.88L27.6651 172.636L32.3002 176.666C31.8887 172.451 31.5224 167.934 31.233 163.149C30.9255 158.098 30.7084 152.757 30.6044 147.168L26.4441 141.022L27.8098 140.095L30.5592 144.161C30.5049 138.911 30.5592 133.452 30.7446 127.836L32.3952 127.89Z" fill="white"/>
<path fill-rule="evenodd" clip-rule="evenodd" d="M54.983 166.894C58.0942 159.925 61.3049 153.395 64.3438 148.281L62.9239 147.439C59.5911 153.051 56.0774 160.305 52.7174 167.929C50.8905 172.076 49.1088 176.34 47.4266 180.519L46.0292 173.414L44.4103 173.736L46.3006 183.336C44.5596 187.731 42.9452 191.978 41.5252 195.826C39.8747 200.303 38.4818 204.246 37.4553 207.276L39.0155 207.805C40.0194 204.852 41.3669 201.022 42.9678 196.676L51.3518 191.747L50.5152 190.323L43.8767 194.23C45.1158 190.92 46.4769 187.37 47.924 183.72C49.855 178.855 51.9351 173.812 54.0831 168.929L61.6712 166.423L61.1512 164.854L54.983 166.894Z" fill="#032068"/>
<path fill-rule="evenodd" clip-rule="evenodd" d="M79.1989 180.681C74.6722 182.644 70.0732 185.321 65.6823 188.296C62.9147 190.168 60.2422 192.158 57.7233 194.148H62.0465V195.794H55.6703C49.8368 200.574 45.0569 205.186 42.3301 208.103L41.1272 206.977C43.94 203.965 48.8645 199.217 54.8563 194.333C57.8635 191.878 61.1466 189.386 64.5653 187.057L67.0118 181.798L68.5086 182.494L67.1926 185.325C70.8963 182.951 74.7355 180.817 78.5431 179.166L79.1989 180.681Z" fill="white"/>
<path d="M17.3225 4.95034C17.3225 2.67119 19.1675 0.826172 21.4467 0.826172H182.303C184.582 0.826172 186.427 2.67119 186.427 4.95034V135.287C186.427 137.561 184.582 139.411 182.303 139.411H21.4467C19.1675 139.411 17.3225 137.561 17.3225 135.287V4.95034Z" fill="white"/>
<path fill-rule="evenodd" clip-rule="evenodd" d="M16.4998 4.95171C16.4998 2.21584 18.7156 0 21.4469 0H182.303C185.039 0 187.255 2.21584 187.255 4.95171V135.288C187.255 138.019 185.039 140.235 182.303 140.235H21.4469C18.7156 140.235 16.4998 138.019 16.4998 135.288V4.95171ZM21.4469 1.65057C19.6245 1.65057 18.1503 3.1293 18.1503 4.95171V135.288C18.1503 137.11 19.6245 138.585 21.4469 138.585H182.303C184.125 138.585 185.604 137.11 185.604 135.288V4.95171C185.604 3.1293 184.125 1.65057 182.303 1.65057H21.4469Z" fill="#032068"/>
<path d="M36.2976 68.4699C36.2976 66.1907 38.1426 64.3457 40.4218 64.3457H98.9876C101.267 64.3457 103.112 66.1907 103.112 68.4699V85.7941C103.112 88.0687 101.267 89.9182 98.9876 89.9182H40.4218C38.1426 89.9182 36.2976 88.0687 36.2976 85.7941V68.4699Z" fill="#EBBD58"/>
<path fill-rule="evenodd" clip-rule="evenodd" d="M164.156 68.881H125.388V67.2305H164.156V68.881ZM164.156 84.9662H125.388V83.3156H164.156V84.9662ZM101.05 103.113H37.1206V101.467H101.05V103.113ZM101.05 118.376H37.1206V116.725H101.05V118.376Z" fill="#E7E8FF"/>
<path fill-rule="evenodd" clip-rule="evenodd" d="M51.1072 38.0439C46.2731 41.5078 41.2535 45.9938 38.1107 49.0688L36.9575 47.8885C40.1366 44.7773 45.2239 40.2281 50.1485 36.7008C52.6085 34.9417 55.0595 33.4133 57.2256 32.4455C58.3109 31.9662 59.3555 31.6135 60.3097 31.4461C61.2639 31.2879 62.1909 31.3014 63.0004 31.627C64.972 32.4184 65.7181 34.3086 65.9623 36.33C66.202 38.3469 65.9895 40.7753 65.786 43.0634L65.7815 43.0861C65.5734 45.4376 65.379 47.6308 65.6006 49.3401C65.8176 51.0495 66.3919 51.9403 67.4411 52.2162C68.6349 52.5373 70.0775 52.0851 71.7868 50.9726C73.4736 49.8692 75.2372 48.2458 77.0234 46.5409C77.2902 46.2832 77.5616 46.0254 77.8284 45.7677C79.3207 44.3296 80.813 42.8961 82.2103 41.8063C83.0378 41.1642 83.8654 40.6125 84.6703 40.2507C85.4753 39.8889 86.3254 39.6899 87.162 39.8301C88.7447 40.0924 89.8165 41.2094 90.5988 42.4937C91.3811 43.7779 91.96 45.3788 92.4936 46.8575C93.0453 48.3814 93.5472 49.7562 94.1667 50.7646C94.7863 51.764 95.3922 52.1891 96.1022 52.1891C96.9298 52.1891 97.8206 51.7323 98.7974 50.855C99.7651 49.9868 100.701 48.8065 101.628 47.572C101.827 47.3052 102.031 47.0339 102.23 46.7625C102.935 45.8129 103.636 44.8632 104.301 44.1171C104.73 43.6287 105.183 43.1901 105.644 42.8645C106.101 42.5434 106.639 42.2902 107.236 42.2902C108.226 42.2902 109.049 42.7559 109.768 43.2941C110.13 43.5654 110.492 43.8774 110.853 44.1895C110.899 44.2301 110.944 44.2708 110.994 44.3115C111.315 44.5919 111.636 44.8723 111.984 45.1572C113.549 46.4279 115.534 47.6534 118.785 47.6534C121.367 47.6534 123.877 48.0423 126.125 48.386C126.984 48.5171 127.807 48.6437 128.58 48.7432C131.47 49.105 133.627 49.0462 135.191 47.8252C136.159 47.0746 136.964 46.6314 137.715 46.455C138.502 46.2741 139.139 46.4053 139.709 46.6269C140.003 46.7399 140.265 46.8665 140.523 46.9886C141.237 47.3323 141.907 47.6534 143.119 47.6534V49.304C141.491 49.304 140.392 48.7703 139.637 48.4041C139.438 48.3091 139.266 48.2232 139.112 48.1644C138.75 48.0242 138.461 47.9745 138.09 48.0649C137.674 48.1599 137.091 48.4402 136.204 49.1276C134.056 50.8008 131.262 50.7375 128.377 50.3802C127.513 50.2717 126.64 50.136 125.745 50.0004C123.542 49.6567 121.232 49.304 118.785 49.304C115.027 49.304 112.685 47.8478 110.944 46.4369C110.573 46.134 110.225 45.831 109.908 45.5551C109.863 45.5144 109.813 45.4737 109.768 45.433C109.406 45.121 109.085 44.8452 108.778 44.6145C108.158 44.1488 107.688 43.9407 107.236 43.9407C107.114 43.9407 106.906 43.995 106.589 44.2166C106.277 44.4336 105.929 44.7683 105.535 45.2114C104.92 45.8988 104.283 46.7625 103.586 47.7031C103.378 47.9835 103.166 48.2684 102.949 48.5623C102.017 49.7969 101 51.0947 99.9008 52.0805C98.8155 53.0618 97.5402 53.8396 96.1022 53.8396C94.5421 53.8396 93.4975 52.8222 92.7649 51.6328C92.0504 50.4752 91.5032 48.9603 90.9832 47.5222L90.9425 47.4182C90.3953 45.9033 89.8662 44.4653 89.1924 43.3529C88.5141 42.2404 87.7815 41.6028 86.8907 41.4536C86.4927 41.3903 85.9863 41.4717 85.3486 41.7566C84.711 42.0414 84.001 42.5027 83.2232 43.1087C81.9028 44.1397 80.4828 45.5009 78.9905 46.9389C78.7147 47.2012 78.4388 47.468 78.163 47.7348C76.3903 49.4306 74.5182 51.158 72.6867 52.3519C70.8779 53.5321 68.9153 54.319 67.016 53.8125C64.972 53.2653 64.2078 51.4746 63.9636 49.5482C63.7194 47.6534 63.9274 45.3019 64.1309 43.0454L64.1399 42.9413C64.3479 40.5944 64.5424 38.3424 64.3208 36.5245C64.1038 34.7021 63.5068 33.6077 62.3854 33.16C61.9603 32.9882 61.3679 32.943 60.5901 33.0741C59.8123 33.2052 58.9078 33.5037 57.8994 33.9559C55.8735 34.8558 53.5311 36.3119 51.1072 38.0439Z" fill="#EBBD58"/>
<path d="M17.3225 6.32958C17.3225 3.29072 19.7871 0.826172 22.8259 0.826172H180.923C183.962 0.826172 186.427 3.29072 186.427 6.32958V19.7964H17.3225V6.32958Z" fill="#032068"/>
<path d="M34.2038 10.1557C34.2038 12.3625 32.4131 14.1533 30.2063 14.1533C27.9995 14.1533 26.2087 12.3625 26.2087 10.1557C26.2087 7.94896 27.9995 6.1582 30.2063 6.1582C32.4131 6.1582 34.2038 7.94896 34.2038 10.1557ZM47.535 10.1557C47.535 12.3625 45.7443 14.1533 43.5375 14.1533C41.3262 14.1533 39.5354 12.3625 39.5354 10.1557C39.5354 7.94896 41.3262 6.1582 43.5375 6.1582C45.7443 6.1582 47.535 7.94896 47.535 10.1557ZM60.8617 10.1557C60.8617 12.3625 59.0709 14.1533 56.8641 14.1533C54.6528 14.1533 52.8666 12.3625 52.8666 10.1557C52.8666 7.94896 54.6528 6.1582 56.8641 6.1582C59.0709 6.1582 60.8617 7.94896 60.8617 10.1557Z" fill="white"/>
<path d="M177.55 75.8486L175.239 86.4123V93.0869L180.435 97.5367L196.019 95.868V85.856L195.44 74.18C201.789 66.3929 204.1 51.3795 197.172 43.5924C190.248 35.8053 172.354 34.6974 168.89 53.0481C166.123 67.7269 173.507 74.3654 177.55 75.8486ZM84.6254 103.099C84.6254 104.876 86.5518 107.919 87.5105 109.213L86.3573 115.887L77.702 117C75.3912 114.219 68.4633 113.106 66.7314 108.657C65.3476 105.098 69.2321 101.245 71.3484 100.318L64.2487 90.7354C63.376 89.5597 63.5749 87.9091 64.7055 86.9775C65.8405 86.0415 67.5092 86.1636 68.495 87.2534L78.2763 98.0929C78.2763 98.4637 78.6245 98.4275 80.0083 95.3118C81.7403 91.4182 83.4722 93.0869 84.6254 93.6431C85.7785 94.1993 84.6254 100.874 84.6254 103.099Z" fill="#EFCB96"/>
<path d="M184.478 91.9751C176.628 91.9751 174.665 86.0421 174.665 83.0801C169.125 83.0801 165.494 85.6848 164.341 86.4264L155.039 111.994L153.312 204.209C172.702 209.993 197.176 206.62 206.989 204.209L213.338 86.9691C209.259 84.4729 203.181 83.478 199.148 83.1796C197.646 83.071 196.358 84.1156 195.638 85.4406C194.024 88.4207 190.556 91.9751 184.478 91.9751Z" fill="white"/>
<path fill-rule="evenodd" clip-rule="evenodd" d="M165.019 86.9685L155.862 112.148L154.144 203.594C172.856 208.962 196.186 205.905 206.198 203.549L212.484 87.4252C208.59 85.2139 202.951 84.2869 199.089 84.002C198.035 83.9251 196.995 84.6668 196.367 85.8289C194.648 88.9989 190.936 92.802 184.478 92.802C180.318 92.802 177.618 91.2148 175.981 89.1527C174.633 87.4524 174.041 85.4762 173.883 83.9206C169.356 84.1332 166.295 86.1319 165.019 86.9685ZM164.129 85.5802C165.508 84.6758 169.202 82.252 174.665 82.252H175.488V83.0795C175.488 84.409 175.94 86.444 177.274 88.1262C178.581 89.7722 180.788 91.1515 184.478 91.1515C190.171 91.1515 193.4 87.8413 194.915 85.0466C195.716 83.5634 197.262 82.2158 199.207 82.3605C203.267 82.6544 209.517 83.6629 213.768 86.2676L214.188 86.5253L207.776 204.864L207.184 205.009C197.312 207.433 172.671 210.843 153.072 205L152.475 204.819L154.221 111.845L163.658 85.8832L163.893 85.7295C163.961 85.6888 164.043 85.639 164.129 85.5802Z" fill="#032068"/>
<path d="M164.273 140.913C165.105 126.939 169.713 101.475 172.598 87.0182C173.231 82.4916 174.877 81.9173 168.976 83.3327C140.509 90.1566 133.812 125.926 125.026 126.456C118.595 126.84 102.646 116.014 93.0453 108.801C90.8476 107.151 87.768 107.3 85.7873 109.208L77.8917 116.814C76.3632 118.289 75.798 120.513 76.63 122.463C83.5036 138.57 104.002 164.708 116.945 170.944C128.028 176.285 136.955 168.719 140.035 164.269C139.84 178.546 139.772 200.727 140.234 208.288H166.516C165.399 188.68 163.468 154.515 164.273 140.913ZM191.98 140.357C192.41 129.956 197.927 101.548 201.155 86.0867C201.874 82.6634 201.155 82.9031 204.814 83.6492C235.166 90.8665 259.436 141.012 257.202 160.932C255.353 177.397 240.046 181.069 230.563 182.72C230.762 186.233 233.375 196.453 234.271 206.637C228.55 209.486 214.536 208.333 195.833 207.876C193.87 187.16 191.559 150.436 191.98 140.357Z" fill="#EBBD58"/>
<path d="M176.628 136.639C176.908 133.614 179.585 131.457 182.601 131.819L213.031 135.486C216.047 135.848 218.263 138.598 217.982 141.623L213.804 186.5C213.524 189.526 210.846 191.687 207.83 191.325L177.405 187.658C174.385 187.296 172.169 184.547 172.449 181.521L176.628 136.639Z" fill="white"/>
<path fill-rule="evenodd" clip-rule="evenodd" d="M175.809 136.545C176.135 133.063 179.21 130.581 182.678 130.997L213.103 134.664C216.576 135.08 219.127 138.241 218.801 141.723L214.623 186.601C214.301 190.083 211.222 192.565 207.753 192.145L177.329 188.482C173.856 188.061 171.305 184.9 171.631 181.423L175.809 136.545ZM182.525 132.643C179.961 132.331 177.686 134.167 177.446 136.74L173.268 181.617C173.028 184.19 174.914 186.528 177.482 186.836L207.907 190.503C210.471 190.811 212.746 188.975 212.986 186.402L217.164 141.524C217.404 138.951 215.518 136.618 212.954 136.306L182.525 132.643Z" fill="#032068"/>
<path d="M254.313 140.914C250.659 146.476 240.959 159.627 247.883 176.53C256.959 172.822 260.78 156.041 254.313 140.914ZM105.983 162.602C111.559 161.304 125.605 160.49 137.15 167.608C132.533 172.614 119.835 178.619 105.983 162.602Z" fill="#032068"/>
<path d="M142.92 133.131C141.767 143.138 140.614 155.931 140.035 165.383C137.263 168.498 130.416 171.501 127.337 172.613C135.187 164.162 139.456 145.363 142.92 133.131Z" fill="#032068"/>
<path d="M173.526 158.274C174.936 158.229 180.743 161.082 183.47 162.516C185.704 166.812 188.485 175.675 181.756 176.756C173.345 178.108 166.489 178.863 165.802 169.245C165.25 161.548 169.885 160.689 172.268 161.222C172.101 160.259 172.115 158.319 173.526 158.274Z" fill="#EFCB96"/>
<path d="M195.444 73.0681L194.87 63.0561C196.597 62.3145 200.061 60.0535 200.061 56.9422C200.061 53.0487 196.597 50.2676 194.291 53.6049C193.355 54.9616 192.523 57.1367 191.912 59.2169C191.578 60.3519 189.941 60.3836 189.769 59.2123C189.389 56.6121 189.131 53.7451 189.1 51.787C189.095 51.5248 189 51.2715 188.828 51.068C187.259 49.2411 184.98 46.4645 183.578 43.507C183.185 42.675 181.914 42.4624 181.285 43.1408C178.283 46.3695 172.63 50.8238 168.402 52.1805C167.76 52.384 167.149 51.8865 167.163 51.2127C167.353 42.8694 171.292 30.9356 186.21 31.3607C205.836 31.9169 208.721 50.8238 208.721 56.9422C208.721 63.0561 222.572 73.6243 218.53 89.7502C215.522 87.3941 207.039 82.8449 196.738 83.0574H196.724C196.489 83.0846 196.15 83.7222 195.914 83.7312L195.887 83.1162L175.705 84.5543C175.529 84.5543 175.47 82.5238 175.294 82.5284C170.799 82.6595 165.738 84.4095 163.699 85.3004C166.01 83.0801 168.556 72.0099 169.519 66.8185C171.17 71.7702 175.244 74.7368 177.555 75.8492L175.705 84.5543L195.887 83.1162L195.444 73.0681Z" fill="#032068"/>
<path d="M182.384 175.395L182.371 163.822C182.366 161.127 184.315 158.83 186.952 158.274C196.181 156.325 208.721 152.838 218.597 150.957L217.449 184.081C208.4 184.068 195.209 182.463 189.746 181.662L186.35 180.676C184.003 179.994 182.384 177.841 182.384 175.395Z" fill="#EBBD58"/>
<path d="M186.671 75.6953C182.773 77.3594 178.916 76.3872 177.473 75.6953L176.393 80.9048C181.584 80.9048 185.41 77.4318 186.671 75.6953ZM214.876 183.955C219.013 184.366 225.611 183.955 230.572 183.132L230.974 188.079L214.473 186.428L214.876 183.955ZM231.386 148.072L223.549 149.722L217.363 150.957V149.722L219.425 146.421V130.336L223.549 145.598L231.386 148.072Z" fill="#032068"/>
<path d="M220.013 25.7897C220.013 24.1708 221.329 22.8594 222.952 22.8594H273.641C275.264 22.8594 276.58 24.1708 276.58 25.7897V47.6315C276.58 49.2504 275.264 50.5618 273.641 50.5618H222.952C221.329 50.5618 220.013 49.2504 220.013 47.6315V25.7897Z" fill="white"/>
<path fill-rule="evenodd" clip-rule="evenodd" d="M219.425 25.7891C219.425 23.8491 221.003 22.2754 222.952 22.2754H273.64C275.589 22.2754 277.168 23.8491 277.168 25.7891V47.6309C277.168 49.5709 275.589 51.1446 273.64 51.1446H222.952C221.003 51.1446 219.425 49.5709 219.425 47.6309V25.7891ZM222.952 23.4466C221.654 23.4466 220.601 24.4957 220.601 25.7891V47.6309C220.601 48.9242 221.654 49.9733 222.952 49.9733H273.64C274.938 49.9733 275.992 48.9242 275.992 47.6309V25.7891C275.992 24.4957 274.938 23.4466 273.64 23.4466H222.952Z" fill="#032068"/>
<path d="M236.966 36.6838C236.966 38.3796 235.587 39.7543 233.882 39.7543C232.182 39.7543 230.802 38.3796 230.802 36.6838C230.802 34.988 232.182 33.6133 233.882 33.6133C235.587 33.6133 236.966 34.988 236.966 36.6838ZM251.677 36.6838C251.677 38.3796 250.297 39.7543 248.597 39.7543C246.897 39.7543 245.517 38.3796 245.517 36.6838C245.517 34.988 246.897 33.6133 248.597 33.6133C250.297 33.6133 251.677 34.988 251.677 36.6838ZM266.717 36.6838C266.717 38.3796 265.338 39.7543 263.638 39.7543C261.937 39.7543 260.558 38.3796 260.558 36.6838C260.558 34.988 261.937 33.6133 263.638 33.6133C265.338 33.6133 266.717 34.988 266.717 36.6838ZM249.569 81.0231L246.169 85.3869C245.961 85.6537 245.621 85.7804 245.291 85.7171L241.086 84.9302C240.181 84.7584 239.639 85.8979 240.335 86.4994L243.641 89.3438C243.88 89.5518 243.993 89.8684 243.939 90.1849L243.112 94.8743C242.953 95.7561 244.039 96.2988 244.649 95.6476L248.045 92.048C248.244 91.8355 248.534 91.7315 248.823 91.7722L252.748 92.3058C253.635 92.4279 254.137 91.3245 253.463 90.7366L250.542 88.1816C250.306 87.9736 250.193 87.6616 250.243 87.3541L251.166 81.724C251.315 80.8015 250.144 80.286 249.569 81.0231ZM266.202 108.083L265.899 110.136C265.881 110.263 265.795 110.363 265.682 110.399L264.198 110.833C263.882 110.928 263.909 111.407 264.239 111.493L265.804 111.909C265.917 111.936 266.012 112.027 266.048 112.144L266.622 113.876C266.731 114.206 267.174 114.211 267.255 113.885L267.689 112.09C267.716 111.986 267.789 111.9 267.888 111.864L269.236 111.389C269.539 111.281 269.503 110.824 269.182 110.733L267.793 110.354C267.68 110.326 267.59 110.236 267.554 110.123L266.839 108.052C266.722 107.713 266.251 107.735 266.202 108.083Z" fill="#EBBD58"/>
</svg>
