<svg width="222" height="229" viewBox="0 0 222 229" fill="none" xmlns="http://www.w3.org/2000/svg">
<path d="M55.0201 22.581C-0.199379 57.8715 -0.0546732 119.68 0.00411508 122.511C0.650777 153.473 15.6913 197.971 54.8438 214.477C73.398 222.296 102.602 226.026 123.182 212.012C142.401 198.925 133.777 184.206 154.814 158.353C179.039 128.575 198.927 132.22 215.085 106.294C225.757 89.1736 220.642 68.7427 219.177 62.8866C208.424 19.9265 155.058 5.96221 149.071 4.49704C101.566 -7.16548 62.9564 17.5072 55.0201 22.581Z" fill="white"/>
<path d="M35.6928 79.6636C39.8215 78.5783 44.0451 81.0519 45.1304 85.1806C46.2112 89.3093 43.7421 93.5329 39.6134 94.6137C35.4848 95.699 31.2566 93.2299 30.1758 89.0967C29.095 84.968 31.5641 80.7444 35.6928 79.6636ZM22.2485 89.6258L23.0082 92.529L26.2868 92.4159C26.5807 93.0581 26.9289 93.664 27.3178 94.2338L25.5542 96.9923L27.666 99.1268L30.4471 97.3903C31.0169 97.7927 31.6229 98.1455 32.2514 98.4439L32.1022 101.722L34.9964 102.514L36.5384 99.6242C37.2258 99.6875 37.9267 99.6875 38.6276 99.6332L40.138 102.545L43.0412 101.781L42.9282 98.5072C43.5703 98.2088 44.1808 97.8651 44.746 97.4717L47.5091 99.2353L49.6435 97.128L47.907 94.3424C48.3049 93.7726 48.6577 93.1711 48.9606 92.538L52.2347 92.6873L53.0306 89.7931L50.1364 88.2556C50.1997 87.5637 50.2042 86.8673 50.1454 86.1619L53.0577 84.656L52.298 81.7483L49.0194 81.8613C48.721 81.2192 48.3773 80.6132 47.9884 80.0434L49.752 77.285L47.6402 75.1505L44.8591 76.887C44.2848 76.4845 43.6833 76.1318 43.0548 75.8334L43.204 72.5548L40.3053 71.7635L38.7678 74.6531C38.0804 74.5898 37.3795 74.5898 36.6741 74.644L35.1682 71.7363L32.265 72.496L32.3781 75.7746C31.7359 76.0685 31.1254 76.4122 30.5557 76.8056L27.7972 75.042L25.6627 77.1538L27.3992 79.9349C27.0013 80.5047 26.6486 81.1107 26.3456 81.7392L23.067 81.59L22.2757 84.4842L25.1653 86.0217C25.1065 86.7136 25.102 87.41 25.1608 88.1154L22.2485 89.6258Z" fill="white"/>
<path d="M63.3771 57.2335C68.0891 53.3761 75.0351 54.0725 78.8924 58.7845C82.7498 63.4966 82.0534 70.438 77.3414 74.2954C72.6293 78.1528 65.6833 77.4563 61.8305 72.7443C57.9731 68.0368 58.6696 61.0908 63.3771 57.2335ZM51.8593 78.1347L54.5725 81.4494L58.7555 79.3556C59.5197 80.0113 60.3292 80.5992 61.1748 81.1012L60.5236 85.7273L64.5302 87.2422L67.1078 83.3396C68.0846 83.516 69.0795 83.62 70.0743 83.6336L71.8244 87.9703L76.0526 87.2784L76.3284 82.6161C77.26 82.286 78.1689 81.8745 79.0462 81.3861L82.7317 84.2621L86.0464 81.5534L83.9527 77.3704C84.6084 76.6017 85.1917 75.7967 85.6982 74.9511L90.3243 75.5978L91.8392 71.5912L87.9367 69.0181C88.113 68.0368 88.2125 67.0464 88.2306 66.0516L92.5673 64.297L91.8754 60.0733L87.2131 59.793C86.883 58.8659 86.4715 57.957 85.9831 57.0797L88.8592 53.3897L86.1504 50.0795L81.9675 52.1687C81.1987 51.5175 80.3938 50.9296 79.5481 50.4232L80.1948 45.797L76.1882 44.2867L73.6151 48.1892C72.6338 48.0084 71.6435 47.9089 70.6486 47.8953L68.894 43.5586L64.6704 44.246L64.39 48.9128C63.463 49.2384 62.554 49.6544 61.6722 50.1428L57.9867 47.2667L54.672 49.9755L56.7657 54.1584C56.11 54.9227 55.5267 55.7321 55.0202 56.5778L50.3941 55.9311L48.8837 59.9332L52.7863 62.5108C52.6054 63.4921 52.5059 64.4824 52.4924 65.4773L48.1511 67.2273L48.843 71.4555L53.5098 71.7314C53.8354 72.6629 54.2515 73.5719 54.7398 74.4491L51.8593 78.1347Z" fill="#EBBD58"/>
<path d="M63.6348 57.5446C61.437 59.3399 60.0713 61.8858 59.791 64.7076C59.5106 67.5294 60.3427 70.2924 62.1379 72.4902C65.8506 77.0213 72.5569 77.6951 77.0881 73.9824C79.2858 72.1872 80.647 69.6412 80.9318 66.8194C81.2122 63.9931 80.3801 61.2301 78.5803 59.0369C76.7851 56.8391 74.2391 55.4734 71.4173 55.1931C68.591 54.9127 65.828 55.7448 63.6348 57.5446ZM70.3727 77.1841C67.058 77.1841 63.775 75.7551 61.5184 72.9966C59.5875 70.6361 58.6876 67.6651 58.9906 64.6262C59.2935 61.5919 60.7632 58.8515 63.1238 56.9205C65.4888 54.9896 68.4599 54.0942 71.4942 54.3927C74.5331 54.6956 77.2689 56.1653 79.2044 58.5259C81.1353 60.8909 82.0307 63.862 81.7323 66.9008C81.4248 69.9352 79.9596 72.671 77.5945 74.6065C75.4782 76.3385 72.9187 77.1841 70.3727 77.1841ZM66.9178 82.8955L67.1801 82.9408C68.1343 83.1216 69.111 83.2166 70.0788 83.2302L70.3456 83.2392L72.0776 87.5216L75.6681 86.9338L75.944 82.3257L76.1972 82.2398C77.0971 81.9188 77.9925 81.5118 78.8517 81.0324L79.0868 80.9058L82.7271 83.7502L85.5444 81.4439L83.4778 77.3107L83.6496 77.1072C84.2918 76.3611 84.8661 75.5652 85.3545 74.7422L85.4901 74.5161L90.062 75.1582L91.3508 71.753L87.4934 69.2026L87.5387 68.9403C87.715 67.9861 87.8145 67.0139 87.8281 66.0461L87.8326 65.7793L92.1195 64.0474L91.5317 60.4523L86.9236 60.1764L86.8332 59.9277C86.5167 59.0278 86.1097 58.1324 85.6303 57.2732L85.5037 57.0381L88.3481 53.3978L86.0418 50.5805L81.9086 52.6471L81.7051 52.4753C80.9545 51.8331 80.1586 51.2588 79.3401 50.7704L79.114 50.6303L79.7561 46.0584L76.3464 44.7741L73.8005 48.6315L73.5427 48.5817C72.5886 48.4054 71.6118 48.3104 70.644 48.2923L70.3772 48.2878L68.6453 44.0054L65.0502 44.5932L64.7743 49.2013L64.5256 49.2872C63.6257 49.6083 62.7303 50.0107 61.8711 50.4946L61.636 50.6212L57.9957 47.7768L55.1784 50.0831L57.245 54.2163L57.0732 54.4198C56.431 55.1659 55.8567 55.9618 55.3638 56.7849L55.2282 57.011L50.6563 56.3688L49.372 59.774L53.2294 62.3199L53.1796 62.5822C53.0033 63.5364 52.9083 64.5131 52.8902 65.4809L52.8857 65.7477L48.6033 67.4797L49.1866 71.0702L53.7992 71.3461L53.8851 71.5993C54.2062 72.4992 54.6086 73.3901 55.0925 74.2538L55.2191 74.4889L52.3747 78.1292L54.681 80.9465L58.8142 78.8799L59.0177 79.0517C59.7638 79.6939 60.5597 80.2682 61.3828 80.7566L61.6089 80.8922L60.9667 85.4686L64.3719 86.7529L66.9178 82.8955ZM71.5756 88.417L69.7984 84.0306C68.9618 84.0034 68.1252 83.9175 67.2977 83.7773L64.6884 87.7297L60.0849 85.9887L60.7406 81.3083C60.0352 80.8696 59.3523 80.3767 58.7011 79.8341L54.4639 81.9504L51.3482 78.1428L54.2604 74.412C53.858 73.6614 53.5098 72.8926 53.2203 72.1193L48.4993 71.8344L47.7034 66.9777L52.0943 65.2005C52.1215 64.3639 52.2074 63.5273 52.3476 62.6998L48.3907 60.0905L50.1317 55.487L54.8167 56.1427C55.2508 55.4373 55.7482 54.7544 56.2909 54.1032L54.17 49.866L57.9821 46.7503L61.7129 49.6625C62.459 49.2601 63.2278 48.9119 64.0056 48.6224L64.2905 43.9014L69.1472 43.1055L70.9199 47.4964C71.761 47.5236 72.5976 47.605 73.4251 47.7452L76.0299 43.7974L80.6379 45.5338L79.9822 50.2188C80.6831 50.6574 81.3705 51.1503 82.0217 51.693L86.2544 49.5721L89.3746 53.3842L86.4579 57.115C86.8649 57.8611 87.2131 58.6299 87.5025 59.4077L92.219 59.6881L93.0149 64.5493L88.6285 66.3265C88.6013 67.1631 88.5154 67.9997 88.3752 68.8272L92.3276 71.432L90.5866 76.04L85.9062 75.3843C85.4675 76.0852 84.9746 76.7726 84.432 77.4238L86.5483 81.6565L82.7407 84.7767L79.0099 81.8645C78.2638 82.267 77.4905 82.6152 76.7172 82.9046L76.4323 87.6211L71.5756 88.417Z" fill="#D7B8FF"/>
<path d="M40.3368 41.8982C40.1152 41.8982 39.9344 41.7173 39.9344 41.4957V39.4201C39.9344 39.1985 40.1152 39.0176 40.3368 39.0176C40.5584 39.0176 40.7393 39.1985 40.7393 39.4201V41.4957C40.7393 41.7173 40.5584 41.8982 40.3368 41.8982ZM40.3368 46.7323C40.1152 46.7323 39.9344 46.5515 39.9344 46.3299V44.2542C39.9344 44.0326 40.1152 43.8517 40.3368 43.8517C40.5584 43.8517 40.7393 44.0326 40.7393 44.2542V46.3299C40.7393 46.5515 40.5584 46.7323 40.3368 46.7323ZM38.9576 43.2774H36.8819C36.6604 43.2774 36.484 43.0966 36.484 42.875C36.484 42.6534 36.6604 42.4725 36.8819 42.4725H38.9576C39.1792 42.4725 39.3601 42.6534 39.3601 42.875C39.3601 43.0966 39.1792 43.2774 38.9576 43.2774ZM43.7917 43.2774H41.7161C41.4945 43.2774 41.3136 43.0966 41.3136 42.875C41.3136 42.6534 41.4945 42.4725 41.7161 42.4725H43.7917C44.0133 42.4725 44.1942 42.6534 44.1942 42.875C44.1942 43.0966 44.0133 43.2774 43.7917 43.2774ZM31.0213 49.2195C30.7047 49.2195 30.3882 49.3009 30.1078 49.4682C29.226 49.9747 28.9185 51.1052 29.4295 51.987C29.6737 52.4121 30.0716 52.7151 30.5465 52.8462C31.0213 52.9728 31.5187 52.9095 31.9483 52.6653C32.3734 52.4166 32.6809 52.0187 32.8075 51.5439C32.9341 51.069 32.8708 50.5716 32.6266 50.1465C32.3779 49.7169 31.98 49.4094 31.5051 49.2828C31.3469 49.2421 31.1841 49.2195 31.0213 49.2195ZM31.0303 53.7145C30.7997 53.7145 30.5691 53.6828 30.3384 53.6195C29.6556 53.4341 29.0858 53 28.7331 52.385C28.005 51.1233 28.4392 49.4999 29.7053 48.7718C30.3158 48.4191 31.0303 48.3241 31.7132 48.5095C32.396 48.6904 32.9658 49.1291 33.3185 49.7441C33.6712 50.3545 33.7662 51.069 33.5808 51.7519C33.3999 52.4347 32.9613 53.0045 32.3463 53.3572C31.9393 53.5924 31.4871 53.7145 31.0303 53.7145ZM61.4777 30.9411C61.3556 30.9411 61.238 30.8869 61.1566 30.7828C61.021 30.611 61.0571 30.3578 61.2335 30.2221C70.3636 23.1993 84.4048 17.4291 92.9832 15.5614C93.2003 15.5162 93.4128 15.6519 93.4581 15.8689C93.5078 16.086 93.3721 16.2985 93.1551 16.3483C84.6626 18.1933 70.7616 23.9092 61.7219 30.8597C61.6495 30.914 61.5636 30.9411 61.4777 30.9411ZM51.7325 34.1021C51.6421 34.1021 51.5471 34.0704 51.4703 34.0026C51.3029 33.8579 51.2849 33.6046 51.4296 33.4373C56.3541 27.8028 63.8609 22.9686 64.503 22.7878C64.7201 22.729 64.9416 22.8556 65.0004 23.0681C65.0592 23.2807 64.9371 23.5022 64.7246 23.561C64.0236 23.8097 56.7114 28.6122 52.0355 33.9664C51.9587 34.0569 51.8456 34.1021 51.7325 34.1021Z" fill="#461A84"/>
<path d="M64.6116 23.5804C64.4805 23.5804 64.3539 23.5171 64.277 23.3995C64.1549 23.2141 64.2046 22.9654 64.39 22.8433C73.1539 17.0369 82.8312 12.9579 93.1507 10.7104C94.2405 10.4753 95.3529 10.2537 96.4518 10.0593C96.6734 10.0231 96.8814 10.1678 96.9176 10.3848C96.9583 10.6019 96.8091 10.8144 96.592 10.8506C95.5022 11.0451 94.3988 11.2621 93.3225 11.4928C83.098 13.7176 73.5111 17.7604 64.8332 23.5125C64.7654 23.5578 64.6885 23.5804 64.6116 23.5804ZM102.457 8.19614L102.584 10.8597L105.225 9.11865L102.457 8.19614ZM102.218 11.9857C102.154 11.9857 102.091 11.9676 102.037 11.9404C101.905 11.8726 101.824 11.7415 101.815 11.6013L101.63 7.64444C101.625 7.5133 101.684 7.38668 101.788 7.30528C101.896 7.22841 102.032 7.2058 102.159 7.2465L106.265 8.6167C106.41 8.66644 106.514 8.79306 106.536 8.94681C106.554 9.10056 106.486 9.24979 106.36 9.33119L102.435 11.9178C102.371 11.9585 102.294 11.9857 102.218 11.9857Z" fill="#461A84"/>
<path d="M116.507 44.1367C116.602 44.607 116.498 45.1134 116.177 45.5204C115.599 46.2575 114.531 46.3841 113.794 45.8053C111.388 43.9151 109.837 41.5229 109.308 38.891C108.779 36.2637 109.286 33.4554 110.778 30.7829C111.235 29.9644 112.266 29.6704 113.089 30.1272C113.907 30.5839 114.201 31.6195 113.744 32.438C112.637 34.4232 112.266 36.3677 112.637 38.2217C113.012 40.0803 114.106 41.7309 115.892 43.1327C116.223 43.395 116.431 43.7523 116.507 44.1367ZM107.147 28.6258C107.224 29.0057 107.169 29.4127 106.966 29.7789C105.103 33.1705 104.483 36.5169 105.13 39.7321C105.772 42.9473 107.635 45.7963 110.669 48.2066C111.402 48.7899 111.524 49.8571 110.941 50.5942C110.357 51.3268 109.29 51.4489 108.553 50.8656C104.931 47.985 102.593 44.3673 101.797 40.4014C101.001 36.4355 101.756 32.1983 103.99 28.1419C104.442 27.3189 105.478 27.0205 106.301 27.4727C106.753 27.7214 107.052 28.151 107.147 28.6258Z" fill="white"/>
<path d="M100.363 25.9724C100.44 26.3568 100.386 26.7728 100.182 27.1391C97.4781 31.9506 96.5737 36.7034 97.4872 41.2662C98.4052 45.8335 101.078 49.8672 105.428 53.2633C106.165 53.8377 106.296 54.9049 105.722 55.6465C105.143 56.3836 104.076 56.5193 103.334 55.9404C100.915 54.0502 98.9117 51.9293 97.3787 49.6321C95.7869 47.2399 94.7016 44.6532 94.1589 41.9355C93.6117 39.2222 93.6117 36.414 94.1589 33.5922C94.6835 30.8834 95.7145 28.1521 97.2204 25.475C97.6771 24.6565 98.7127 24.3671 99.5312 24.8238C99.9789 25.0815 100.273 25.5066 100.363 25.9724Z" fill="white"/>
<path d="M127.152 203.695L126.623 68.9451C126.619 67.7875 126.488 66.6298 126.243 65.4993L113.509 7.57555C112.691 3.85838 115.549 0.349217 119.356 0.39896L188.454 1.28529C192.687 1.33956 196.282 4.39199 197.028 8.55685L199.162 20.45L150.798 204.767L127.152 203.695Z" fill="#D7B8FF"/>
<path d="M153.127 196.283C153.096 196.283 153.06 196.283 153.028 196.274C152.811 196.215 152.684 195.998 152.739 195.781L198.751 20.4363L196.635 8.62452C195.925 4.65862 192.479 1.73734 188.45 1.6876L119.347 0.801263C117.661 0.774131 116.078 1.52028 115.011 2.83169C113.943 4.13858 113.536 5.8389 113.898 7.48947L126.632 65.4132C126.89 66.5708 127.017 67.7602 127.021 68.945L127.238 123.011C127.238 123.233 127.057 123.414 126.836 123.414C126.614 123.414 126.433 123.233 126.433 123.011L126.221 68.9495C126.216 67.8189 126.09 66.6884 125.85 65.585L113.116 7.66131C112.7 5.77106 113.161 3.82203 114.387 2.32069C115.612 0.823873 117.425 -0.0308058 119.361 0.000849307L188.459 0.882661C192.877 0.941448 196.644 4.13858 197.422 8.48433L199.556 20.382C199.565 20.4363 199.561 20.4951 199.547 20.5538L153.516 195.985C153.471 196.166 153.308 196.283 153.127 196.283Z" fill="#461A84"/>
<path d="M197.996 8.54706C197.421 5.82927 195.025 3.88477 192.248 3.88477H124.068C122.612 3.88477 121.527 5.22783 121.825 6.6523L134.736 67.8817C135.043 69.3333 135.197 70.8166 135.197 72.2998V202.008H211.151V75.2844C211.151 71.6441 210.766 68.0128 210.002 64.4494L197.996 8.54706Z" fill="#EBBD58"/>
<path d="M200.203 61.3068H142.586C141.035 61.3068 139.683 60.226 139.344 58.7066L128.952 12.3188C128.491 10.2431 130.069 8.27148 132.199 8.27148H189.811C191.366 8.27148 192.714 9.34775 193.053 10.8672L203.449 57.255C203.911 59.3352 202.332 61.3068 200.203 61.3068Z" fill="white"/>
<path d="M217.427 209.606H119.447C118.755 209.606 118.19 209.045 118.19 208.349V202.8C118.19 202.108 118.755 201.543 119.447 201.543H217.427C218.119 201.543 218.68 202.108 218.68 202.8V208.349C218.68 209.045 218.119 209.606 217.427 209.606Z" fill="#D7B8FF"/>
<path d="M211.151 201.548C210.929 201.548 210.748 201.371 210.748 201.15V75.2859C210.748 71.6817 210.364 68.064 209.609 64.5368L197.602 8.63444C197.069 6.11563 194.817 4.2887 192.248 4.2887H124.068C123.499 4.2887 122.96 4.54193 122.599 4.98962C122.237 5.43279 122.101 6.01162 122.219 6.57236L135.129 67.8018C135.442 69.276 135.6 70.7909 135.6 72.3013V129.054C135.6 129.275 135.419 129.456 135.197 129.456C134.976 129.456 134.795 129.275 134.795 129.054V72.3013C134.795 70.8497 134.646 69.389 134.343 67.9646L121.432 6.73516C121.265 5.93927 121.464 5.11624 121.975 4.48315C122.49 3.85005 123.254 3.48828 124.068 3.48828H192.248C195.197 3.48828 197.779 5.5775 198.389 8.46713L210.391 64.3695C211.16 67.9465 211.549 71.6229 211.549 75.2859V201.15C211.549 201.371 211.372 201.548 211.151 201.548Z" fill="#461A84"/>
<path d="M206.76 74.3768H185.917C185.673 74.3768 185.474 74.1778 185.474 73.9291V71.9575C185.474 71.7087 185.673 71.5098 185.917 71.5098H206.76C207.008 71.5098 207.207 71.7087 207.207 71.9575V73.9291C207.207 74.1778 207.008 74.3768 206.76 74.3768Z" fill="#D7B8FF"/>
<path d="M206.615 72.5039L208.125 83.8047L206.665 82.95L205.177 83.8635L203.404 83.0178L201.641 83.9629L199.959 83.0992L198.331 84.0217L196.852 83.2032L195.156 84.1076L193.442 83.253L192.036 84.18L190.272 83.357L188.513 84.2614L186.682 72.7345L206.615 72.5039Z" fill="white"/>
<path d="M189.901 81.7289C189.684 81.7289 189.508 81.557 189.499 81.3354C189.494 81.1184 189.671 80.933 189.892 80.9239L205.245 80.5034C205.457 80.4943 205.652 80.6707 205.656 80.8923C205.661 81.1184 205.489 81.2993 205.268 81.3038L189.91 81.7289H189.901ZM189.725 80.3632C189.508 80.3632 189.332 80.1913 189.323 79.9743C189.318 79.7527 189.49 79.5673 189.711 79.5628L205.069 79.1422C205.286 79.1332 205.471 79.3095 205.48 79.5311C205.485 79.7527 205.308 79.9381 205.087 79.9426L189.739 80.3632H189.725ZM169.412 48.6632H148.452L142.722 18.9258H163.678L169.412 48.6632Z" fill="white"/>
<path d="M190.064 17.5026H174.54L173.771 14.1562H189.295L190.064 17.5026ZM193.017 27.7723H177.492L176.177 22.0428H191.701L193.017 27.7723ZM195.011 35.4147H179.482L178.166 29.6852H193.695L195.011 35.4147ZM196.499 42.9395H180.974L179.659 37.2055H195.183L196.499 42.9395ZM198.489 50.5819H182.964L181.648 44.8478H197.173L198.489 50.5819Z" fill="#EBBD58"/>
<path d="M105.234 165.303C95.457 176.152 95.0907 172.656 79.0146 186.118C64.6071 198.188 63.965 205.238 54.5092 206.938C47.9567 208.114 42.5392 205.758 33.0609 201.634C22.149 196.881 15.1624 193.842 13.765 187.755C11.4994 177.879 26.3546 170.504 23.8629 161.613C21.7601 154.093 10.4413 156.838 4.9243 147.545C-1.09916 137.411 3.41843 119.056 12.9013 112.033C18.5132 107.881 21.3305 111.051 29.6602 106.073C39.2652 100.329 38.7226 94.202 45.6278 92.0902C54.7173 89.3136 58.4751 99.0542 67.2887 97.1188C79.0688 94.5321 78.6438 75.7246 90.9801 73.5133C97.7406 72.3014 104.583 73.9475 109.236 75.4985C113.907 77.0541 116.783 78.0626 118.343 81.011C120.288 84.6875 118.212 87.6359 120.102 94.1296C121.057 97.4172 122.015 98.1227 123.282 101.012C126.031 107.289 125.61 113.294 125.235 118.549C123.354 145.198 105.234 165.303 105.234 165.303Z" fill="#461A84"/>
<path d="M154.638 228.834L144.024 186.715L96.2935 189.844C96.2935 189.844 92.4769 204.613 87.4211 228.834H154.638Z" fill="white"/>
<path d="M87.8507 228.833C92.4768 206.656 96.0629 192.389 96.6146 190.223L143.717 187.135L154.226 228.833H155.054L144.413 186.614C144.368 186.429 144.187 186.298 143.997 186.312L96.2709 189.441C96.0945 189.454 95.9498 189.576 95.9046 189.744C95.8187 190.074 92.0292 204.861 87.0322 228.833H87.8507Z" fill="#461A84"/>
<path d="M112.953 122.646C112.953 122.646 130.187 122.28 142.65 132.739C155.113 143.195 174.956 164.439 178.298 182.035C181.644 199.631 158.152 196.773 146.783 185.494C135.414 174.221 112.953 122.646 112.953 122.646Z" fill="#D7B8FF"/>
<path d="M77.5764 131.888C77.5764 131.888 100.467 118.231 129.21 125.172L153.715 179.659C155.257 183.083 153.892 187.125 150.572 188.875C142.252 193.275 124.258 199.322 93.7294 193.542C88.7913 192.611 85.0108 188.604 84.3596 183.621L77.5764 131.888Z" fill="#D7B8FF"/>
<path d="M170.429 149.439C170.429 149.439 179.405 178.408 178.564 184.006C177.728 189.6 176.385 196.411 168.909 191.744C161.439 187.077 164.134 157.217 164.134 157.217L170.429 149.439Z" fill="white"/>
<path d="M164.523 157.371C164.347 159.447 162.176 187.068 169.122 191.405C171.397 192.825 173.224 193.232 174.558 192.617C176.85 191.558 177.601 187.755 178.171 183.948C178.912 178.991 171.636 154.785 170.266 150.28L164.523 157.371ZM173.206 193.706C171.921 193.706 170.429 193.168 168.697 192.087C161.104 187.344 163.623 158.411 163.732 157.181C163.741 157.1 163.772 157.027 163.822 156.964L170.117 149.186C170.207 149.073 170.357 149.019 170.501 149.046C170.651 149.073 170.768 149.182 170.809 149.322C171.18 150.507 179.803 178.444 178.962 184.065C178.361 188.09 177.547 192.124 174.897 193.345C174.377 193.584 173.816 193.706 173.206 193.706Z" fill="#461A84"/>
<path d="M157.188 169.328L155.501 168.681L167.888 133.178L180.635 130.854L182.322 131.5L157.188 169.328Z" fill="white"/>
<path d="M169.936 167.003L157.188 169.327L169.574 133.824L182.322 131.5L169.936 167.003ZM146.344 176.215C146.186 176.215 146.032 176.115 145.969 175.957L132.968 142.593C132.887 142.385 132.991 142.154 133.194 142.073C133.402 141.991 133.637 142.095 133.714 142.303L146.72 175.667C146.797 175.871 146.697 176.106 146.489 176.188C146.444 176.206 146.394 176.215 146.344 176.215Z" fill="#461A84"/>
<path d="M120.935 186.095C116.914 186.584 112.745 186.484 108.571 185.494C86.0555 180.171 92.8975 144.049 92.8975 144.049L77.5766 131.889C47.4864 165.076 67.3521 205.572 99.1335 210.474C110.208 212.179 119.926 209.895 128.111 205.834C119.139 199.137 119.501 191.065 120.935 186.095Z" fill="#D7B8FF"/>
<path d="M168.077 156.385L166.065 150.416L157.342 164.073L159.427 157.764C159.427 157.764 156.985 159.071 155.289 161.622C153.647 164.091 152.313 171.014 152.237 171.435C148.384 174.623 135.649 184.309 120.934 186.095C119.496 191.065 118.33 198.504 127.297 205.201C146.729 195.565 158.359 176.549 158.359 176.549C166.929 170.309 168.077 156.385 168.077 156.385Z" fill="white"/>
<path d="M121.246 186.461C119.759 191.757 119.211 198.549 127.338 204.735C146.308 195.225 157.903 176.531 158.016 176.341C158.047 176.296 158.079 176.255 158.124 176.228C166.11 170.408 167.557 157.57 167.67 156.43L165.957 151.338L157.681 164.29C157.573 164.457 157.351 164.52 157.17 164.434C156.989 164.348 156.899 164.14 156.962 163.946L158.689 158.718C157.853 159.32 156.605 160.369 155.624 161.843C154.014 164.267 152.684 171.213 152.63 171.507C152.612 171.597 152.562 171.679 152.49 171.742C148.89 174.727 136.038 184.567 121.246 186.461ZM127.297 205.604C127.211 205.604 127.125 205.576 127.057 205.527C118.194 198.906 118.927 191.603 120.55 185.987C120.595 185.828 120.726 185.715 120.885 185.697C135.423 183.934 148.139 174.288 151.87 171.213C152.105 169.992 153.362 163.797 154.959 161.4C156.686 158.791 159.137 157.466 159.237 157.411C159.381 157.335 159.562 157.353 159.684 157.457C159.811 157.565 159.861 157.737 159.811 157.891L158.73 161.156L165.73 150.199C165.812 150.068 165.961 149.995 166.119 150.018C166.269 150.036 166.4 150.14 166.449 150.285L168.457 156.254C168.475 156.308 168.48 156.362 168.475 156.417C168.43 156.991 167.223 170.53 158.658 176.829C157.862 178.096 146.199 196.274 127.473 205.563C127.415 205.59 127.356 205.604 127.297 205.604Z" fill="#461A84"/>
<path d="M115.91 186.891C105.605 186.891 97.5959 181.899 92.4362 177.345C85.9741 171.647 82.4739 165.384 82.4378 165.321C82.3292 165.126 82.4016 164.882 82.596 164.778C82.786 164.67 83.0302 164.738 83.1387 164.932C83.1749 164.995 86.6207 171.154 92.9878 176.762C98.8304 181.917 108.417 187.651 120.871 185.697C121.093 185.666 121.296 185.815 121.328 186.032C121.364 186.254 121.215 186.457 120.998 186.493C119.243 186.765 117.547 186.891 115.91 186.891Z" fill="#461A84"/>
<path d="M106.17 109.975L106.622 121.379L116.195 123.297C116.195 123.297 110.434 135.036 84.9612 128.452L94.0371 122.46L96.384 106.791L106.17 109.975Z" fill="white"/>
<path d="M85.9424 128.284C98.4008 131.35 105.831 129.844 109.896 128.008C113.292 126.47 114.947 124.467 115.553 123.576L106.541 121.776C106.36 121.736 106.229 121.582 106.22 121.397L105.776 110.268L96.7095 107.319L94.4304 122.518C94.4168 122.631 94.3535 122.731 94.2586 122.794L85.9424 128.284ZM98.9751 130.843C95.1494 130.843 90.4916 130.296 84.8616 128.84C84.7079 128.799 84.5903 128.673 84.5677 128.519C84.5405 128.361 84.6084 128.202 84.7395 128.116L93.6662 122.224L95.986 106.731C96.0041 106.614 96.0719 106.51 96.1714 106.451C96.2709 106.388 96.393 106.374 96.5061 106.41L106.292 109.594C106.455 109.644 106.563 109.793 106.568 109.96L107.011 121.048L116.277 122.902C116.399 122.925 116.503 123.007 116.557 123.115C116.611 123.228 116.611 123.359 116.557 123.472C116.494 123.594 114.997 126.561 110.298 128.704C107.834 129.83 104.171 130.843 98.9751 130.843Z" fill="#461A84"/>
<path d="M113.767 93.4324C111.203 86.6356 106.69 90.4207 103.8 91.7682C100.906 93.1113 98.3737 87.0879 95.0907 88.8017C91.8121 90.5111 95.7961 95.0242 96.4563 96.9868C97.1166 98.9448 93.3316 96.9868 91.984 97.8776C91.0931 98.47 90.9394 99.8447 92.1829 101.482C92.9608 102.508 94.1275 103.435 95.0907 103.815C96.8905 109.753 103.271 114.686 108.562 112.692C113.885 110.689 113.857 93.6721 113.767 93.4324Z" fill="white"/>
<path d="M93.0784 98.0325C92.7211 98.0325 92.4091 98.0822 92.2056 98.2134C91.9343 98.3942 91.7624 98.6656 91.7037 99.0047C91.5996 99.6288 91.8845 100.425 92.4995 101.243C93.2276 102.202 94.3265 103.088 95.2399 103.441C95.353 103.486 95.4389 103.581 95.4751 103.699C96.5016 107.09 99.1561 110.265 102.24 111.784C104.393 112.847 106.527 113.032 108.422 112.318C113.229 110.504 113.496 94.8399 113.378 93.5375C112.65 91.6337 111.75 90.5077 110.624 90.0871C108.951 89.4631 107.011 90.5167 105.297 91.4438C104.827 91.697 104.388 91.9367 103.968 92.1311C102.358 92.8773 100.915 91.7241 99.5179 90.6026C98.0979 89.4631 96.7549 88.3868 95.2761 89.1556C94.747 89.4314 94.426 89.7932 94.2903 90.2544C93.915 91.5387 94.9958 93.4244 95.864 94.9439C96.2936 95.69 96.6599 96.3367 96.8363 96.8567C96.9945 97.318 96.9629 97.6797 96.7458 97.942C96.3388 98.4349 95.4796 98.3128 94.4893 98.1727C94.0371 98.1048 93.5215 98.0325 93.0784 98.0325ZM106.052 113.548C104.7 113.548 103.294 113.2 101.887 112.508C98.618 110.893 95.9047 107.687 94.7651 104.115C93.7703 103.667 92.6216 102.731 91.8619 101.727C90.8942 100.447 90.8128 99.466 90.9168 98.8691C91.0118 98.3083 91.3057 97.8516 91.7624 97.5441C92.4724 97.0738 93.6029 97.2366 94.6023 97.3768C95.0862 97.4446 95.9861 97.5712 96.1308 97.431C96.1263 97.431 96.1579 97.3496 96.0765 97.1145C95.9273 96.6668 95.5565 96.0247 95.1676 95.3418C94.2225 93.6912 93.0467 91.6382 93.5215 90.0329C93.7205 89.3545 94.1863 88.8209 94.9098 88.4456C96.8498 87.4326 98.5366 88.7848 100.02 89.9786C101.336 91.0322 102.471 91.9412 103.628 91.4031C104.026 91.2177 104.456 90.987 104.917 90.7383C106.685 89.7796 108.892 88.5858 110.905 89.3365C112.27 89.8475 113.328 91.1408 114.142 93.2933C114.31 93.7319 114.215 104.174 111.737 109.654C110.918 111.472 109.896 112.621 108.702 113.068C107.857 113.39 106.966 113.548 106.052 113.548ZM106.491 211.447C104.031 211.447 101.557 211.253 99.0702 210.868C83.3875 208.453 70.2779 197.456 64.8604 182.166C58.8912 165.331 63.4224 146.903 77.2826 131.618C77.3098 131.587 77.3414 131.559 77.3731 131.541C77.4816 131.478 79.9778 130.008 84.2331 128.308C84.4411 128.231 84.6718 128.331 84.7577 128.534C84.8391 128.742 84.7396 128.973 84.5316 129.054C80.6109 130.623 78.2052 131.989 77.8343 132.202C64.2092 147.256 59.7595 165.367 65.6201 181.9C70.9381 196.908 83.8035 207.703 99.1923 210.077C109.046 211.596 118.714 210.05 127.93 205.478C128.129 205.378 128.369 205.46 128.468 205.659C128.568 205.858 128.487 206.097 128.288 206.197C121.247 209.688 113.943 211.447 106.491 211.447ZM160.842 151.371C160.729 151.371 160.616 151.326 160.539 151.231C155.077 144.768 148.465 138.139 142.392 133.047C138.426 129.719 129.685 125.821 129.083 125.554C128.188 125.337 127.257 125.138 126.316 124.948C126.307 124.948 126.298 124.944 126.289 124.944C122.192 123.827 118.542 123.37 116.204 123.184C115.983 123.166 115.82 122.972 115.838 122.755C115.856 122.533 116.051 122.366 116.268 122.384C118.637 122.574 122.332 123.035 126.488 124.166C127.446 124.356 128.396 124.564 129.305 124.781C129.328 124.785 129.355 124.794 129.373 124.803C129.753 124.971 138.734 128.928 142.908 132.432C149.012 137.556 155.664 144.217 161.15 150.711C161.294 150.882 161.272 151.136 161.105 151.276C161.028 151.339 160.937 151.371 160.842 151.371ZM167.793 195.005C162.823 195.005 156.903 193.191 151.635 189.845C151.445 189.723 151.391 189.474 151.509 189.289C151.631 189.103 151.879 189.049 152.065 189.162C159.553 193.928 168.711 195.525 173.839 192.961C174.038 192.861 174.277 192.943 174.377 193.142C174.476 193.34 174.395 193.58 174.196 193.68C172.41 194.571 170.212 195.005 167.793 195.005Z" fill="#461A84"/>
<path d="M182.413 116.536L170.985 116.301C169.579 116.269 168.281 117.065 167.666 118.331L164.537 124.77L160.973 117.96C160.367 116.793 159.169 116.056 157.857 116.029L147.348 115.812C145.358 115.771 143.78 114.121 143.821 112.131L144.3 89.8236C144.345 87.8338 145.991 86.2511 147.986 86.2918L183.046 87.0198C185.035 87.0605 186.618 88.7066 186.573 90.6963L186.094 113.004C186.053 114.998 184.402 116.576 182.413 116.536Z" fill="white"/>
<path d="M147.909 86.6949C146.172 86.6949 144.739 88.0878 144.703 89.8333L144.223 112.141C144.205 112.996 144.522 113.81 145.114 114.425C145.702 115.044 146.502 115.392 147.357 115.41L157.862 115.627C159.323 115.659 160.652 116.478 161.33 117.775L164.523 123.88L167.304 118.155C167.973 116.776 169.384 115.899 170.908 115.899H170.994L182.417 116.134C184.185 116.166 185.655 114.764 185.691 112.996L186.17 90.6925C186.189 89.8333 185.877 89.0193 185.284 88.4043C184.692 87.7848 183.891 87.4366 183.037 87.4185L147.977 86.6949H147.909ZM164.537 125.174C164.387 125.174 164.252 125.088 164.184 124.957L160.616 118.146C160.078 117.111 159.015 116.455 157.848 116.428L147.339 116.211C146.272 116.193 145.272 115.754 144.531 114.981C143.794 114.207 143.396 113.195 143.423 112.123L143.898 89.8152C143.947 87.6355 145.738 85.8945 147.909 85.8945H147.99L183.055 86.6181C184.122 86.6407 185.121 87.0793 185.863 87.8481C186.6 88.6214 186.998 89.6388 186.975 90.7061L186.496 113.014C186.446 115.225 184.606 116.993 182.404 116.939L170.976 116.699C169.733 116.681 168.57 117.382 168.028 118.508L164.898 124.947C164.835 125.083 164.695 125.169 164.541 125.174H164.537Z" fill="#461A84"/>
</svg>
