<svg width="50" height="51" viewBox="0 0 50 51" fill="none" xmlns="http://www.w3.org/2000/svg">
<path d="M46.8785 35.2082L41.028 32.391C38.5415 31.1891 36.5575 31.8823 35.0567 33.5611L31.3365 37.6946C30.6052 38.5086 29.3906 38.6866 28.4558 38.108C25.2826 36.1112 22.351 33.7583 19.7119 31.1065C17.0601 28.4674 14.7008 25.5294 12.7104 22.3625C12.1317 21.4277 12.3034 20.2131 13.1237 19.4818L17.2572 15.7617C18.9361 14.2609 19.6292 12.2704 18.4273 9.79035L15.6038 3.93987C14.0649 0.728465 11.9028 0.0162331 8.69772 1.86677C6.63733 3.15133 4.74865 4.69662 3.07617 6.47084C-3.17494 12.9255 0.818647 27.2146 12.208 38.6103C23.6037 49.9997 37.8865 53.9933 44.3411 47.7422C46.1154 46.0761 47.667 44.181 48.9516 42.1143C50.8021 38.9156 50.0835 36.7534 46.8785 35.2082Z" fill="#EBBD58"/>
</svg>
