<svg width="195" height="194" viewBox="0 0 195 194" fill="none" xmlns="http://www.w3.org/2000/svg">
<path d="M124.531 183.22C135.241 179.084 180.935 161.434 192.165 118.873C204.967 70.3405 166.677 13.2024 113.749 2.67374C58.8444 -8.24827 -3.17504 17.4235 1.69708 57.1987C3.91921 75.3438 28.6341 80.8324 27.4908 102.207C26.3751 123.062 0.100647 133.285 2.85415 158.105C3.02668 159.663 3.58106 164.332 5.92511 169.004C19.2395 195.52 79.536 200.6 124.531 183.22Z" fill="white"/>
<path d="M130.176 119.148L94.0653 119.376C93.833 119.376 93.7571 119.592 93.7571 119.802V150.523C93.7571 153.465 73.2403 161.107 73.0402 160.72L73.0149 163.971C73.0126 164.576 73.5463 165.112 74.2226 165.112H104.96C106.365 165.112 107.752 164.799 109.024 164.267L125.672 157.256C128.667 155.995 130.558 153.285 130.558 150.33V119.576C130.558 119.367 130.411 119.148 130.176 119.148Z" fill="#EBBD58"/>
<path d="M90.0994 117.586V148.313C90.0994 151.343 88.151 154.103 85.087 155.41L73.859 160.204C73.1252 160.517 73.3737 161.499 74.188 161.499H105.04C106.427 161.499 107.798 161.225 109.052 160.696L121.494 155.458C124.579 154.161 126.548 151.389 126.548 148.346V117.586C126.548 117.459 126.436 117.355 126.293 117.355H90.3548C90.2121 117.355 90.0994 117.459 90.0994 117.586Z" fill="white"/>
<path d="M22.8345 134.998L171.312 135.322L173.889 135.329L178.682 135.338C180.044 135.338 181.162 134.276 181.337 132.921L193.752 35.9017C194.053 33.5415 192.333 31.3125 189.956 31.3125L36.1235 31.4528L22.8345 134.998Z" fill="black"/>
<path d="M184.189 31.2852C186.867 31.2852 189.043 33.9835 188.7 36.6449L176.198 132.923C176.023 134.276 174.873 135.29 173.511 135.29L172.338 135.334L20.7755 135.29C19.1422 135.29 17.8793 133.85 18.0887 132.226L30.844 33.9927C31.0189 32.6378 32.0609 31.2852 33.4204 31.2852H184.189Z" fill="#EBBD58"/>
<path d="M20.7761 135.641C19.8974 135.641 19.0624 135.264 18.4827 134.604C17.8984 133.942 17.6293 133.06 17.742 132.184L30.4997 33.948C30.6952 32.4252 31.9972 31.2773 33.5315 31.2773H141.986C142.177 31.2773 142.335 31.4338 142.335 31.6247C142.335 31.8179 142.177 31.9743 141.986 31.9743H33.5315C32.3491 31.9743 31.3439 32.8623 31.1921 34.0378L18.4367 132.274C18.3493 132.95 18.5586 133.629 19.0072 134.142C19.4534 134.65 20.0998 134.942 20.7761 134.942L173.56 134.664C174.74 134.664 175.863 133.654 176.019 132.455L188.354 36.6026C188.505 35.4295 188.144 34.2494 187.364 33.3638C186.589 32.4827 185.471 31.9743 184.298 31.9743H158.909C158.716 31.9743 158.56 31.8179 158.56 31.6247C158.56 31.4338 158.716 31.2773 158.909 31.2773H184.298C185.671 31.2773 186.983 31.8685 187.891 32.9037C188.802 33.9388 189.225 35.3213 189.048 36.6923L176.714 132.545C176.514 134.1 175.099 135.365 173.562 135.365L20.7761 135.641Z" fill="black"/>
<path d="M146.814 23.0121C146.986 21.671 145.946 20.4863 144.598 20.4863H25.0106C24.3251 20.4863 23.7477 20.9947 23.6603 21.6756L14.0172 93.9247C13.9183 94.6608 14.4911 95.3187 15.2364 95.3187H135.977C136.662 95.3187 137.24 94.808 137.327 94.1271L146.814 23.0121Z" fill="white"/>
<path d="M144.599 20.4863C145.947 20.4863 146.987 21.671 146.814 23.0121L145.908 28.9815L22.5061 28.9608L23.6609 21.6756C23.7483 20.9947 24.3257 20.4863 25.0112 20.4863H144.599Z" fill="#4D448B"/>
<path d="M75.2294 25.1128C75.3375 24.2639 74.6773 23.5117 73.8193 23.5117H29.6114C28.896 23.5117 28.291 24.0431 28.2013 24.7539C28.0932 25.6027 28.7557 26.3549 29.6114 26.3549H73.8193C74.5347 26.3549 75.1397 25.8236 75.2294 25.1128ZM129.506 25.1128C129.612 24.2639 128.952 23.5117 128.094 23.5117H124.059C123.343 23.5117 122.738 24.0431 122.649 24.7539C122.538 25.6027 123.201 26.3549 124.059 26.3549H128.094C128.811 26.3549 129.414 25.8236 129.506 25.1128Z" fill="white"/>
<path d="M25.0111 20.836C24.5027 20.836 24.0726 21.2179 24.0059 21.7217L14.3651 93.9707C14.3306 94.2215 14.4065 94.4745 14.5745 94.6654C14.7424 94.8587 14.9839 94.9668 15.237 94.9668H135.977C136.486 94.9668 136.916 94.5872 136.982 94.0834V94.0811L146.467 22.9638C146.538 22.4256 146.372 21.8827 146.011 21.4755C145.655 21.0684 145.139 20.836 144.601 20.836H25.0111ZM135.977 95.6661H15.237C14.7815 95.6661 14.349 95.4705 14.0477 95.1278C13.7486 94.785 13.6106 94.3273 13.6704 93.8764L23.3135 21.6296C23.4216 20.7785 24.1508 20.1367 25.0111 20.1367H144.601C145.342 20.1367 146.048 20.4565 146.538 21.0131C147.03 21.5721 147.258 22.3151 147.161 23.0558L137.675 94.1732V94.1709C137.564 95.0243 136.835 95.6661 135.977 95.6661Z" fill="black"/>
<path d="M71.609 67.5025C66.7576 63.2308 66.2653 55.8122 70.514 50.9332C74.7605 46.0518 82.1377 45.5596 86.9891 49.8313C91.8428 54.103 92.3328 61.5216 88.0863 66.4029C83.8376 71.282 76.4627 71.7742 71.609 67.5025Z" fill="#4D448B"/>
<path d="M75.8804 62.4124V55.0674C75.8804 54.6925 76.2737 54.4486 76.6096 54.6143L83.9546 58.2396C84.3295 58.4259 84.3318 58.9573 83.9592 59.1459L76.6142 62.8633C76.2783 63.0335 75.8804 62.7897 75.8804 62.4124ZM180.251 51.9551H165.686C165.039 51.9551 164.496 52.4704 164.416 53.1121L163.279 61.6257C163.187 62.3871 163.783 63.0473 164.547 63.0473H164.818C165.193 63.0473 165.483 63.374 165.439 63.7466L165.168 66.047C165.154 66.1712 165.306 66.2448 165.393 66.1551L168.333 63.229C168.451 63.1117 168.609 63.0473 168.777 63.0473H179.115C179.761 63.0473 180.307 62.5919 180.385 61.9501L181.521 53.4066C181.613 52.6452 181.02 51.9551 180.251 51.9551Z" fill="white"/>
<path d="M165.686 52.3048C165.228 52.3048 164.823 52.6797 164.766 53.1559L163.625 61.6718C163.595 61.9317 163.673 62.187 163.85 62.3849C164.025 62.5827 164.281 62.6977 164.55 62.6977H164.819C165.097 62.6977 165.362 62.8173 165.548 63.0244C165.732 63.2314 165.819 63.5097 165.79 63.7881L165.589 65.465L168.09 62.9806C168.274 62.7966 168.518 62.6977 168.775 62.6977H179.115C179.594 62.6977 179.983 62.3642 180.038 61.9064L181.177 53.3606C181.206 53.0938 181.124 52.8246 180.94 52.6199C180.76 52.4175 180.516 52.3048 180.252 52.3048H165.686ZM165.3 66.5439C165.228 66.5439 165.157 66.5278 165.09 66.4956C164.906 66.4059 164.8 66.208 164.823 66.0056L165.093 63.7053C165.102 63.627 165.076 63.5488 165.024 63.489C164.971 63.4292 164.897 63.397 164.819 63.397H164.55C164.08 63.397 163.636 63.1969 163.326 62.8495C163.02 62.5045 162.877 62.0421 162.933 61.5843L164.071 53.0662C164.17 52.2496 164.881 51.6055 165.686 51.6055H180.252C180.714 51.6055 181.156 51.8056 181.464 52.1552C181.779 52.5095 181.926 52.9811 181.869 53.448L180.733 61.9938C180.634 62.8058 179.953 63.397 179.115 63.397H168.775C168.702 63.397 168.635 63.4269 168.582 63.4775L165.642 66.4036C165.548 66.4956 165.426 66.5439 165.3 66.5439Z" fill="black"/>
<path d="M174.966 55.3396C174.648 54.9969 174.216 54.8083 173.744 54.8106C173.392 54.8106 173.07 54.9233 172.785 55.1441C172.645 55.2545 172.513 55.3903 172.398 55.549C172.283 55.3903 172.155 55.2545 172.012 55.1441C171.727 54.9256 171.405 54.8152 171.053 54.8175C170.581 54.8175 170.149 55.0061 169.834 55.3511C169.521 55.6893 169.351 56.154 169.353 56.6554C169.353 57.1707 169.546 57.6423 169.96 58.1415C170.33 58.5854 170.862 59.0363 171.478 59.5608C171.688 59.7379 171.927 59.9403 172.173 60.1566C172.237 60.2118 172.323 60.244 172.41 60.244C172.497 60.244 172.58 60.2118 172.645 60.1543C172.891 59.938 173.128 59.7333 173.339 59.5562C173.951 59.0317 174.48 58.5762 174.851 58.13C175.262 57.6308 175.453 57.1569 175.451 56.6416C175.451 56.1402 175.276 55.6755 174.966 55.3396Z" fill="#4D448B"/>
<path d="M194.007 70.5662C194.132 69.607 193.386 68.7559 192.42 68.7559H106.707C106.217 68.7559 105.803 69.1216 105.741 69.6093L98.8308 121.392C98.7595 121.919 99.169 122.391 99.7027 122.391H186.239C186.731 122.391 187.145 122.025 187.21 121.537L194.007 70.5662Z" fill="white"/>
<path d="M192.42 68.7559C193.386 68.7559 194.132 69.607 194.008 70.5662L193.359 74.8449L104.913 74.8311L105.741 69.6093C105.803 69.1216 106.217 68.7559 106.707 68.7559H192.42Z" fill="#4D448B"/>
<path d="M142.701 72.0697C142.779 71.4602 142.305 70.9219 141.691 70.9219H110.006C109.493 70.9219 109.061 71.3037 108.996 71.8121C108.918 72.4194 109.392 72.96 110.006 72.96H141.691C142.204 72.96 142.636 72.5781 142.701 72.0697Z" fill="white"/>
<path d="M99.6203 115.279L98.8313 121.357C98.7577 121.884 99.1694 122.279 99.7031 122.279H186.24C186.732 122.279 187.146 121.989 187.208 121.502L188.018 115.279H99.6203Z" fill="#4D448B"/>
<path d="M188.74 72.0674C188.816 71.4602 188.342 70.9219 187.728 70.9219H184.834C184.324 70.9219 183.891 71.3014 183.825 71.8121C183.746 72.4194 184.22 72.96 184.834 72.96H187.728C188.241 72.96 188.674 72.5781 188.74 72.0674ZM183.898 118.868C183.974 118.258 183.5 117.72 182.886 117.72H111.819C111.306 117.72 110.874 118.1 110.809 118.61C110.731 119.22 111.205 119.758 111.819 119.758H182.886C183.399 119.758 183.831 119.376 183.898 118.868Z" fill="white"/>
<path d="M183.898 118.869C183.974 118.259 183.5 117.721 182.886 117.721H146.386L146.469 119.759H182.886C183.399 119.759 183.831 119.377 183.898 118.869Z" fill="#EBBD58"/>
<path d="M148.231 118.822C148.231 119.841 147.405 120.667 146.386 120.667C145.365 120.667 144.539 119.841 144.539 118.822C144.539 117.803 145.365 116.975 146.386 116.975C147.405 116.975 148.231 117.803 148.231 118.822Z" fill="white"/>
<path d="M106.707 69.1036C106.396 69.1036 106.13 69.3405 106.088 69.6534L99.1756 121.434C99.1572 121.59 99.2009 121.74 99.3044 121.855C99.4057 121.972 99.5483 122.037 99.7047 122.037H186.241C186.554 122.037 186.821 121.802 186.862 121.492V121.487L193.662 70.5183C193.706 70.1618 193.595 69.8006 193.358 69.5292C193.122 69.26 192.779 69.1036 192.42 69.1036H106.707ZM186.241 122.738H99.7047C99.3482 122.738 99.01 122.584 98.7777 122.317C98.543 122.051 98.4349 121.694 98.4832 121.342L105.393 69.5614C105.479 68.9012 106.044 68.4043 106.707 68.4043H192.42C192.981 68.4043 193.513 68.6458 193.883 69.0668C194.256 69.4878 194.428 70.049 194.354 70.608L187.557 121.581C187.472 122.241 186.904 122.738 186.241 122.738Z" fill="black"/>
<path d="M145.604 104.885C144.78 104.885 143.955 104.768 143.145 104.529C142.959 104.474 142.855 104.28 142.91 104.094C142.963 103.908 143.159 103.802 143.343 103.857C146.338 104.747 149.597 103.795 151.652 101.435C154.566 98.0856 154.228 92.9812 150.899 90.0506C149.289 88.6336 147.226 87.9296 145.091 88.0723C142.952 88.2149 140.996 89.1856 139.586 90.8074C138.668 91.8609 138.038 93.1376 137.762 94.5017C137.723 94.6903 137.537 94.8123 137.35 94.7755C137.159 94.7364 137.038 94.55 137.077 94.3614C137.378 92.88 138.063 91.4929 139.057 90.3473C140.594 88.5852 142.719 87.5271 145.043 87.373C147.364 87.2188 149.611 87.9849 151.362 89.5238C154.978 92.7075 155.344 98.2582 152.181 101.895C150.501 103.823 148.081 104.885 145.604 104.885Z" fill="black"/>
<path d="M143.17 98.8036V93.5404C143.17 93.2713 143.451 93.0964 143.693 93.2161L148.956 95.8131C149.225 95.9489 149.225 96.3284 148.958 96.4618L143.695 99.1279C143.453 99.2499 143.17 99.075 143.17 98.8036Z" fill="#4D448B"/>
<path d="M91.0763 89.8385C91.1936 88.923 90.4828 88.1133 89.5626 88.1133H7.86838C7.39911 88.1133 7.00575 88.4606 6.94594 88.9276L0.357769 138.281C0.29106 138.785 0.682117 139.234 1.19279 139.234H83.6738C84.1407 139.234 84.5341 138.886 84.5962 138.422L91.0763 89.8385Z" fill="white"/>
<path d="M89.5626 88.1133C90.4828 88.1133 91.1936 88.923 91.0763 89.8385L90.4575 93.917L6.15693 93.9032L6.94594 88.9276C7.00575 88.4606 7.39911 88.1133 7.86838 88.1133H89.5626ZM1.11228 132.554L0.35777 138.277C0.291061 138.781 0.682118 139.089 1.19049 139.089H83.6738C84.1407 139.089 84.5341 138.879 84.5962 138.415L85.3668 132.554H1.11228ZM82.1188 104.331H62.2001C61.7492 104.331 61.3835 103.963 61.3835 103.512C61.3835 103.063 61.7492 102.697 62.2001 102.697H82.1188C82.5696 102.697 82.9354 103.063 82.9354 103.512C82.9354 103.963 82.5696 104.331 82.1188 104.331ZM80.5223 110.868H61.135C60.6842 110.868 60.3184 110.502 60.3184 110.052C60.3184 109.601 60.6842 109.235 61.135 109.235H80.5223C80.9732 109.235 81.3389 109.601 81.3389 110.052C81.3389 110.502 80.9732 110.868 80.5223 110.868ZM79.9909 116.799H75.5789C75.1303 116.799 74.7646 116.433 74.7646 115.982C74.7646 115.531 75.1303 115.165 75.5789 115.165H79.9909C80.4418 115.165 80.8076 115.531 80.8076 115.982C80.8076 116.433 80.4418 116.799 79.9909 116.799ZM79.2295 123.032H55.2071C54.7539 123.032 54.3881 122.667 54.3881 122.216C54.3881 121.765 54.7539 121.399 55.2071 121.399H79.2295C79.6804 121.399 80.0461 121.765 80.0461 122.216C80.0461 122.667 79.6804 123.032 79.2295 123.032Z" fill="#4D448B"/>
<path d="M81.4382 135.88C81.5118 135.298 81.0586 134.785 80.4743 134.785H4.76787C4.2779 134.785 3.86614 135.149 3.80403 135.634C3.73042 136.214 4.18129 136.729 4.76787 136.729H80.4743C80.962 136.729 81.3761 136.363 81.4382 135.88Z" fill="white"/>
<path d="M81.4385 135.88C81.5121 135.298 81.059 134.785 80.4747 134.785H65.3752L65.4558 136.729H80.4747C80.9623 136.729 81.3764 136.363 81.4385 135.88Z" fill="#EBBD58"/>
<path d="M67.0545 135.833C67.0545 136.76 66.3046 137.51 65.3798 137.51C64.4528 137.51 63.7029 136.76 63.7029 135.833C63.7029 134.908 64.4528 134.158 65.3798 134.158C66.3046 134.158 67.0545 134.908 67.0545 135.833Z" fill="white"/>
<path d="M7.86853 88.463C7.57639 88.463 7.33025 88.6815 7.29345 88.9714L0.705274 138.327C0.686871 138.47 0.728277 138.608 0.822591 138.716C0.916905 138.824 1.04802 138.884 1.19295 138.884H83.6739C83.9638 138.884 84.2122 138.666 84.249 138.376V138.373L90.7291 89.7926C90.7728 89.4567 90.6693 89.1186 90.4438 88.8632C90.223 88.6102 89.901 88.463 89.5628 88.463H7.86853ZM83.6739 139.583H1.19295C0.847894 139.583 0.521246 139.436 0.295813 139.179C0.07038 138.919 -0.0354359 138.576 0.0105709 138.235L6.59874 88.8793C6.67926 88.2444 7.22674 87.7637 7.86853 87.7637H89.5628C90.1011 87.7637 90.6141 87.996 90.9706 88.4009C91.3272 88.8057 91.4928 89.3463 91.4238 89.8823L84.9437 138.465C84.8609 139.103 84.3134 139.583 83.6739 139.583Z" fill="black"/>
<path d="M59.5834 38.0664H32.9247C31.7424 38.0664 30.744 39.0095 30.6014 40.185L29.4075 50.0351C29.2396 51.4291 30.3276 52.6368 31.7309 52.6368H32.4946C33.0374 52.6368 33.4561 53.1083 33.394 53.6466L32.7591 59.2318C32.7315 59.4711 33.0259 59.6091 33.1893 59.432L38.9493 53.2993C39.3473 52.876 39.9017 52.6368 40.4813 52.6368H58.3895C59.5719 52.6368 60.5702 51.8017 60.7128 50.6263L61.9067 40.721C62.0746 39.327 60.9866 38.0664 59.5834 38.0664Z" fill="white"/>
<path d="M32.9236 38.4181C31.939 38.4181 31.0718 39.214 30.9476 40.2284L29.7537 50.0785C29.6847 50.6467 29.8549 51.1941 30.2322 51.6197C30.6094 52.0453 31.1546 52.2891 31.7297 52.2891H32.4934C32.8523 52.2891 33.1927 52.4409 33.432 52.7101C33.6689 52.9769 33.7816 53.3335 33.7402 53.69L33.1398 58.9762L38.6928 53.062C39.1552 52.572 39.8062 52.2891 40.4802 52.2891H58.3884C59.4143 52.2891 60.2447 51.5737 60.3643 50.5868L61.5582 40.6816C61.6272 40.1088 61.4455 39.5268 61.0568 39.0898C60.6795 38.6619 60.1412 38.4181 59.5822 38.4181H32.9236ZM33.0087 59.8641C32.9236 59.8641 32.8362 59.8457 32.7534 59.8066C32.5141 59.6962 32.3807 59.457 32.4106 59.1947L33.0455 53.6095C33.0639 53.4485 33.0156 53.2943 32.9075 53.1747C32.8017 53.0551 32.6545 52.9884 32.4934 52.9884H31.7297C30.9545 52.9884 30.2184 52.6595 29.71 52.0844C29.2039 51.5139 28.967 50.7525 29.059 49.9957L30.2529 40.1433C30.4185 38.7838 31.5917 37.7188 32.9236 37.7188H59.5822C60.3413 37.7188 61.0706 38.05 61.5812 38.6251C62.1011 39.214 62.3472 39.9915 62.2529 40.7667L61.0591 50.6697C60.8957 52.0131 59.7732 52.9884 58.3884 52.9884H40.4802C39.9994 52.9884 39.5325 53.1908 39.2035 53.5405L33.4435 59.6732C33.3262 59.7997 33.1697 59.8641 33.0087 59.8641Z" fill="black"/>
<path d="M40.1795 45.4618C40.1795 46.6925 39.1811 47.6931 37.9481 47.6931C36.7151 47.6931 35.7168 46.6925 35.7168 45.4618C35.7168 44.2288 36.7151 43.2305 37.9481 43.2305C39.1811 43.2305 40.1795 44.2288 40.1795 45.4618ZM47.8879 45.4618C47.8879 46.6925 46.8895 47.6931 45.6566 47.6931C44.4236 47.6931 43.4252 46.6925 43.4252 45.4618C43.4252 44.2288 44.4236 43.2305 45.6566 43.2305C46.8895 43.2305 47.8879 44.2288 47.8879 45.4618ZM55.5986 45.4618C55.5986 46.6925 54.598 47.6931 53.3673 47.6931C52.1343 47.6931 51.136 46.6925 51.136 45.4618C51.136 44.2288 52.1343 43.2305 53.3673 43.2305C54.598 43.2305 55.5986 44.2288 55.5986 45.4618ZM121.917 54.1019C121.34 54.1732 120.811 53.7637 120.74 53.1863C120.668 52.6067 121.078 52.0799 121.655 52.0086C122.235 51.9373 122.762 52.3467 122.835 52.9264C122.907 53.5038 122.497 54.0306 121.917 54.1019Z" fill="#EBBD58"/>
<path d="M112.479 47.3327C112.423 47.3327 112.368 47.335 112.313 47.3419C111.963 47.3856 111.655 47.5628 111.439 47.8388C111.225 48.1172 111.128 48.4599 111.172 48.8073C111.216 49.1569 111.391 49.4675 111.669 49.6814C111.945 49.8976 112.288 49.9919 112.637 49.9482C112.985 49.9068 113.295 49.7297 113.512 49.4514C113.725 49.1753 113.82 48.8326 113.778 48.4829C113.735 48.1356 113.558 47.825 113.282 47.6111C113.049 47.4293 112.769 47.3327 112.479 47.3327ZM112.472 50.659C112.026 50.659 111.595 50.5118 111.239 50.2335C110.813 49.9022 110.544 49.4283 110.477 48.8947C110.411 48.361 110.556 47.8342 110.887 47.4109C111.218 46.9854 111.692 46.7139 112.226 46.6495C112.759 46.5805 113.286 46.7277 113.712 47.0567C114.137 47.3879 114.406 47.8641 114.473 48.3978C114.54 48.9315 114.395 49.4582 114.064 49.8815C113.732 50.3071 113.256 50.5762 112.723 50.6429C112.64 50.6544 112.555 50.659 112.472 50.659ZM104.938 39.7025C104.846 39.7025 104.756 39.668 104.687 39.599C104.552 39.461 104.554 39.2401 104.692 39.1021L105.61 38.1981C105.748 38.0624 105.969 38.0647 106.104 38.2027C106.24 38.3384 106.238 38.5615 106.102 38.6973L105.182 39.6013C105.115 39.6703 105.026 39.7025 104.938 39.7025ZM101.72 42.8747C101.628 42.8747 101.538 42.8379 101.469 42.7689C101.334 42.6308 101.336 42.41 101.474 42.2743L102.394 41.368C102.53 41.2322 102.753 41.2345 102.889 41.3726C103.024 41.5106 103.022 41.7314 102.884 41.8671L101.966 42.7735C101.897 42.8402 101.81 42.8747 101.72 42.8747ZM102.652 39.691C102.56 39.691 102.47 39.6565 102.401 39.5875L101.49 38.6743C101.354 38.5385 101.354 38.3154 101.492 38.1797C101.63 38.0417 101.851 38.0417 101.985 38.1797L102.898 39.0929C103.033 39.2309 103.033 39.4518 102.898 39.5875C102.829 39.6565 102.741 39.691 102.652 39.691ZM105.84 42.8908C105.748 42.8908 105.658 42.8563 105.589 42.7896L104.678 41.874C104.543 41.7383 104.543 41.5152 104.681 41.3795C104.816 41.2437 105.039 41.2437 105.175 41.3818L106.086 42.295C106.222 42.4307 106.222 42.6539 106.086 42.7896C106.017 42.8586 105.927 42.8908 105.84 42.8908Z" fill="black"/>
<path d="M163.006 93.7453C162.967 93.7453 162.928 93.7384 162.888 93.7246C162.01 93.4118 161.119 93.1311 160.243 92.8896C160.057 92.839 159.946 92.6457 159.999 92.4594C160.05 92.2731 160.241 92.165 160.429 92.2156C161.32 92.4594 162.228 92.7447 163.125 93.0644C163.305 93.1311 163.401 93.3289 163.335 93.5107C163.286 93.6556 163.151 93.7453 163.006 93.7453ZM168.136 95.9835C168.083 95.9835 168.027 95.9697 167.974 95.9444C167.149 95.5166 166.307 95.114 165.469 94.7482C165.292 94.67 165.212 94.463 165.288 94.2859C165.366 94.1111 165.573 94.0282 165.75 94.1065C166.601 94.4791 167.457 94.8863 168.297 95.321C168.469 95.4107 168.536 95.6224 168.446 95.7926C168.384 95.9145 168.262 95.9835 168.136 95.9835ZM172.939 98.8544C172.87 98.8544 172.803 98.836 172.743 98.7945C171.975 98.2724 171.188 97.7686 170.401 97.2947C170.236 97.1981 170.181 96.9819 170.279 96.8163C170.381 96.6506 170.597 96.5954 170.76 96.6943C171.558 97.1728 172.359 97.6858 173.136 98.2149C173.295 98.3253 173.337 98.5438 173.226 98.7025C173.159 98.8014 173.051 98.8544 172.939 98.8544ZM177.371 102.275C177.291 102.275 177.208 102.247 177.141 102.19C176.447 101.585 175.724 100.994 174.991 100.428C174.839 100.308 174.811 100.09 174.928 99.9355C175.046 99.7837 175.267 99.7538 175.418 99.8711C176.161 100.446 176.895 101.049 177.599 101.661C177.746 101.787 177.762 102.008 177.636 102.155C177.567 102.234 177.468 102.275 177.371 102.275ZM181.362 106.202C181.266 106.202 181.172 106.163 181.103 106.084C180.495 105.406 179.849 104.732 179.182 104.074C179.046 103.94 179.044 103.717 179.177 103.579C179.315 103.444 179.536 103.441 179.674 103.575C180.35 104.242 181.008 104.93 181.625 105.617C181.751 105.762 181.74 105.983 181.597 106.112C181.53 106.172 181.448 106.202 181.362 106.202ZM184.772 110.639C184.657 110.639 184.544 110.581 184.477 110.478C183.996 109.73 183.458 108.969 182.878 108.217C182.759 108.063 182.786 107.844 182.94 107.727C183.095 107.609 183.313 107.635 183.433 107.789C184.024 108.557 184.574 109.335 185.066 110.101C185.17 110.262 185.124 110.48 184.96 110.584C184.903 110.623 184.836 110.639 184.772 110.639ZM192.112 128.23C191.951 128.23 191.808 128.117 191.771 127.954C191.569 127.054 191.341 126.146 191.093 125.258C191.042 125.069 191.153 124.878 191.337 124.825C191.523 124.775 191.716 124.883 191.769 125.069C192.02 125.968 192.248 126.889 192.455 127.802C192.496 127.99 192.376 128.177 192.19 128.22C192.163 128.225 192.137 128.23 192.112 128.23ZM193.046 133.748C192.869 133.748 192.719 133.617 192.699 133.438C192.593 132.524 192.462 131.597 192.305 130.684C192.275 130.493 192.404 130.314 192.593 130.282C192.784 130.249 192.965 130.378 192.995 130.567C193.154 131.494 193.287 132.432 193.393 133.357C193.416 133.55 193.278 133.723 193.087 133.746C193.073 133.748 193.06 133.748 193.046 133.748ZM193.389 139.336C193.198 139.336 193.041 139.179 193.039 138.988C193.034 138.068 193.002 137.132 192.945 136.21C192.933 136.014 193.08 135.848 193.271 135.837C193.467 135.825 193.632 135.973 193.644 136.166C193.701 137.102 193.734 138.05 193.741 138.984C193.743 139.177 193.586 139.333 193.393 139.336H193.389ZM193.117 144.926C193.103 144.926 193.092 144.926 193.078 144.923C192.885 144.903 192.747 144.73 192.768 144.539C192.864 143.624 192.938 142.692 192.981 141.767C192.993 141.574 193.147 141.422 193.35 141.434C193.543 141.443 193.69 141.608 193.681 141.799C193.635 142.74 193.561 143.686 193.462 144.613C193.444 144.792 193.292 144.926 193.117 144.926ZM162.254 150.09C162.076 150.09 161.922 149.954 161.906 149.775C161.888 149.581 162.03 149.411 162.221 149.393C163.217 149.301 164.179 149.296 165.083 149.381C165.276 149.4 165.417 149.57 165.398 149.763C165.38 149.956 165.207 150.099 165.016 150.078C164.156 149.998 163.238 150 162.288 150.09H162.254ZM192.186 150.444C192.16 150.444 192.133 150.442 192.105 150.435C191.916 150.391 191.801 150.203 191.843 150.016C192.052 149.121 192.236 148.206 192.388 147.293C192.42 147.099 192.602 146.973 192.793 147.003C192.984 147.037 193.113 147.217 193.08 147.408C192.924 148.335 192.738 149.266 192.526 150.175C192.487 150.336 192.344 150.444 192.186 150.444ZM156.832 151.401C156.696 151.401 156.567 151.323 156.512 151.189C156.434 151.012 156.516 150.808 156.694 150.729C157.352 150.444 158.067 150.2 158.815 150.007C159.017 149.954 159.217 149.903 159.415 149.857C159.604 149.814 159.79 149.931 159.836 150.12C159.877 150.308 159.762 150.495 159.574 150.541C159.383 150.584 159.187 150.633 158.992 150.683C158.276 150.87 157.598 151.102 156.972 151.373C156.926 151.392 156.88 151.401 156.832 151.401ZM170.238 151.978C170.167 151.978 170.091 151.955 170.029 151.907C169.322 151.38 168.524 150.957 167.659 150.649C167.478 150.584 167.383 150.384 167.448 150.203C167.512 150.021 167.712 149.924 167.894 149.989C168.823 150.32 169.684 150.778 170.447 151.348C170.604 151.461 170.634 151.682 170.519 151.836C170.452 151.928 170.346 151.978 170.238 151.978ZM152.489 154.819C152.417 154.819 152.348 154.796 152.286 154.755C152.13 154.642 152.091 154.424 152.201 154.267C152.755 153.487 153.429 152.786 154.207 152.183C154.361 152.064 154.582 152.091 154.699 152.245C154.817 152.397 154.789 152.618 154.637 152.735C153.913 153.296 153.285 153.947 152.774 154.67C152.705 154.766 152.597 154.819 152.489 154.819ZM190.562 155.799C190.52 155.799 190.476 155.792 190.437 155.776C190.256 155.707 190.166 155.507 190.233 155.325C190.557 154.47 190.858 153.586 191.127 152.698C191.183 152.512 191.38 152.409 191.564 152.464C191.748 152.521 191.854 152.717 191.797 152.901C191.523 153.805 191.219 154.704 190.888 155.574C190.838 155.714 190.702 155.799 190.562 155.799ZM173.491 156.436C173.348 156.436 173.215 156.349 173.162 156.206C172.842 155.339 172.421 154.536 171.906 153.821C171.795 153.665 171.83 153.446 171.986 153.333C172.145 153.221 172.361 153.255 172.476 153.412C173.026 154.178 173.479 155.036 173.82 155.967C173.886 156.147 173.792 156.349 173.613 156.416C173.571 156.43 173.532 156.436 173.491 156.436ZM150.724 160.055C150.715 160.055 150.708 160.055 150.701 160.053C150.508 160.041 150.361 159.875 150.372 159.682C150.432 158.693 150.612 157.738 150.904 156.851C150.966 156.666 151.164 156.568 151.345 156.627C151.529 156.687 151.628 156.887 151.568 157.069C151.295 157.902 151.129 158.794 151.072 159.724C151.06 159.91 150.906 160.055 150.724 160.055ZM188.206 160.874C188.146 160.874 188.089 160.86 188.033 160.83C187.866 160.736 187.806 160.522 187.898 160.354C188.344 159.558 188.77 158.725 189.158 157.883C189.241 157.709 189.448 157.633 189.623 157.713C189.8 157.794 189.876 158.003 189.796 158.178C189.395 159.036 188.965 159.882 188.51 160.694C188.445 160.809 188.328 160.874 188.206 160.874ZM174.132 161.95C174.119 161.95 174.105 161.95 174.093 161.948C173.9 161.925 173.762 161.753 173.785 161.559C173.836 161.12 173.861 160.667 173.861 160.218C173.861 159.76 173.833 159.298 173.781 158.845C173.76 158.654 173.898 158.481 174.089 158.458C174.287 158.438 174.457 158.576 174.478 158.767C174.533 159.245 174.56 159.735 174.56 160.218C174.56 160.694 174.533 161.173 174.48 161.64C174.461 161.819 174.307 161.95 174.132 161.95ZM185.094 165.523C185.018 165.523 184.939 165.497 184.877 165.447C184.726 165.327 184.7 165.106 184.82 164.955C185.388 164.239 185.938 163.487 186.453 162.716C186.561 162.555 186.777 162.514 186.938 162.62C187.1 162.728 187.143 162.946 187.035 163.105C186.511 163.892 185.949 164.66 185.367 165.389C185.298 165.477 185.197 165.523 185.094 165.523ZM151.545 165.557C151.401 165.557 151.265 165.468 151.214 165.323C150.894 164.403 150.66 163.469 150.517 162.548C150.487 162.358 150.616 162.18 150.809 162.151C150.998 162.123 151.18 162.252 151.21 162.443C151.345 163.321 151.568 164.214 151.877 165.093C151.941 165.277 151.842 165.474 151.66 165.539C151.621 165.553 151.585 165.557 151.545 165.557ZM172.076 167.078C172.005 167.078 171.931 167.057 171.869 167.011C171.713 166.898 171.678 166.678 171.791 166.523C171.966 166.287 172.133 166.047 172.299 165.808C172.63 165.33 172.916 164.787 173.148 164.186C173.219 164.007 173.422 163.919 173.601 163.988C173.783 164.06 173.87 164.262 173.801 164.442C173.548 165.09 173.238 165.684 172.877 166.204C172.706 166.452 172.534 166.694 172.359 166.935C172.29 167.027 172.184 167.078 172.076 167.078ZM181.245 169.578C181.149 169.578 181.052 169.537 180.983 169.459C180.854 169.314 180.87 169.093 181.015 168.964C181.701 168.361 182.37 167.713 183.005 167.043C183.138 166.903 183.359 166.898 183.499 167.032C183.642 167.165 183.647 167.386 183.513 167.526C182.865 168.212 182.179 168.872 181.475 169.491C181.411 169.548 181.328 169.578 181.245 169.578ZM154.214 170.455C154.11 170.455 154.005 170.409 153.938 170.319C153.356 169.569 152.831 168.766 152.376 167.931C152.282 167.761 152.346 167.549 152.514 167.457C152.684 167.363 152.898 167.427 152.99 167.595C153.427 168.398 153.931 169.171 154.49 169.891C154.61 170.043 154.58 170.264 154.428 170.381C154.363 170.432 154.287 170.455 154.214 170.455ZM168.439 171.331C168.349 171.331 168.26 171.297 168.191 171.228C168.055 171.092 168.055 170.869 168.191 170.733C168.844 170.082 169.477 169.397 170.075 168.697C170.199 168.552 170.42 168.534 170.569 168.658C170.716 168.785 170.733 169.006 170.606 169.153C169.996 169.866 169.352 170.563 168.688 171.228C168.619 171.297 168.529 171.331 168.439 171.331ZM176.732 172.875C176.615 172.875 176.497 172.815 176.433 172.704C176.332 172.539 176.385 172.325 176.552 172.226C177.341 171.754 178.117 171.239 178.857 170.699C179.014 170.584 179.232 170.618 179.345 170.774C179.46 170.931 179.428 171.149 179.271 171.262C178.512 171.819 177.719 172.343 176.911 172.826C176.856 172.859 176.794 172.875 176.732 172.875ZM158.304 174.241C158.237 174.241 158.173 174.223 158.115 174.186C157.326 173.675 156.567 173.084 155.861 172.428C155.718 172.297 155.711 172.074 155.842 171.934C155.974 171.791 156.197 171.784 156.337 171.915C157.013 172.543 157.738 173.112 158.495 173.597C158.658 173.703 158.704 173.919 158.598 174.08C158.532 174.186 158.419 174.241 158.304 174.241ZM171.694 175.299C171.552 175.299 171.42 175.212 171.367 175.072C171.298 174.89 171.39 174.69 171.572 174.621C172.437 174.296 173.293 173.931 174.116 173.535C174.289 173.452 174.498 173.526 174.583 173.701C174.668 173.873 174.595 174.082 174.42 174.167C173.578 174.57 172.702 174.945 171.816 175.276C171.777 175.292 171.736 175.299 171.694 175.299ZM163.468 176.302C163.447 176.302 163.427 176.302 163.406 176.298C162.474 176.13 161.547 175.863 160.655 175.504C160.473 175.433 160.386 175.23 160.459 175.049C160.533 174.869 160.735 174.782 160.915 174.855C161.764 175.196 162.645 175.451 163.53 175.607C163.721 175.642 163.848 175.824 163.813 176.015C163.783 176.183 163.636 176.302 163.468 176.302ZM166.254 176.505C166.065 176.505 165.911 176.355 165.904 176.166C165.9 175.971 166.049 175.812 166.245 175.805C167.137 175.775 168.046 175.656 168.948 175.449C169.136 175.405 169.325 175.52 169.366 175.711C169.412 175.897 169.295 176.086 169.106 176.13C168.161 176.35 167.204 176.475 166.268 176.505H166.254ZM155.532 179.863C155.394 179.863 155.265 179.783 155.208 179.649C155.134 179.47 155.217 179.265 155.394 179.189C156.192 178.851 156.983 178.49 157.743 178.115C157.915 178.03 158.124 178.101 158.212 178.274C158.297 178.448 158.226 178.658 158.053 178.743C157.283 179.122 156.477 179.488 155.668 179.836C155.624 179.854 155.576 179.863 155.532 179.863ZM150.264 181.77C150.115 181.77 149.977 181.673 149.931 181.522C149.873 181.338 149.979 181.142 150.163 181.085C151.058 180.813 151.948 180.516 152.804 180.206C152.985 180.141 153.188 180.236 153.252 180.417C153.317 180.599 153.225 180.799 153.043 180.864C152.176 181.179 151.276 181.478 150.368 181.756C150.333 181.765 150.299 181.77 150.264 181.77ZM144.835 183.16C144.674 183.16 144.527 183.044 144.495 182.881C144.454 182.693 144.575 182.506 144.764 182.467C145.682 182.274 146.597 182.062 147.478 181.837C147.667 181.788 147.858 181.901 147.904 182.088C147.952 182.276 147.84 182.467 147.653 182.515C146.761 182.741 145.838 182.957 144.909 183.15C144.884 183.157 144.861 183.16 144.835 183.16ZM139.312 184.1C139.14 184.1 138.99 183.972 138.965 183.794C138.94 183.603 139.075 183.429 139.266 183.401C140.196 183.279 141.125 183.139 142.024 182.985C142.215 182.955 142.397 183.081 142.429 183.272C142.461 183.463 142.333 183.643 142.142 183.677C141.233 183.831 140.297 183.972 139.361 184.096C139.342 184.098 139.328 184.1 139.312 184.1ZM133.736 184.657C133.555 184.657 133.4 184.517 133.387 184.33C133.375 184.137 133.52 183.972 133.713 183.958C134.649 183.893 135.586 183.815 136.494 183.723C136.685 183.705 136.858 183.845 136.876 184.038C136.897 184.229 136.757 184.402 136.563 184.42C135.648 184.512 134.705 184.59 133.759 184.657H133.736ZM128.14 184.887C127.949 184.887 127.792 184.735 127.788 184.544C127.785 184.351 127.939 184.19 128.133 184.188C129.073 184.174 130.012 184.149 130.925 184.112C131.123 184.1 131.282 184.252 131.289 184.445C131.296 184.639 131.146 184.802 130.953 184.811C130.035 184.848 129.09 184.873 128.144 184.887H128.14ZM105.283 183.27C105.267 183.27 105.251 183.268 105.233 183.265C104.319 183.134 103.386 182.992 102.461 182.847C102.268 182.817 102.139 182.637 102.169 182.444C102.199 182.255 102.378 182.124 102.569 182.154C103.494 182.301 104.423 182.442 105.332 182.573C105.525 182.601 105.656 182.778 105.631 182.969C105.603 183.143 105.454 183.27 105.283 183.27ZM110.839 183.978C110.825 183.978 110.813 183.978 110.8 183.976C109.882 183.875 108.945 183.762 108.012 183.643C107.821 183.62 107.687 183.442 107.71 183.252C107.735 183.061 107.913 182.923 108.101 182.95C109.031 183.067 109.965 183.18 110.875 183.281C111.069 183.302 111.209 183.477 111.186 183.668C111.168 183.847 111.013 183.978 110.839 183.978ZM115.172 184.406C115.163 184.406 115.154 184.406 115.143 184.404C114.625 184.36 114.107 184.314 113.59 184.266C113.399 184.248 113.256 184.075 113.275 183.884C113.293 183.691 113.468 183.548 113.657 183.569C114.172 183.617 114.687 183.663 115.2 183.707C115.396 183.723 115.536 183.891 115.522 184.084C115.506 184.266 115.354 184.406 115.172 184.406ZM53.8086 153.621C53.689 153.621 53.5717 153.559 53.5073 153.448C52.5918 151.909 52.1685 150.985 52.1501 150.946C52.0696 150.768 52.1478 150.561 52.3249 150.483C52.4997 150.403 52.7068 150.481 52.7873 150.656C52.7919 150.665 53.2151 151.587 54.1077 153.092C54.2089 153.257 54.1537 153.474 53.9881 153.573C53.9306 153.605 53.8684 153.621 53.8086 153.621ZM56.9417 158.268C56.8359 158.268 56.7301 158.219 56.6634 158.127C56.0929 157.37 55.5408 156.597 55.0232 155.831C54.9151 155.673 54.9565 155.454 55.1175 155.346C55.2763 155.238 55.4948 155.279 55.6029 155.44C56.1136 156.195 56.6588 156.959 57.2223 157.706C57.3374 157.86 57.3075 158.079 57.1533 158.196C57.0889 158.242 57.0153 158.268 56.9417 158.268ZM60.5233 162.574C60.4267 162.574 60.3324 162.537 60.2634 162.461C59.6308 161.766 59.0074 161.053 58.4116 160.338C58.2897 160.188 58.3081 159.967 58.4576 159.843C58.6071 159.721 58.828 159.742 58.9499 159.889C59.5388 160.598 60.1553 161.304 60.781 161.989C60.9121 162.132 60.9006 162.353 60.758 162.484C60.6913 162.544 60.6061 162.574 60.5233 162.574ZM64.4845 166.535C64.3994 166.535 64.3143 166.505 64.2476 166.443C63.5575 165.813 62.872 165.159 62.2118 164.497C62.0738 164.361 62.0738 164.14 62.2095 164.002C62.3475 163.867 62.5683 163.867 62.7063 164.002C63.3596 164.656 64.0359 165.302 64.7191 165.925C64.8618 166.056 64.8733 166.277 64.7421 166.42C64.6731 166.496 64.5788 166.535 64.4845 166.535ZM68.7838 170.121C68.7102 170.121 68.6366 170.098 68.5722 170.048C67.8292 169.482 67.0862 168.893 66.3708 168.295C66.2213 168.17 66.2006 167.95 66.3248 167.8C66.449 167.653 66.6698 167.632 66.8194 167.756C67.5279 168.348 68.2594 168.932 68.9978 169.491C69.1496 169.608 69.1795 169.829 69.0645 169.983C68.9955 170.073 68.8897 170.121 68.7838 170.121ZM73.3891 173.307C73.3247 173.307 73.2603 173.289 73.2028 173.252C72.4115 172.755 71.6202 172.233 70.8519 171.702C70.6931 171.591 70.654 171.375 70.7644 171.216C70.8726 171.055 71.0911 171.016 71.2521 171.126C72.0112 171.653 72.7933 172.168 73.5755 172.658C73.7388 172.762 73.7871 172.978 73.6859 173.142C73.6192 173.247 73.5041 173.307 73.3891 173.307ZM78.2543 176.072C78.2014 176.072 78.1462 176.058 78.0956 176.033C77.2629 175.605 76.4302 175.157 75.6182 174.697C75.4502 174.6 75.3927 174.386 75.487 174.22C75.5837 174.05 75.7953 173.993 75.9655 174.087C76.766 174.542 77.5895 174.989 78.4154 175.41C78.5879 175.497 78.6546 175.709 78.5672 175.881C78.5051 176.001 78.3832 176.072 78.2543 176.072ZM83.3427 178.405C83.299 178.405 83.2553 178.396 83.2116 178.379C82.3443 178.025 81.4771 177.65 80.6283 177.261C80.4535 177.181 80.3753 176.972 80.4558 176.797C80.5363 176.62 80.7456 176.544 80.9204 176.624C81.7601 177.008 82.6181 177.381 83.4761 177.731C83.6532 177.804 83.7407 178.007 83.667 178.186C83.6118 178.322 83.4807 178.405 83.3427 178.405ZM87.2924 179.872C87.2556 179.872 87.2165 179.865 87.182 179.854C86.7288 179.7 86.2802 179.546 85.8386 179.387C85.6568 179.32 85.5625 179.12 85.6269 178.938C85.6936 178.757 85.8938 178.662 86.0755 178.727C86.5149 178.883 86.9565 179.04 87.4051 179.189C87.5868 179.251 87.6857 179.449 87.6236 179.633C87.5753 179.78 87.4396 179.872 87.2924 179.872Z" fill="#EBBD58"/>
<path d="M132.95 10.5074C126.884 10.5074 121.147 13.2517 115.118 20.4035L140.093 20.4357C142.467 20.4357 144.466 22.1333 144.836 24.4751C145.278 27.2539 145.287 30.7366 144.804 32.5792C144.132 35.1464 143.483 36.9636 142.947 38.2219C142.269 39.8114 142.786 41.6563 144.18 42.6777L145.273 43.4805C146.842 44.6261 149.03 44.3799 150.295 42.91C151.944 40.9961 154.083 38.123 155.487 34.7668C159.004 26.3591 156.322 13.093 144.634 10.7743C142.142 10.2797 134.248 10.5074 132.95 10.5074Z" fill="#4D448B"/>
<path d="M115.876 20.0549L140.092 20.0848C142.643 20.0848 144.782 21.9067 145.18 24.4186C145.645 27.3378 145.627 30.8067 145.141 32.6677C144.555 34.9013 143.927 36.8175 143.269 38.3564C142.652 39.801 143.11 41.4619 144.384 42.3935L145.482 43.1963C146.892 44.2292 148.891 44.0037 150.029 42.681C151.596 40.8615 153.761 37.9884 155.164 34.6322C157.282 29.5645 157.013 23.2087 154.471 18.4424C152.383 14.5203 148.958 11.9876 144.566 11.1158C142.517 10.7109 136.591 10.8029 134.061 10.842C133.55 10.8512 133.161 10.8558 132.952 10.8558C126.773 10.8558 121.333 13.7842 115.876 20.0549ZM147.469 44.542C146.63 44.542 145.785 44.2867 145.065 43.7599L143.97 42.9594C142.434 41.8322 141.882 39.8263 142.625 38.0827C143.266 36.5736 143.888 34.692 144.465 32.4882C144.923 30.74 144.932 27.3194 144.49 24.5291C144.145 22.3598 142.296 20.7864 140.092 20.7841L115.117 20.7519C114.979 20.7519 114.855 20.6737 114.8 20.5495C114.742 20.4253 114.761 20.2803 114.85 20.1768C120.613 13.3402 126.366 10.1565 132.952 10.1565C133.161 10.1565 133.543 10.1496 134.051 10.1427C136.819 10.099 142.581 10.0093 144.702 10.4303C149.305 11.3435 152.898 13.9981 155.09 18.1134C157.724 23.0591 158.007 29.6473 155.808 34.9013C154.37 38.3426 152.16 41.2778 150.561 43.1365C149.765 44.0613 148.622 44.542 147.469 44.542Z" fill="black"/>
<path d="M130.75 19.9796C131.385 18.5695 133.069 17.9737 134.479 18.604C135.572 19.0894 136.989 19.7864 137.398 20.2948C137.89 20.9044 138.686 22.8067 138.024 24.2606C137.426 25.5648 135.76 25.9076 134.626 25.0312C134.03 24.5711 133.414 23.8051 133.034 22.5215C132.823 21.8107 132.34 21.1965 131.659 20.8998C131.475 20.8192 131.275 20.7594 131.061 20.7341C130.773 20.6996 130.594 20.4144 130.686 20.1429C130.704 20.0946 130.725 20.0394 130.75 19.9796Z" fill="white"/>
<path d="M133.306 18.7051C132.365 18.7051 131.472 19.2319 131.07 20.1244L131.067 20.1267C131.047 20.1727 131.031 20.2164 131.017 20.2555C131.003 20.2946 131.014 20.3222 131.026 20.3406C131.035 20.3567 131.058 20.382 131.1 20.3866C131.332 20.4142 131.569 20.481 131.797 20.5799C132.544 20.9019 133.117 21.5759 133.368 22.4247C133.676 23.4553 134.17 24.2397 134.84 24.755C135.316 25.123 135.921 25.2542 136.498 25.1115C137.034 24.9781 137.476 24.6147 137.702 24.1155C138.302 22.8043 137.543 21.033 137.126 20.5155C136.993 20.3521 136.455 19.8668 134.336 18.9236C134.003 18.7741 133.651 18.7051 133.306 18.7051ZM136.034 25.8684C135.454 25.8684 134.886 25.6751 134.41 25.3094C133.623 24.6998 133.048 23.7957 132.696 22.6226C132.505 21.9739 132.075 21.4632 131.52 21.2217C131.353 21.1481 131.182 21.1021 131.017 21.0813C130.775 21.0537 130.561 20.9203 130.432 20.7156C130.304 20.5109 130.276 20.2601 130.352 20.0301C130.373 19.9726 130.398 19.9082 130.43 19.8369C131.139 18.2657 133.018 17.571 134.621 18.2841C136.282 19.0225 137.306 19.6275 137.672 20.0761C138.258 20.8076 139.061 22.8273 138.341 24.4076C138.024 25.1023 137.412 25.6061 136.666 25.7901C136.457 25.8431 136.243 25.8684 136.034 25.8684Z" fill="black"/>
<path d="M141.307 46.3622C141.123 46.6658 140.911 47.0362 140.776 47.701L139.609 53.1298C139.552 53.4012 139.759 53.6566 140.037 53.6566C140.598 53.6566 141.093 53.2885 141.254 52.7479L141.838 50.7834C143.421 50.7236 142.59 54.5192 142.586 54.8182C142.577 55.2622 142.505 55.8879 142.802 56.2468L142.878 56.3411C143.186 56.7114 143.777 56.6171 143.952 56.1708L145.604 51.8232C145.818 51.2688 145.836 50.6569 145.65 50.0864L144.688 47.1512C144.472 46.4887 144.656 45.7641 145.162 45.2879L148.776 42.2814C150.083 41.0668 147.626 38.8148 147.626 38.8148C146.814 38.2466 145.682 38.4674 145.148 39.2449L141.307 46.3622Z" fill="white"/>
<path d="M141.875 50.4327C142.199 50.4327 142.482 50.557 142.691 50.7916C143.335 51.5139 143.193 53.1034 142.972 54.5642C142.951 54.693 142.937 54.7873 142.935 54.8287C142.933 54.8885 142.93 54.9552 142.928 55.0242C142.917 55.3785 142.903 55.8201 143.071 56.0272L143.147 56.1169C143.241 56.2319 143.363 56.225 143.411 56.2158C143.459 56.2089 143.572 56.1767 143.625 56.0433L145.274 51.7002C145.461 51.2195 145.477 50.6881 145.316 50.1981L144.357 47.2606C144.099 46.4739 144.322 45.5997 144.922 45.0338L148.552 42.0135C148.72 41.8571 148.81 41.6523 148.808 41.4085C148.808 40.5735 147.812 39.4693 147.407 39.0898C147.096 38.8804 146.724 38.8022 146.346 38.8689C145.978 38.9379 145.652 39.1404 145.447 39.4302L141.615 46.5291C141.612 46.5337 141.61 46.5383 141.605 46.5452C141.417 46.8557 141.237 47.1824 141.118 47.7713L139.951 53.2047C139.945 53.2369 139.958 53.2622 139.97 53.276C139.981 53.2921 140.002 53.3082 140.037 53.3082C140.446 53.3082 140.8 53.0436 140.918 52.6503L141.504 50.6835C141.546 50.5409 141.677 50.4396 141.826 50.435C141.842 50.435 141.858 50.4327 141.875 50.4327ZM143.361 56.922C143.073 56.922 142.799 56.7955 142.608 56.5678L142.532 56.4734C142.194 56.0594 142.213 55.4728 142.229 55.0012C142.231 54.9368 142.233 54.8724 142.233 54.8126C142.236 54.7505 142.25 54.6654 142.279 54.4606C142.544 52.7147 142.507 51.6381 142.169 51.2586C142.141 51.2287 142.114 51.2057 142.084 51.1873L141.589 52.8504C141.382 53.5405 140.759 54.0075 140.037 54.0075C139.797 54.0075 139.574 53.9017 139.425 53.7176C139.273 53.5313 139.215 53.2898 139.268 53.0574L140.432 47.6286C140.573 46.9385 140.793 46.5383 141.003 46.1886L144.84 39.0806C144.847 39.0691 144.851 39.0599 144.86 39.0484C145.169 38.5975 145.666 38.2824 146.222 38.1811C146.79 38.0799 147.361 38.2018 147.826 38.5285C147.839 38.5377 147.851 38.5469 147.862 38.5584C147.927 38.6205 149.505 40.0766 149.509 41.4039C149.509 41.8502 149.344 42.232 149.015 42.5403L145.387 45.5583C144.998 45.9241 144.849 46.513 145.021 47.0443L145.983 49.9796C146.192 50.6237 146.174 51.323 145.928 51.9533L144.278 56.2963C144.15 56.623 143.871 56.8507 143.524 56.9082C143.471 56.9151 143.416 56.922 143.361 56.922Z" fill="black"/>
<path d="M135.945 15.5649C135.77 15.5235 135.611 15.4407 135.473 15.3257L133.354 13.5705C133.127 13.4302 132.839 13.4486 132.634 13.6188L131.121 14.9047C130.925 15.068 130.642 15.0795 130.433 14.9346L128.517 13.6211L127.583 13.9225C127.511 13.9455 127.431 13.9064 127.403 13.8351L126.791 12.1121C126.529 11.5117 125.63 10.5318 125.867 10.3086C125.867 10.3086 128.609 4.22194 131.629 5.64815C132.066 5.85288 132.404 6.22554 132.6 6.6672L133.002 7.59424C133.412 8.52358 135.482 10.6514 137.658 11.2035C137.95 11.2771 138.551 11.5623 139.135 11.5991C139.572 11.6267 139.864 12.0523 139.747 12.4733C139.607 12.9701 139.496 13.4348 139.015 14.2307C138.383 15.2797 137.161 15.8456 135.97 15.5718C135.961 15.5695 135.951 15.5672 135.945 15.5649Z" fill="white"/>
<path d="M133.028 13.1248C133.205 13.1248 133.382 13.1731 133.538 13.272C133.552 13.2789 133.566 13.2904 133.58 13.2996L135.696 15.0548C135.797 15.1399 135.908 15.1951 136.025 15.225H136.027L136.046 15.2296C137.076 15.4665 138.148 14.9927 138.716 14.0495C139.14 13.3479 139.257 12.9269 139.383 12.4784L139.411 12.3772C139.439 12.276 139.423 12.1701 139.363 12.0873C139.328 12.039 139.25 11.9585 139.114 11.9493C138.652 11.9194 138.201 11.7584 137.872 11.6411C137.748 11.5974 137.644 11.5605 137.575 11.5421C135.229 10.9464 133.113 8.71502 132.683 7.73508L132.278 6.80804C132.112 6.42849 131.829 6.12714 131.479 5.96382C131.001 5.73608 130.513 5.71998 129.991 5.91321C127.948 6.66542 126.274 10.2563 126.186 10.4449C126.242 10.5944 126.458 10.9141 126.607 11.1304C126.798 11.4202 127.001 11.7147 127.111 11.9723C127.116 11.9792 127.118 11.9861 127.123 11.993L127.668 13.5273L128.411 13.2881C128.512 13.2536 128.627 13.2697 128.714 13.3318L130.631 14.6453C130.713 14.7005 130.822 14.6959 130.895 14.6338L132.409 13.3525C132.586 13.2007 132.807 13.1248 133.028 13.1248ZM136.577 15.9887C136.349 15.9887 136.122 15.9657 135.891 15.9128L135.864 15.9059C135.641 15.853 135.434 15.7472 135.25 15.593L133.154 13.8586C133.06 13.8057 132.94 13.8172 132.857 13.8862L131.346 15.1698C131.031 15.4343 130.575 15.455 130.235 15.2227L128.461 14.0058L127.691 14.2542C127.435 14.3371 127.164 14.2036 127.074 13.9506L126.467 12.2414C126.38 12.0459 126.198 11.7814 126.025 11.5237C125.625 10.9303 125.303 10.4541 125.568 10.1159C125.793 9.63056 127.504 6.08344 129.75 5.25531C130.449 4.99998 131.13 5.02298 131.778 5.32892C132.28 5.56816 132.685 5.99142 132.919 6.5274L133.324 7.45214C133.711 8.33777 135.735 10.3529 137.748 10.8635C137.847 10.8888 137.966 10.9326 138.104 10.9809C138.397 11.0867 138.795 11.227 139.16 11.25C139.471 11.2707 139.754 11.4271 139.933 11.6825C140.115 11.9401 140.17 12.2621 140.085 12.5681L140.057 12.667C139.924 13.1386 139.788 13.6263 139.314 14.4107C138.716 15.4044 137.672 15.9887 136.577 15.9887Z" fill="black"/>
<path d="M121.408 7.9076C122.117 6.5688 123.147 7.30491 123.826 3.50705C124.233 1.22282 126.278 2.61222 126.685 1.97503C127.884 0.10255 128.602 -0.50244 130.272 0.436099C131.378 1.05949 132.245 3.47715 133.405 5.65097C134.007 6.77353 133.499 8.5448 131.376 8.20435C130.711 8.09623 130.667 7.06338 130.085 7.18069C128.572 7.48894 129.816 8.77023 128.928 9.2188C128.077 9.64896 127.624 9.76398 126.522 10.1021C125.19 10.507 125.239 12.0758 123.124 11.5076C122.02 11.2132 120.438 9.73867 121.408 7.9076Z" fill="black"/>
<path d="M120.235 180.869L119.624 187.365C119.603 187.547 119.727 187.715 119.888 187.726L123.113 187.924C123.251 187.933 123.371 187.821 123.392 187.664L123.992 181.759L120.235 180.869Z" fill="white"/>
<path d="M119.973 187.377L123.051 187.568L123.613 182.028L120.546 181.299L119.973 187.377ZM123.13 188.274C123.118 188.274 123.104 188.274 123.09 188.271L119.868 188.071C119.7 188.062 119.546 187.982 119.433 187.85C119.311 187.706 119.253 187.515 119.276 187.324L119.888 180.832C119.898 180.733 119.95 180.641 120.033 180.581C120.114 180.522 120.22 180.501 120.319 180.526L124.073 181.416C124.243 181.458 124.358 181.619 124.34 181.794L123.739 187.699C123.698 188.035 123.44 188.274 123.13 188.274Z" fill="black"/>
<path d="M119.115 185.682C118.901 186.448 118.45 188.611 118.26 189.913C118.142 190.729 118.657 191.5 119.449 191.714C121.678 192.319 127.015 192.291 131.457 192.489C131.76 192.501 132.322 192.353 132.57 191.615C133.416 189.114 128.747 188.342 124.132 185.8C124.043 185.751 123.932 185.754 123.847 185.816C123.794 185.853 123.725 185.899 123.647 185.949C122.844 186.46 121.51 186.462 120.696 185.972L119.773 185.418C119.52 185.266 119.193 185.395 119.115 185.682Z" fill="#4D448B"/>
<path d="M119.546 185.704C119.532 185.704 119.521 185.709 119.511 185.711C119.491 185.72 119.463 185.739 119.454 185.778H119.452C119.238 186.551 118.789 188.72 118.607 189.964C118.515 190.601 118.916 191.209 119.539 191.377C121.158 191.816 124.609 191.92 127.944 192.018C129.12 192.053 130.332 192.09 131.473 192.14C131.561 192.143 132.028 192.131 132.239 191.505C132.704 190.134 131.036 189.339 128.053 188.046C126.813 187.507 125.407 186.9 124.006 186.132C123.958 186.166 123.9 186.205 123.836 186.247C122.934 186.82 121.444 186.831 120.514 186.272L119.594 185.718C119.576 185.709 119.56 185.704 119.546 185.704ZM131.496 192.84H131.443C130.307 192.789 129.095 192.752 127.926 192.718C124.393 192.612 121.057 192.513 119.357 192.053C118.391 191.793 117.77 190.85 117.915 189.863C118.104 188.561 118.554 186.39 118.778 185.589C118.847 185.347 119.019 185.154 119.251 185.062C119.484 184.968 119.741 184.989 119.955 185.12L120.876 185.672C121.589 186.102 122.771 186.093 123.459 185.656C123.532 185.61 123.597 185.566 123.645 185.531C123.836 185.393 124.094 185.38 124.301 185.495C125.688 186.258 127.091 186.866 128.331 187.402C131.273 188.676 133.594 189.681 132.902 191.729C132.623 192.552 131.984 192.84 131.496 192.84Z" fill="black"/>
<path d="M118.127 190.501C118.122 190.524 118.12 190.54 118.118 190.547C118 191.361 118.775 191.863 119.516 192.21C121.715 193.245 130.595 192.652 130.94 192.629H130.958C131.068 192.631 132.196 192.631 132.52 191.93C132.561 191.842 132.584 191.72 132.6 191.605C132.626 191.417 132.612 191.228 132.571 191.044C132.538 190.892 132.389 190.798 132.242 190.837C130.592 191.258 126.744 191.398 122.898 190.975C120.342 190.692 119.231 190.135 118.637 189.781C118.476 189.684 118.269 189.776 118.233 189.963C118.203 190.119 118.164 190.308 118.127 190.501Z" fill="white"/>
<path d="M118.554 190.138L118.469 190.569V190.571L118.464 190.599C118.395 191.075 118.766 191.473 119.665 191.896C121.354 192.69 127.762 192.494 130.914 192.282C130.925 192.28 130.953 192.28 130.962 192.28C131.3 192.287 132.013 192.188 132.202 191.783C132.209 191.767 132.234 191.707 132.253 191.56C132.269 191.445 132.266 191.323 132.246 191.197C130.619 191.585 126.828 191.76 122.858 191.323C120.424 191.054 119.237 190.532 118.554 190.138ZM125.365 193.173C122.95 193.173 120.443 193.035 119.366 192.531C118.883 192.303 117.597 191.698 117.772 190.497C117.772 190.49 117.777 190.467 117.783 190.433L117.889 189.897C117.928 189.697 118.062 189.529 118.248 189.446C118.432 189.366 118.644 189.377 118.816 189.483C119.426 189.844 120.516 190.362 122.936 190.628C126.89 191.063 130.638 190.886 132.154 190.497C132.317 190.456 132.485 190.481 132.63 190.571C132.772 190.658 132.876 190.803 132.913 190.969C132.966 191.201 132.975 191.431 132.947 191.652C132.924 191.832 132.887 191.97 132.837 192.078C132.43 192.956 131.197 192.982 130.951 192.979C130.463 193.012 127.969 193.173 125.365 193.173ZM124.45 188.172C124.344 188.172 124.24 188.123 124.171 188.034C124.054 187.88 124.084 187.659 124.238 187.544L125.584 186.515C125.738 186.398 125.957 186.428 126.076 186.582C126.191 186.736 126.161 186.957 126.007 187.072L124.661 188.098C124.597 188.149 124.523 188.172 124.45 188.172ZM126.239 188.905C126.134 188.905 126.028 188.857 125.959 188.765C125.844 188.609 125.874 188.39 126.03 188.275L127.208 187.39C127.362 187.275 127.581 187.307 127.698 187.461C127.813 187.615 127.783 187.834 127.629 187.951L126.449 188.834C126.387 188.882 126.313 188.905 126.239 188.905ZM110.648 120.783C110.648 120.783 108.087 125.906 107.227 131.303C106.427 136.327 103.478 157.014 96.2936 173.606C95.4793 175.488 96.4202 177.445 98.4237 177.882C99.2243 178.057 99.5601 177.772 100.253 177.434C100.611 177.261 101.203 176.746 101.203 176.746C101.203 176.746 113.921 166.118 119.106 138.231C122.442 120.293 121.887 121.717 121.887 121.717L110.648 120.783Z" fill="black"/>
<path d="M114.218 123.127C114.218 123.127 112.725 132.862 115.55 140.062C118.264 146.988 119.997 174.137 118.984 181.981C118.922 182.473 119.265 182.924 119.757 182.993C120.993 183.168 123.219 183.403 124.742 183.12C125.023 183.067 125.248 182.86 125.317 182.584C126.323 178.607 134.664 142.632 128.784 124.199L114.218 123.127Z" fill="black"/>
<path d="M117.018 149.118C116.838 149.118 116.687 148.98 116.671 148.798C116.666 148.757 116.302 144.724 114.86 140.917C114.324 139.5 113.945 138.035 113.763 136.675C113.738 136.484 113.871 136.307 114.064 136.282C114.255 136.259 114.43 136.392 114.458 136.583C114.632 137.89 114.998 139.302 115.516 140.671C116.993 144.57 117.363 148.695 117.368 148.736C117.384 148.929 117.241 149.099 117.048 149.115C117.039 149.115 117.027 149.118 117.018 149.118ZM98.4081 181.03C98.8015 179.07 98.905 178.693 99.8458 177.182C100.545 176.059 98.9119 174.339 98.047 174.208C96.2803 173.812 96.768 174.463 95.1163 176.579L93.8879 178.074C93.8879 178.074 98.0654 182.744 98.4081 181.03Z" fill="white"/>
<path d="M98.0302 181.757C96.8087 181.757 94.3749 179.149 93.6273 178.311C93.5123 178.182 93.5077 177.989 93.6181 177.856L94.8442 176.358C95.647 175.332 96.7995 173.451 96.811 173.432C96.9145 173.269 97.1284 173.216 97.294 173.317C97.4597 173.418 97.5103 173.635 97.4091 173.8C97.3608 173.878 96.2221 175.733 95.3917 176.795L94.3496 178.067C95.9437 179.806 97.6575 181.21 98.0325 181.058C98.0325 181.058 98.0509 181.032 98.0647 180.963C98.4166 179.208 99.0009 177.754 100.02 176.103C100.121 175.94 100.335 175.889 100.501 175.99C100.664 176.091 100.717 176.308 100.613 176.471C99.6427 178.047 99.086 179.431 98.7502 181.101C98.6627 181.55 98.3775 181.69 98.2165 181.734C98.1567 181.75 98.0946 181.757 98.0302 181.757Z" fill="black"/>
<path d="M98.6353 180.299L96.9653 177.776C96.1855 176.6 94.5269 176.423 93.5171 177.412L91.6032 179.015C91.6032 179.015 91.2374 180.12 91.3547 180.833C91.5043 181.76 91.8033 183.082 92.3807 184.394C93.2686 186.409 95.7277 190.46 96.6018 191.881C96.7858 192.18 97.2436 192.477 97.5634 192.332C97.9429 192.162 98.3363 191.858 98.7158 191.502C99.3047 190.95 99.1069 188.373 98.8953 186.579C98.7618 185.429 98.8608 182.491 98.9114 181.281C98.9252 180.932 98.8285 180.589 98.6353 180.299Z" fill="#4D448B"/>
<path d="M91.9074 179.219C91.8039 179.564 91.6245 180.309 91.7004 180.776C91.843 181.646 92.1329 182.957 92.701 184.252C93.5936 186.272 96.1423 190.46 96.9015 191.698C97.0234 191.896 97.3178 192.057 97.4213 192.011C97.7227 191.877 98.0769 191.62 98.4772 191.245C98.5692 191.157 99.0086 190.527 98.5485 186.617C98.4105 185.443 98.5117 182.485 98.5623 181.266C98.5738 180.99 98.4979 180.721 98.3438 180.488L96.6737 177.967C96.3586 177.493 95.8548 177.188 95.2889 177.128C94.7253 177.07 94.1687 177.261 93.7615 177.659L93.7431 177.677L91.9074 179.219ZM97.3799 192.719C96.9383 192.719 96.5012 192.384 96.3057 192.064C95.3234 190.467 92.9449 186.541 92.0615 184.532C91.4612 183.173 91.1575 181.8 91.0103 180.889C90.8815 180.1 91.2564 178.954 91.2725 178.906L91.3024 178.812L93.283 177.151C93.8374 176.612 94.5942 176.35 95.3648 176.433C96.1377 176.514 96.8278 176.932 97.2557 177.581L98.9281 180.104C99.1627 180.459 99.28 180.87 99.2616 181.296C99.211 182.497 99.1121 185.411 99.2432 186.536C99.7148 190.532 99.3053 191.429 98.9557 191.756C98.4933 192.188 98.0861 192.48 97.7066 192.65C97.6008 192.699 97.4903 192.719 97.3799 192.719Z" fill="black"/>
<path d="M98.8361 183.523C98.8062 183.523 98.774 183.518 98.7441 183.511L96.9429 183.015C96.7566 182.964 96.6485 182.771 96.6991 182.584C96.7497 182.398 96.9429 182.29 97.1292 182.341L98.9281 182.835C99.1144 182.886 99.2249 183.079 99.1742 183.265C99.1305 183.422 98.9902 183.523 98.8361 183.523ZM98.7027 185.129C98.6728 185.129 98.6406 185.124 98.6107 185.117L96.8118 184.62C96.6232 184.57 96.5151 184.379 96.5657 184.192C96.6163 184.004 96.8118 183.896 96.9958 183.946L98.7947 184.441C98.981 184.491 99.0914 184.685 99.0408 184.871C98.9971 185.027 98.8568 185.129 98.7027 185.129Z" fill="black"/>
<path d="M96.8671 192.464C97.0511 192.464 97.2236 192.434 97.3824 192.379C97.9206 192.195 99.264 191.795 99.1145 189.867C98.9581 187.87 97.4399 186.854 96.3311 185.542C95.4846 184.542 95.5697 180.362 95.3029 179.541C94.8267 178.073 92.6828 177.852 91.6039 179.014C90.923 179.75 90.8425 181.344 90.9092 182.517C91.0334 184.714 92.3239 189.085 93.9549 191.197C94.7531 192.227 95.9792 192.464 96.8671 192.464Z" fill="white"/>
<path d="M93.3631 178.62C92.7926 178.62 92.2359 178.848 91.861 179.253C91.3894 179.761 91.1708 180.944 91.2583 182.499C91.3733 184.537 92.5902 188.857 94.2326 190.982C94.994 191.967 96.2109 192.114 96.8665 192.114C97.0091 192.114 97.1448 192.091 97.2691 192.047L97.3174 192.031C97.8671 191.845 98.8908 191.495 98.7643 189.894C98.6562 188.484 97.7981 187.599 96.8918 186.662C96.6135 186.377 96.3259 186.08 96.0637 185.767C95.4311 185.022 95.277 182.966 95.155 181.314C95.0998 180.58 95.0492 179.888 94.971 179.649C94.81 179.154 94.389 178.797 93.8139 178.671C93.6644 178.636 93.5126 178.62 93.3631 178.62ZM96.8665 192.813C96.0821 192.813 94.6214 192.632 93.6782 191.41C91.9553 189.179 90.6786 184.666 90.559 182.538C90.5015 181.512 90.5268 179.662 91.348 178.777C91.9875 178.087 93.0157 177.778 93.9658 177.985C94.787 178.167 95.3966 178.694 95.6358 179.432C95.7393 179.752 95.7899 180.417 95.852 181.261C95.9579 182.648 96.1143 184.741 96.5974 185.317C96.8458 185.611 97.1241 185.899 97.3933 186.175C98.3479 187.159 99.3348 188.178 99.4636 189.841C99.6292 191.983 98.1156 192.501 97.5451 192.694L97.4968 192.71C97.299 192.779 97.0873 192.813 96.8665 192.813Z" fill="black"/>
<path d="M96.867 192.815C96.6438 192.815 96.4207 192.802 96.2045 192.774C96.0112 192.749 95.8755 192.574 95.9008 192.381C95.9261 192.19 96.1009 192.054 96.2942 192.079C96.4805 192.102 96.6737 192.116 96.867 192.116C97.1959 192.116 97.4903 191.997 97.6698 191.789C97.8193 191.617 97.8814 191.398 97.8469 191.155C97.587 189.271 96.5725 188.3 95.3993 187.175C94.3251 186.144 94.0812 182.991 93.9478 181.295C93.9179 180.916 93.888 180.522 93.865 180.435C93.7684 180.081 93.1956 179.634 92.5722 179.565C92.2065 179.526 91.7027 179.602 91.3852 180.205C91.2955 180.373 91.0839 180.44 90.9137 180.35C90.7412 180.26 90.6767 180.049 90.7665 179.876C91.1529 179.147 91.8384 178.781 92.6504 178.871C93.5246 178.967 94.355 179.572 94.539 180.251C94.5781 180.394 94.6011 180.672 94.6448 181.24C94.7621 182.728 95.0037 185.825 95.8847 186.669C97.0993 187.833 98.2449 188.935 98.5393 191.058C98.6014 191.502 98.4795 191.925 98.1989 192.25C97.8837 192.608 97.4006 192.815 96.867 192.815Z" fill="black"/>
<path d="M127.873 84.2862C128.335 84.4426 128.549 85.3903 128.62 85.8711C128.862 87.4537 128.034 91.1688 126.886 91.4126C125.756 91.6519 125.851 91.1412 124.99 91.6197C124.303 92.0015 123.866 93.8073 123.585 95.3232C123.516 95.6959 125.464 96.3077 125.501 96.3998C125.579 96.6068 124.749 97.7294 120.94 97.2486C117.333 96.7954 115.842 94.5089 115.828 94.3364C115.826 94.3134 115.909 94.2903 116.038 94.2742C116.902 94.1615 117.691 93.7222 118.26 93.062L118.637 92.6249C119.741 91.3413 120.696 89.9312 121.436 88.4084C122.476 86.276 124.606 83.1751 127.873 84.2862Z" fill="white"/>
<path d="M116.383 94.5691C116.917 95.2362 118.387 96.5727 120.984 96.8994C123.457 97.2122 124.584 96.8212 124.989 96.5428C124.963 96.5336 124.936 96.5221 124.913 96.5129C123.811 96.0666 123.148 95.7607 123.24 95.2569C123.682 92.8922 124.167 91.6753 124.821 91.3118C125.359 91.0128 125.621 91.0289 125.962 91.091C126.159 91.1255 126.366 91.1623 126.815 91.068C127.586 90.9047 128.529 87.5876 128.276 85.9222C128.163 85.1745 127.926 84.6708 127.763 84.6156C124.862 83.631 122.893 86.2166 121.752 88.5606C121.023 90.0582 120.064 91.5005 118.902 92.8508L118.527 93.2878C117.963 93.9434 117.209 94.392 116.383 94.5691ZM122.654 97.716C122.152 97.716 121.568 97.6815 120.896 97.5964C117.188 97.1271 115.509 94.7302 115.481 94.3621C115.449 93.9963 115.859 93.9434 115.992 93.925C116.765 93.8238 117.476 93.4351 117.996 92.8301L118.371 92.3953C119.493 91.091 120.418 89.697 121.122 88.2524C122.911 84.5834 125.35 83.0582 127.986 83.9531C128.596 84.1601 128.855 85.0802 128.968 85.8163C129.221 87.4841 128.416 91.4453 126.96 91.7535C126.378 91.8754 126.065 91.8202 125.837 91.7788C125.621 91.7397 125.52 91.7236 125.161 91.9237C124.864 92.0871 124.418 92.8048 123.949 95.2799C124.165 95.4548 124.887 95.7469 125.175 95.8642C125.66 96.0597 125.764 96.1012 125.828 96.2714C125.893 96.4416 125.844 96.6417 125.695 96.8304C125.508 97.0673 124.8 97.716 122.654 97.716Z" fill="black"/>
<path d="M125.812 88.4073C125.796 88.4073 125.78 88.405 125.764 88.4027C124.963 88.2946 124.517 87.4573 124.43 86.6775C124.347 85.9391 124.565 85.3801 125 85.2168C125.762 84.9292 126.357 85.732 126.592 86.2496C126.67 86.4267 126.592 86.6338 126.415 86.712C126.238 86.7925 126.031 86.712 125.952 86.5371C125.856 86.3255 125.511 85.7711 125.249 85.87C125.196 85.8931 125.074 86.1461 125.127 86.5993C125.182 87.0938 125.433 87.6528 125.858 87.7103C126.051 87.7356 126.185 87.9127 126.157 88.1037C126.134 88.2785 125.982 88.4073 125.812 88.4073Z" fill="black"/>
<path d="M128.871 80.6313C128.864 80.6198 128.855 80.6106 128.848 80.5991C127.318 78.4459 125.455 77.4384 123.617 77.3556C123.583 77.3533 123.544 77.3556 123.507 77.3533C123.415 77.351 123.32 77.351 123.228 77.3533H123.212C122.069 77.3878 120.947 77.7765 119.93 78.4667C119.297 78.8761 118.874 79.3132 118.474 79.6697C116.079 81.8067 115.987 83.3388 113.293 84.1094C111.987 84.4843 108.371 82.7177 104.876 85.3194C100.72 88.411 103.623 91.0357 100.255 94.5966C96.8412 98.2082 94.5869 96.0643 91.9254 99.7885C88.767 104.21 90.1127 110.048 95.0677 113.89C100.278 117.927 106.59 118.571 110.08 115.129C114.45 110.819 112.789 94.967 112.789 94.967C113.815 94.7462 115.739 94.6173 117.206 94.5483C118.476 94.4908 119.654 93.872 120.427 92.8622C121.802 91.0541 124.052 87.6243 124.744 85.8875C124.811 85.7196 125.124 85.1192 125.566 85.3953C125.853 85.577 126.12 86.7019 126.417 86.6099C126.884 86.4603 126.753 84.9076 128.018 84.6431C129.842 84.2566 129.789 81.954 128.871 80.6313Z" fill="black"/>
<path d="M138.82 102.012C138.431 104.358 136.977 109.34 136.72 109.26C136.389 109.156 135.135 106.803 135.135 106.803L130.304 110.999C130.304 110.999 135.358 118.659 138.392 116.524C140.568 114.997 141.132 104.643 141.249 102.798C141.263 102.577 141.321 102.361 141.438 102.173C141.456 102.138 143.368 100.489 142.6 98.9751C142.528 98.8348 142.266 98.3793 142.229 98.2321C142.179 98.0251 144.47 96.079 144.09 95.1658C143.881 94.6574 141.348 96.6679 140.75 97.1095C140.322 97.427 139.805 97.9239 139.331 98.4598C138.128 99.8147 138.852 101.821 138.82 102.012Z" fill="white"/>
<path d="M130.769 111.059C131.498 112.106 134.396 116.058 136.789 116.511C137.327 116.615 137.785 116.525 138.19 116.24C138.926 115.725 140.253 113.314 140.886 102.981L140.897 102.776C140.916 102.481 140.998 102.217 141.139 101.992C141.164 101.95 141.189 101.927 141.226 101.888C141.725 101.414 142.823 100.193 142.287 99.1345C142.271 99.1 142.241 99.0494 142.206 98.9873C142.017 98.6376 141.921 98.449 141.889 98.3179C141.829 98.074 141.969 97.9153 142.441 97.3954C142.804 96.9906 143.706 95.9945 143.782 95.4747C143.471 95.5943 142.772 96.0152 141.238 97.1792C141.123 97.2666 141.028 97.3402 140.959 97.3908C140.568 97.6784 140.071 98.1545 139.593 98.6928C138.721 99.6751 139.002 101.081 139.124 101.681C139.163 101.881 139.181 101.971 139.165 102.07C138.875 103.82 137.474 109.217 136.927 109.555C136.83 109.613 136.715 109.626 136.614 109.594C136.492 109.557 136.184 109.458 135.036 107.356L130.769 111.059ZM137.203 117.252C137.026 117.252 136.846 117.234 136.658 117.199C133.624 116.624 130.157 111.414 130.012 111.193L129.842 110.938L135.238 106.252L135.445 106.638C135.848 107.397 136.349 108.255 136.655 108.688C137.106 107.563 138.135 103.972 138.468 101.989C138.463 101.948 138.452 101.89 138.436 101.817C138.307 101.175 137.964 99.4703 139.068 98.2282C139.584 97.6462 140.111 97.1493 140.541 96.8273C140.61 96.7789 140.704 96.7076 140.814 96.6225C142.816 95.1043 143.642 94.6327 144.095 94.7546C144.242 94.7938 144.355 94.895 144.414 95.033C144.734 95.8036 143.908 96.8135 142.961 97.8624C142.841 97.9981 142.698 98.1545 142.616 98.2558C142.675 98.38 142.772 98.5617 142.823 98.6514C142.859 98.7204 142.892 98.7802 142.91 98.817C143.658 100.292 142.326 101.805 141.716 102.392C141.647 102.514 141.606 102.656 141.599 102.82L141.585 103.024C141.088 111.128 140.081 115.766 138.595 116.815C138.178 117.107 137.711 117.252 137.203 117.252Z" fill="black"/>
<path d="M100.858 128.198C100.766 128.456 100.996 128.962 100.963 129.171C100.844 129.937 99.6937 131.014 98.8494 131.713C98.1754 132.268 97.7798 133.096 97.7775 133.968C97.7775 134.175 97.7867 134.398 97.7982 134.639C97.8281 135.191 97.6487 135.486 97.4071 135.633C96.9332 135.925 96.3168 135.585 96.2569 135.03C96.1258 133.82 95.9096 131.313 96.25 130.427C96.4755 129.845 97.2001 129.086 97.8787 128.463C98.5458 127.849 98.9161 126.979 98.9115 126.075C98.8977 122.94 100.653 113.794 102.712 107.371L107.858 110.207C107.858 110.207 104.239 118.691 100.858 128.198Z" fill="white"/>
<path d="M102.917 107.886C100.92 114.265 99.25 123.119 99.2615 126.075C99.2661 127.085 98.8474 128.048 98.1159 128.722C97.2878 129.484 96.7403 130.135 96.577 130.556C96.3562 131.131 96.3654 132.789 96.6046 134.995C96.6207 135.147 96.715 135.281 96.8553 135.35C96.929 135.384 97.0739 135.43 97.2234 135.338C97.3913 135.235 97.4672 135.005 97.4488 134.657C97.4373 134.42 97.4281 134.188 97.4281 133.969C97.4304 132.992 97.8675 132.072 98.6266 131.444C99.8136 130.461 100.54 129.613 100.616 129.12C100.619 129.086 100.586 128.955 100.568 128.867C100.508 128.614 100.442 128.329 100.529 128.083C103.526 119.652 106.749 111.937 107.412 110.363L102.917 107.886ZM97.0325 136.093C96.8692 136.093 96.7035 136.054 96.5471 135.978C96.1906 135.803 95.9513 135.465 95.9099 135.071C95.7259 133.387 95.581 131.193 95.9237 130.303C96.1307 129.769 96.7104 129.063 97.6421 128.207C98.231 127.666 98.5668 126.891 98.5622 126.077C98.5484 122.99 100.248 113.91 102.378 107.267C102.408 107.168 102.484 107.085 102.581 107.049C102.68 107.009 102.788 107.016 102.88 107.067L108.026 109.903C108.185 109.988 108.251 110.182 108.182 110.345C108.143 110.43 104.525 118.928 101.187 128.317C101.173 128.384 101.221 128.596 101.249 128.709C101.295 128.904 101.334 129.07 101.309 129.226C101.203 129.916 100.448 130.846 99.0729 131.984C98.4748 132.479 98.1297 133.203 98.1274 133.972C98.1274 134.172 98.1366 134.395 98.1481 134.623C98.1872 135.398 97.8675 135.764 97.5915 135.934C97.4212 136.04 97.228 136.093 97.0325 136.093Z" fill="black"/>
<path d="M111.239 95.364C116.67 93.6342 126.52 94.2323 129.304 96.344C133.049 99.1872 135.358 103.59 135.97 105.854C136.173 106.604 136.143 107.397 135.892 108.133C135.068 110.539 132.628 116.083 131.195 114.59C129.886 113.224 129.308 112.276 129.419 113.376C129.711 116.286 130.212 126.759 130.212 126.759C129.292 126.773 128.529 127.474 128.439 128.392L127.891 133.989C127.852 134.403 127.411 134.645 127.043 134.456C124.08 132.929 113.332 127.378 108.957 125.004C108.433 124.719 108.148 124.134 108.251 123.548C108.764 120.59 110.482 112.009 109.919 110.284C109.79 109.9 108.858 111.501 107.727 112.458C107.545 112.61 107.283 112.619 107.096 112.472L101.92 108.382C101.463 108.021 101.297 107.399 101.516 106.859C102.59 104.193 105.378 97.2319 111.239 95.364Z" fill="white"/>
<path d="M109.843 109.874C109.871 109.874 109.898 109.879 109.928 109.884C110.078 109.911 110.2 110.022 110.248 110.176C110.717 111.611 109.834 116.794 108.888 121.981C108.771 122.618 108.67 123.173 108.594 123.607C108.518 124.047 108.732 124.484 109.123 124.698C113.462 127.051 124.057 132.524 127.201 134.143C127.303 134.196 127.388 134.159 127.42 134.141C127.455 134.125 127.533 134.069 127.542 133.957L128.089 128.358C128.184 127.385 128.915 126.614 129.847 126.446C129.759 124.638 129.329 115.989 129.072 113.41C129.046 113.173 129.003 112.729 129.338 112.582C129.7 112.421 129.976 112.729 130.645 113.477C130.877 113.734 131.14 114.029 131.448 114.349C131.597 114.505 131.717 114.503 131.814 114.482C132.897 114.243 134.687 110.576 135.561 108.02C135.791 107.346 135.816 106.626 135.632 105.945C135.036 103.742 132.803 99.4424 129.092 96.6245C126.353 94.545 116.567 94.0343 111.345 95.6975C105.661 97.5078 102.894 104.374 101.852 106.96L101.84 106.99C101.682 107.385 101.803 107.843 102.137 108.108L107.313 112.198C107.368 112.242 107.444 112.237 107.501 112.191C108.005 111.765 108.474 111.197 108.852 110.742C109.337 110.15 109.565 109.874 109.843 109.874ZM127.31 134.87C127.162 134.87 127.015 134.835 126.882 134.766C123.735 133.142 113.135 127.67 108.79 125.312C108.132 124.955 107.777 124.222 107.906 123.488C107.982 123.051 108.081 122.494 108.198 121.855C108.787 118.634 109.836 112.876 109.666 110.857C109.574 110.96 109.477 111.08 109.39 111.186C108.994 111.664 108.504 112.26 107.952 112.725C107.644 112.987 107.191 112.996 106.878 112.748L101.702 108.658C101.127 108.202 100.915 107.408 101.189 106.728L101.203 106.698C102.277 104.029 105.137 96.9419 111.131 95.0327C116.625 93.2821 126.587 93.8434 129.516 96.0655C133.366 98.9892 135.687 103.466 136.309 105.761C136.529 106.58 136.499 107.438 136.223 108.248C136.2 108.313 133.985 114.719 131.965 115.168C131.586 115.25 131.232 115.135 130.942 114.834C130.629 114.503 130.36 114.206 130.125 113.944C130.012 113.82 129.897 113.688 129.789 113.573C130.082 116.748 130.558 126.642 130.562 126.743L130.581 127.104L130.217 127.109C129.474 127.12 128.86 127.686 128.786 128.427L128.239 134.023C128.209 134.334 128.03 134.608 127.756 134.757C127.616 134.831 127.464 134.87 127.31 134.87Z" fill="black"/>
<path d="M13.8909 176.934L12.7361 185.049L9.77791 185.061L9.63989 177.079L13.8909 176.934Z" fill="white"/>
<path d="M9.99429 177.417L10.1231 184.709L12.4326 184.7L13.4862 177.299L9.99429 177.417ZM9.77806 185.41C9.58713 185.41 9.43301 185.256 9.42841 185.068L9.29039 177.085C9.28578 176.895 9.43761 176.736 9.62853 176.729L13.8796 176.584C13.9831 176.584 14.0843 176.623 14.1533 176.699C14.2223 176.777 14.2522 176.881 14.2384 176.984L13.0836 185.098C13.0583 185.27 12.9111 185.399 12.7363 185.399L9.78036 185.41H9.77806Z" fill="black"/>
<path d="M12.8351 192.804C11.6758 192.928 9.94821 192.979 7.63867 192.774C6.81284 192.703 6.23086 191.937 6.36428 191.12C6.72083 188.916 7.72378 185.031 9.29951 183.248L10.0793 184.359L10.5417 183.214C10.6153 183.089 12.5752 183.007 12.6166 183.239L12.7362 184.359L13.8496 183.112L13.7875 187.207C13.7806 187.658 13.8243 188.111 13.9163 188.553L14.2084 189.97C14.3833 190.821 14.167 191.723 13.5712 192.358C13.3366 192.606 13.079 192.779 12.8351 192.804Z" fill="white"/>
<path d="M9.28095 183.831C7.89384 185.71 7.01972 189.269 6.70917 191.176C6.66086 191.475 6.73907 191.781 6.9231 192.02C7.10713 192.257 7.37167 192.402 7.66841 192.427C10.1275 192.643 11.8159 192.563 12.7982 192.457C12.9385 192.441 13.1271 192.319 13.3157 192.119C13.8172 191.583 14.0219 190.805 13.8655 190.039L13.5711 188.625C13.4768 188.158 13.4308 187.679 13.4377 187.203L13.4837 184.047L12.996 184.592C12.904 184.698 12.7591 184.735 12.6279 184.693C12.4968 184.652 12.4025 184.535 12.3887 184.397L12.2898 183.472C11.9493 183.419 11.1373 183.437 10.8061 183.493L10.4035 184.491C10.3552 184.611 10.2471 184.693 10.1183 184.707C9.99175 184.723 9.86524 184.666 9.79162 184.56L9.28095 183.831ZM10.5898 193.265C9.75712 193.265 8.76337 193.225 7.6086 193.124C7.11403 193.081 6.67466 192.841 6.37102 192.45C6.06737 192.059 5.93855 191.553 6.01677 191.063C6.11338 190.483 7.00131 185.319 9.03711 183.019C9.10842 182.938 9.21194 182.895 9.32006 182.901C9.42587 182.906 9.52479 182.961 9.58689 183.049L9.99405 183.633L10.2172 183.083C10.2241 183.065 10.231 183.049 10.2402 183.033C10.5047 182.593 12.4439 182.789 12.4646 182.793C12.5727 182.814 12.9086 182.876 12.9615 183.18C12.9638 183.187 12.9638 183.196 12.9661 183.203L13.0006 183.539L13.5872 182.881C13.6838 182.77 13.8402 182.734 13.9759 182.786C14.1117 182.839 14.2014 182.973 14.1991 183.12L14.137 187.212C14.1301 187.638 14.1715 188.066 14.2566 188.484L14.551 189.899C14.7535 190.888 14.4843 191.896 13.8264 192.597C13.5159 192.926 13.1869 193.12 12.8741 193.152C12.3266 193.212 11.5675 193.265 10.5898 193.265Z" fill="black"/>
<path d="M10.7207 191.816C9.90412 191.816 8.88967 191.753 7.7441 191.551C7.55318 191.519 7.42666 191.337 7.45886 191.146C7.49337 190.955 7.67509 190.829 7.86372 190.861C10.6931 191.36 12.7174 190.964 12.7381 190.96C12.9268 190.921 13.1108 191.045 13.1499 191.234C13.189 191.425 13.0648 191.609 12.8762 191.648C12.8233 191.657 12.0204 191.816 10.7207 191.816ZM11.6662 188.703H8.98399C8.79076 188.703 8.63433 188.547 8.63433 188.354C8.63433 188.16 8.79076 188.004 8.98399 188.004H11.6662C11.8594 188.004 12.0158 188.16 12.0158 188.354C12.0158 188.547 11.8594 188.703 11.6662 188.703Z" fill="black"/>
<path d="M35.1187 177.656L36.1584 187.112L40.138 187.947L39.8942 176.857L35.1187 177.656Z" fill="white"/>
<path d="M36.4776 186.825L39.7763 187.517L39.5532 177.271L35.5023 177.948L36.4776 186.825ZM40.1375 188.299C40.1122 188.299 40.0892 188.297 40.0639 188.292L36.0866 187.459C35.9393 187.427 35.8266 187.305 35.8105 187.154L34.7708 177.697C34.7501 177.513 34.8766 177.343 35.0606 177.313L39.8361 176.514C39.9373 176.498 40.0385 176.524 40.1168 176.588C40.195 176.655 40.241 176.749 40.2433 176.853L40.4871 187.943C40.4894 188.048 40.4411 188.15 40.3606 188.219C40.2962 188.272 40.218 188.299 40.1375 188.299Z" fill="black"/>
<path d="M34.4774 191.626C34.39 189.97 34.3877 186.917 35.3976 185.447L38.5789 186.579V185.898C38.5789 185.68 38.7354 185.5 38.9355 185.489L40.709 185.387C41.3715 185.348 42.0317 185.486 42.6367 185.783C44.4218 186.659 49.8506 188.909 50.6028 191.44C50.8236 192.187 50.2417 192.932 49.4618 192.955C47.6768 193.006 43.3797 193.061 35.6713 192.799C35.0295 192.776 34.5119 192.268 34.4774 191.626Z" fill="white"/>
<path d="M34.8265 191.606C34.8495 192.07 35.2199 192.432 35.6823 192.448C43.3079 192.708 47.5819 192.657 49.4521 192.604C49.7235 192.595 49.9812 192.459 50.1422 192.238C50.2917 192.031 50.3377 191.776 50.2664 191.539C49.6476 189.462 45.3414 187.442 43.2711 186.471C42.9651 186.327 42.6983 186.202 42.4821 186.094C41.9323 185.825 41.325 185.701 40.7292 185.735L38.9533 185.837C38.9487 185.837 38.928 185.857 38.928 185.896V186.577C38.928 186.692 38.8728 186.798 38.7808 186.863C38.6865 186.929 38.5692 186.945 38.4611 186.906L35.5465 185.869C34.9507 186.957 34.6885 189.018 34.8265 191.606ZM45.9027 193.347C43.531 193.347 40.184 193.301 35.6593 193.147C34.8288 193.119 34.1709 192.473 34.1272 191.643C34.0352 189.92 34.0421 186.798 35.1072 185.245C35.1969 185.114 35.3625 185.061 35.5143 185.114L38.2287 186.08V185.896C38.2287 185.494 38.5301 185.16 38.9142 185.137L40.6901 185.036C41.4055 184.995 42.1324 185.144 42.7903 185.466C43.0019 185.572 43.2665 185.696 43.5701 185.837C45.8981 186.929 50.2296 188.963 50.9381 191.339C51.0715 191.785 50.9864 192.264 50.7081 192.648C50.4228 193.044 49.9605 193.29 49.4728 193.303C48.7045 193.324 47.5359 193.347 45.9027 193.347Z" fill="black"/>
<path d="M44.6696 191.776C42.4084 191.776 39.3535 191.677 36.0157 191.288C35.8248 191.265 35.6868 191.092 35.7098 190.899C35.7305 190.708 35.9053 190.573 36.0962 190.593C42.8638 191.378 48.4583 190.968 48.5135 190.964C48.7067 190.95 48.8746 191.095 48.8907 191.288C48.9045 191.481 48.7596 191.649 48.5664 191.663C48.5388 191.665 47.0413 191.776 44.6696 191.776ZM43.6828 189.068C43.6114 189.068 43.5401 189.047 43.478 189.001L40.414 186.798C40.2576 186.685 40.2207 186.466 40.3358 186.31C40.4485 186.154 40.667 186.117 40.8234 186.229L43.8875 188.433C44.0439 188.546 44.0807 188.764 43.9657 188.921C43.899 189.018 43.7909 189.068 43.6828 189.068Z" fill="black"/>
<path d="M36.3585 116.291C36.3585 116.291 42.061 155.411 40.8464 181.522L39.0683 181.699C38.1113 181.796 37.1475 181.819 36.1882 181.77L34.5021 181.685C34.5021 181.685 27.7 142.023 24.3047 135.437C24.3047 135.437 15.0711 170.708 14.7146 180.264C14.7146 180.264 10.6085 180.675 8.97292 180.089C8.09419 170.867 7.84115 161.32 7.79744 155.326C7.67092 138.177 9.31107 130.385 10.2082 126.689C11.034 123.296 11.9197 120.538 12.566 118.672L14.7261 112.512L36.3585 116.291Z" fill="#4D448B"/>
<path d="M34.7992 181.35L36.207 181.419C37.1478 181.468 38.0979 181.445 39.0341 181.35L40.5109 181.201C41.6059 156.511 36.529 119.979 36.0483 116.591L14.9564 112.908L12.8953 118.786C11.9936 121.392 11.2046 124.079 10.549 126.77C9.46093 131.247 8.02782 139.077 8.14744 155.324C8.18424 160.3 8.38207 170.067 9.29991 179.823C10.687 180.202 13.4635 180.016 14.3791 179.94C14.9104 170.028 23.8749 135.695 23.9669 135.346C24.0037 135.205 24.1233 135.102 24.2659 135.088C24.4108 135.07 24.5512 135.146 24.6156 135.274C27.8867 141.616 34.139 177.525 34.7992 181.35ZM37.1501 182.144C36.8235 182.144 36.4968 182.135 36.1702 182.119L34.484 182.033C34.3207 182.024 34.185 181.905 34.1574 181.744C34.0907 181.364 27.8383 145.032 24.3947 136.484C22.9156 142.208 15.382 171.749 15.0646 180.274C15.0577 180.451 14.9242 180.593 14.7494 180.61C14.5792 180.628 10.5467 181.024 8.85594 180.416C8.72712 180.368 8.63741 180.255 8.62591 180.12C7.68737 170.263 7.48494 160.357 7.44813 155.329C7.32852 139.003 8.77313 131.118 9.86809 126.604C10.5283 123.892 11.3242 121.185 12.2351 118.556L14.3952 112.395C14.4504 112.234 14.616 112.138 14.7862 112.168L36.4186 115.945C36.5681 115.972 36.6831 116.09 36.7062 116.239C36.7637 116.632 42.3995 155.69 41.1964 181.537C41.1895 181.709 41.0538 181.852 40.8813 181.868L39.1031 182.047C38.4567 182.112 37.8034 182.144 37.1501 182.144Z" fill="black"/>
<path d="M23.9845 136.931C23.9523 136.931 23.9224 136.927 23.8902 136.917C23.7039 136.867 23.5958 136.674 23.6464 136.487L24.5964 133.035C24.8863 131.974 25.7374 131.176 26.8139 130.953L27.7019 130.771C27.8928 130.73 28.0768 130.854 28.1159 131.042C28.155 131.231 28.0331 131.417 27.8445 131.456L26.9566 131.638C26.1376 131.808 25.4913 132.413 25.2704 133.221L24.3204 136.674C24.279 136.828 24.1387 136.931 23.9845 136.931ZM11.4523 130.5C11.2844 130.5 11.1348 130.378 11.1072 130.207C11.075 130.014 11.2038 129.835 11.3948 129.805C16.2784 128.991 17.256 125.181 17.2652 125.144C17.3112 124.956 17.4999 124.841 17.6885 124.884C17.8771 124.93 17.9921 125.121 17.9461 125.308C17.9369 125.351 16.8466 129.605 11.5098 130.495C11.4891 130.497 11.4707 130.5 11.4523 130.5ZM36.6157 127.928C36.5697 127.928 36.5214 127.919 36.4754 127.9C33.3262 126.531 33.4021 123.534 33.4044 123.502C33.4113 123.311 33.5723 123.164 33.7679 123.166C33.9611 123.173 34.1106 123.336 34.1037 123.529C34.1014 123.635 34.0554 126.085 36.756 127.256C36.9331 127.334 37.0137 127.539 36.9377 127.716C36.8802 127.85 36.7514 127.928 36.6157 127.928Z" fill="black"/>
<path d="M35.8985 83.7303C32.1282 83.3047 24.077 82.541 18.5378 83.0494C16.8654 83.2012 14.4524 84.2226 13.1826 85.3198C9.43765 88.5518 2.37101 95.6691 1.19093 104.208C1.01841 105.455 1.83503 106.623 3.06571 106.897L9.59177 108.344C9.59177 108.344 6.99009 118.601 7.19942 120.37C7.40875 122.141 12.8007 125.157 19.5453 122.684C24.8039 120.757 32.2478 119.222 36.9727 120.888C37.0187 120.902 37.4696 124.534 37.5179 124.541C39.0338 124.761 40.5636 124.17 40.5267 122.038L39.809 110.962L48.4583 109.818L49.2312 109.563C51.5707 108.783 52.7784 106.205 51.8766 103.911C49.8454 98.7377 46.7791 90.3645 41.0995 85.7385C39.8827 84.7494 37.4558 83.9051 35.8985 83.7303Z" fill="black"/>
<path d="M31.9669 117.816H45.486C46.0726 117.816 46.5856 117.416 46.7259 116.845L51.4025 97.9873C51.6026 97.1799 50.993 96.4023 50.1626 96.4023H36.6435C36.0569 96.4023 35.5462 96.8026 35.4036 97.3708L30.727 116.231C30.5269 117.036 31.1365 117.816 31.9669 117.816Z" fill="#EBBD58"/>
<path d="M49.2055 106.041L48.7501 107.943L47.1168 107.4C46.2151 107.099 45.3502 106.701 44.5381 106.206L43.6019 105.64C42.9003 105.215 41.9917 105.546 41.7202 106.319C41.1428 107.959 41.2556 110.708 47.1421 112.436C50.3925 113.388 51.3218 109.227 50.9009 106.912C50.7951 106.321 50.5052 105.944 50.2062 105.705C49.8496 105.419 49.3182 105.599 49.2055 106.041Z" fill="white"/>
<path d="M42.9374 105.802C42.8316 105.802 42.7258 105.821 42.6245 105.855C42.3554 105.952 42.1461 106.164 42.0518 106.433C41.7389 107.321 41.778 108.156 42.1668 108.915C42.8454 110.24 44.5522 111.309 47.2413 112.098C48.0993 112.349 48.824 112.218 49.3898 111.71C50.4802 110.727 50.8414 108.531 50.5584 106.973C50.4825 106.555 50.2893 106.219 49.9879 105.977C49.8798 105.892 49.7694 105.917 49.7257 105.931C49.682 105.945 49.5785 105.993 49.544 106.124L49.0908 108.024C49.0678 108.119 49.0057 108.202 48.9206 108.248C48.8355 108.296 48.7319 108.305 48.6399 108.275L47.0044 107.73C46.082 107.422 45.1917 107.01 44.359 106.506L43.4205 105.936C43.2732 105.848 43.1053 105.802 42.9374 105.802ZM48.0464 112.922C47.7267 112.922 47.3908 112.871 47.0458 112.77C44.1635 111.924 42.3117 110.734 41.5434 109.234C41.0695 108.31 41.0166 107.261 41.3916 106.2C41.5572 105.731 41.9206 105.365 42.3876 105.197C42.8523 105.032 43.3606 105.082 43.7839 105.338L44.7201 105.908C45.5092 106.387 46.3534 106.775 47.2275 107.065L48.4996 107.491L48.8654 105.959V105.952C48.9482 105.63 49.1874 105.372 49.5026 105.266C49.82 105.161 50.1651 105.223 50.425 105.432C50.8621 105.782 51.1404 106.258 51.2462 106.849C51.5591 108.57 51.1795 111.04 49.8568 112.23C49.3461 112.687 48.7319 112.922 48.0464 112.922Z" fill="black"/>
<path d="M17.9397 95.1241C17.2634 95.8165 16.4951 96.41 15.6532 96.8885C12.8169 98.5056 6.03547 102.419 4.34932 103.859C2.2008 105.694 1.17255 106.38 2.90011 111.102C5.71342 118.802 18.8392 99.037 18.8392 99.037C18.8392 99.037 22.6945 99.734 23.5618 96.3571C23.5618 96.3571 25.57 96.7344 26.4073 96.3709C27.0514 96.0926 27.0215 95.0022 26.1657 94.8826L20.6196 93.8497C19.8559 93.7117 19.0738 93.9625 18.5332 94.5168L17.9397 95.1241Z" fill="white"/>
<path d="M20.2051 94.1609C19.676 94.1609 19.1608 94.3725 18.7812 94.7613L18.19 95.3663C17.4907 96.084 16.6971 96.6959 15.8276 97.1927C12.9981 98.803 6.23975 102.702 4.5766 104.124L4.38567 104.285C2.38438 105.989 1.63677 106.626 3.2286 110.981C3.57595 111.933 4.08433 112.437 4.78133 112.518C4.85264 112.527 4.92625 112.531 5.00217 112.531C8.6482 112.531 15.9794 102.709 18.5489 98.8421C18.6248 98.7271 18.7651 98.6672 18.9031 98.6903C19.0457 98.7179 22.4479 99.286 23.2209 96.268C23.2669 96.0886 23.444 95.9759 23.6257 96.0127C24.1548 96.1116 25.6638 96.3094 26.2688 96.0472C26.4574 95.9667 26.5218 95.7527 26.4988 95.5871C26.4827 95.4721 26.4114 95.2696 26.117 95.2282L20.5548 94.1908C20.4397 94.1701 20.3224 94.1609 20.2051 94.1609ZM4.98146 113.231C4.88485 113.231 4.79053 113.226 4.69852 113.212C3.72778 113.097 3.01237 112.428 2.57071 111.22C0.877657 106.594 1.71268 105.642 3.93251 103.751L4.12114 103.592C5.83029 102.132 12.6347 98.2026 15.4802 96.5831C16.2922 96.1208 17.0375 95.5457 17.6885 94.8786L18.282 94.2713C18.9054 93.6318 19.8025 93.3466 20.6813 93.503L26.2297 94.5381C26.7381 94.6094 27.1222 94.9844 27.1935 95.4928C27.2626 96.0035 26.9957 96.4957 26.5471 96.6913C25.8179 97.0064 24.4423 96.8477 23.8097 96.7511C22.8804 99.5828 19.8739 99.4977 19.0112 99.4103C17.8565 101.122 9.53613 113.228 4.98146 113.231Z" fill="black"/>
<path d="M30.7892 76.4785L31.2056 82.2524C31.2976 83.0046 31.8382 83.6234 32.5697 83.8143L34.5986 84.3411L33.2828 85.344C30.366 87.5661 26.3243 87.5684 23.4029 85.3532L21.321 83.7729L23.8399 83.2093C24.5645 83.0483 25.1212 82.4686 25.2523 81.7394L26.3657 74.0977L30.7892 76.4785Z" fill="white"/>
<path d="M22.1328 83.9518L23.6142 85.0766C26.3999 87.1883 30.2875 87.186 33.0709 85.0674L33.8139 84.5015L32.482 84.1542C31.6056 83.9242 30.9661 83.195 30.858 82.2955L30.4554 76.6988L26.6391 74.6446L25.5971 81.7917C25.4384 82.6728 24.7805 83.3606 23.9155 83.5538L22.1328 83.9518ZM28.3368 87.3586C26.5218 87.3586 24.7068 86.7835 23.1909 85.6333L21.1091 84.053C21.001 83.9725 20.9481 83.8344 20.978 83.701C21.0079 83.5676 21.1114 83.4618 21.2448 83.4342L23.7637 82.8706C24.3503 82.7395 24.8012 82.2702 24.907 81.6767L26.018 74.0511C26.0341 73.9361 26.1055 73.8395 26.2067 73.7866C26.3102 73.736 26.4298 73.7383 26.531 73.7912L30.9569 76.172C31.0604 76.2295 31.1317 76.3353 31.1386 76.455L31.555 82.2288C31.6263 82.8246 32.061 83.3215 32.6568 83.4756L34.6857 84.0047C34.8168 84.0392 34.9158 84.145 34.9411 84.2738C34.9687 84.4072 34.9158 84.5406 34.8099 84.6235L33.4941 85.6241C31.9759 86.7789 30.1564 87.3586 28.3368 87.3586Z" fill="black"/>
<path d="M37.35 68.4436C35.9629 67.7075 37.0809 69.9963 32.5147 66.0443C30.6975 64.4709 30.6307 67.4084 30.1592 67.0013C28.4132 65.4991 28.4753 65.5475 27.3735 65.3565C26.642 65.23 25.6666 66.2353 25.3768 67.1876C24.9949 68.4459 25.8299 69.1981 25.5447 72.0942C25.3446 74.1277 24.7051 75.1261 25.2917 75.7035C25.8828 76.2877 26.849 75.5746 27.5437 76.1635C28.4431 76.9272 27.4172 78.6226 28.0797 79.8234C28.5006 80.5825 29.8762 81.4727 32.7701 81.4037C33.2393 81.3922 33.6373 81.0471 33.7132 80.5825C33.8121 79.9867 33.9317 79.2345 33.9846 78.5076C34.2446 75.0341 33.497 73.8816 34.2331 73.2881C35.3602 72.3795 37.2787 74.0725 38.0907 73.2743C38.935 72.4439 39.2524 69.4488 37.35 68.4436Z" fill="black"/>
<path d="M30.4444 70.3887L30.5042 71.3365C30.5295 71.7827 30.5272 72.2313 30.4927 72.6776C30.426 73.5149 30.3271 74.9572 30.3317 75.7669C30.3386 76.9585 34.0214 77.1908 34.0214 77.1908L34.4884 76.671L34.9209 76.6894C35.0037 76.6917 35.0888 76.6802 35.1647 76.641C35.3487 76.5444 35.4431 76.3443 35.4108 76.1511C35.236 75.0998 34.9301 72.7765 35.2682 70.9707C35.2682 70.9707 33.2209 69.3076 30.4444 70.3887Z" fill="white"/>
<path d="M30.8096 70.6279L30.8511 71.3157C30.881 71.7758 30.8764 72.2428 30.8395 72.7051C30.7797 73.5034 30.6762 74.9618 30.6808 75.7646C30.6831 76.2569 32.3325 76.7077 33.876 76.8297L34.2279 76.4363C34.297 76.3604 34.3982 76.3167 34.5017 76.3213L34.9342 76.3397C34.9756 76.3397 34.9963 76.3328 35.0009 76.3305C35.0584 76.3006 35.0699 76.2454 35.0653 76.2086C34.8743 75.0584 34.6052 72.9076 34.8858 71.1248C34.3959 70.7982 32.8408 69.947 30.8096 70.6279ZM34.0209 77.5428C34.014 77.5428 34.0048 77.5405 33.9979 77.5405C33.0571 77.4807 29.9907 77.177 29.9815 75.7692C29.9746 74.9388 30.0804 73.4597 30.1425 72.6499C30.1748 72.2221 30.1794 71.7873 30.154 71.3595L30.0965 70.4094C30.0873 70.2576 30.1771 70.1173 30.3174 70.0621C33.2503 68.9211 35.3988 70.6256 35.4885 70.6993C35.5875 70.7798 35.6358 70.9086 35.6128 71.0351C35.2792 72.8156 35.6013 75.1665 35.7554 76.0959C35.8129 76.4432 35.6404 76.786 35.3252 76.9516C35.201 77.016 35.0561 77.0459 34.9042 77.039L34.6374 77.0275L34.2809 77.4254C34.2141 77.4991 34.1198 77.5428 34.0209 77.5428Z" fill="black"/>
<path d="M29.7975 73.3101C29.7975 73.3101 29.6618 71.0305 28.6404 71.3181C27.6168 71.6079 27.8307 74.113 29.7975 73.3101Z" fill="white"/>
</svg>
