<svg width="126" height="126" viewBox="0 0 126 126" fill="none" xmlns="http://www.w3.org/2000/svg">
<path d="M49.6862 4.44952C46.9594 5.29515 34.8763 9.23392 22.8068 19.6845C19.881 22.2124 8.06472 32.4459 3.01352 46.1977C-5.57849 69.6086 4.70479 105.229 34.3246 119.542C68.8283 136.215 112.408 115.693 122.348 88.2307C126.757 76.0481 126.956 55.8478 115.854 42.5302C106.914 31.8128 91.6288 26.7164 92.2212 16.5778C92.5061 11.6985 96.2007 10.3464 95.1741 7.27132C92.7458 -0.022849 68.9369 -1.53776 49.6862 4.44952Z" fill="white"/>
<path d="M23.3359 84.6577C37.9378 99.2641 61.6155 99.2641 76.2174 84.6577C90.8239 70.0558 90.8239 46.378 76.2174 31.7761C61.6155 17.1697 37.9378 17.1697 23.3359 31.7761C8.72944 46.378 8.72944 70.0558 23.3359 84.6577Z" fill="white"/>
<path d="M49.7768 21.0634C40.2578 21.0634 30.7387 24.6902 23.4943 31.9346C16.476 38.9529 12.6096 48.2865 12.6096 58.2171C12.6096 68.1431 16.476 77.4768 23.4943 84.4996C30.5126 91.5179 39.8508 95.3843 49.7768 95.3843C59.7028 95.3843 69.041 91.5179 76.0593 84.4996C83.0776 77.4768 86.944 68.1431 86.944 58.2171C86.944 48.2865 83.0776 38.9529 76.0593 31.9346C68.8104 24.6902 59.2958 21.0634 49.7768 21.0634ZM49.7768 95.8365C39.7287 95.8365 30.282 91.9249 23.1732 84.8207C16.069 77.7119 12.1573 68.2652 12.1573 58.2171C12.1573 48.169 16.069 38.7223 23.1732 31.6135C30.282 24.5093 39.7287 20.5977 49.7768 20.5977C59.8249 20.5977 69.2716 24.5093 76.3804 31.6135C83.4846 38.7223 87.3962 48.169 87.3962 58.2171C87.3962 68.2652 83.4846 77.7119 76.3804 84.8207C69.2716 91.9249 59.8249 95.8365 49.7768 95.8365Z" fill="black"/>
<path d="M116.021 124.525C117.559 122.988 117.559 120.496 116.021 118.958L80.3732 83.3105L74.8065 88.8773L110.454 124.525C111.992 126.063 114.484 126.063 116.021 124.525Z" fill="white"/>
<path d="M75.1277 88.8773L110.613 124.367C112.06 125.809 114.416 125.809 115.863 124.367C117.31 122.92 117.31 120.564 115.863 119.117L80.3733 83.6317L75.1277 88.8773ZM113.236 125.9C112.173 125.9 111.106 125.497 110.292 124.683L74.6483 89.0401C74.5579 88.9497 74.5579 88.8095 74.6483 88.719L80.2151 83.1523C80.301 83.0664 80.4502 83.0664 80.5361 83.1523L116.179 118.796C117.803 120.419 117.803 123.06 116.179 124.683C115.37 125.497 114.303 125.9 113.236 125.9Z" fill="black"/>
<path d="M98.8416 104.7C98.7828 104.7 98.724 104.678 98.6788 104.632L95.6761 101.63C95.5857 101.539 95.5857 101.399 95.6761 101.309C95.762 101.223 95.9067 101.223 95.9927 101.309L98.9999 104.311C99.0858 104.402 99.0858 104.546 98.9999 104.632C98.9546 104.678 98.8959 104.7 98.8416 104.7Z" fill="black"/>
<path d="M108.424 119.799L111.802 123.177C112.593 123.969 113.882 123.969 114.674 123.177C115.465 122.386 115.465 121.097 114.674 120.306L102.812 108.444L108.424 119.799Z" fill="white"/>
<path d="M113.235 123.996C112.661 123.996 112.082 123.775 111.644 123.336L108.266 119.958C108.175 119.872 108.175 119.728 108.266 119.642C108.356 119.551 108.496 119.551 108.587 119.642L111.96 123.015C112.666 123.721 113.81 123.721 114.515 123.015C115.216 122.314 115.216 121.17 114.511 120.465L102.649 108.603C102.563 108.517 102.563 108.373 102.649 108.287C102.74 108.196 102.88 108.196 102.97 108.287L114.832 120.148C115.714 121.025 115.714 122.459 114.832 123.336C114.393 123.775 113.814 123.996 113.235 123.996Z" fill="black"/>
<path d="M81.2687 97.3877L88.8839 89.7724C89.0874 89.569 89.0874 89.2434 88.8839 89.0399L84.8683 85.0242C84.6693 84.8253 84.3392 84.8253 84.1402 85.0242L76.5204 92.644C76.3215 92.843 76.3215 93.1731 76.5204 93.372L80.5361 97.3877C80.7396 97.5912 81.0652 97.5912 81.2687 97.3877Z" fill="white"/>
<path d="M84.502 85.3594C84.2623 85.3594 84.0317 85.4544 83.8553 85.6262L77.1219 92.3597C76.7647 92.7169 76.7647 93.3003 77.1219 93.653L80.2557 96.7868C80.613 97.1441 81.1918 97.1441 81.5491 96.7868L88.2825 90.0534C88.6397 89.6961 88.6397 89.1173 88.2825 88.7601L85.1487 85.6262C84.9768 85.4544 84.7462 85.3594 84.502 85.3594ZM80.9024 97.5058C80.5497 97.5058 80.2015 97.3747 79.9347 97.1079L76.8054 93.9741C76.2717 93.4405 76.2717 92.5767 76.8054 92.0431L83.5388 85.3097C83.7965 85.0474 84.1402 84.9072 84.502 84.9072C84.8683 84.9072 85.212 85.0474 85.4697 85.3097L88.6035 88.439C89.1372 88.9726 89.1372 89.8408 88.6035 90.3699L81.8656 97.1079C81.6033 97.3747 81.2506 97.5058 80.9024 97.5058Z" fill="black"/>
<path d="M87.1745 103.295L94.7898 95.6795C94.9932 95.476 94.9932 95.1504 94.7898 94.9469L90.7741 90.9358C90.5751 90.7323 90.2496 90.7323 90.0461 90.9358L82.4308 98.5511C82.2273 98.7546 82.2273 99.0801 82.4308 99.2836L86.4419 103.295C86.6454 103.498 86.971 103.498 87.1745 103.295Z" fill="white"/>
<path d="M90.4124 91.2657C90.1682 91.2657 89.9376 91.3607 89.7657 91.537L83.0323 98.2704C82.6751 98.6277 82.6751 99.2065 83.0323 99.5638L86.1616 102.698C86.5189 103.05 87.0977 103.05 87.4549 102.698L94.1884 95.9596C94.5456 95.6024 94.5456 95.0236 94.1884 94.6663L91.0591 91.537C90.8872 91.3607 90.6566 91.2657 90.4124 91.2657ZM86.8083 103.417C86.4601 103.417 86.1119 103.281 85.8451 103.014L82.7112 99.8848C82.1776 99.3512 82.1776 98.483 82.7112 97.9494L89.4447 91.2159C89.7024 90.9582 90.0461 90.8135 90.4124 90.8135C90.7787 90.8135 91.1178 90.9582 91.3756 91.2159L94.5094 94.3498C95.043 94.8789 95.043 95.7471 94.5094 96.2807L87.776 103.014C87.5092 103.281 87.1565 103.417 86.8083 103.417Z" fill="black"/>
<path d="M16.1186 63.3913L80.5993 72.7159C78.9669 76.1798 76.7239 79.4312 73.8569 82.2983C73.1062 83.0489 72.3284 83.7544 71.528 84.4191L21.4863 77.1838C18.6464 72.9601 16.8602 68.239 16.1186 63.3913ZM25.6964 34.1378C29.0201 30.814 32.8639 28.3178 36.961 26.6582L70.9899 31.5783C71.9802 32.3696 72.9389 33.2198 73.8569 34.1378C83.3397 43.6206 86.0575 57.3046 82.0148 69.2022L15.7523 59.6199C15.3769 50.4445 18.6916 41.1425 25.6964 34.1378Z" fill="white"/>
<path d="M16.1187 53.2433C16.1096 53.2433 16.0961 53.2388 16.087 53.2388C15.9604 53.2207 15.879 53.1032 15.8971 52.9811C16.4126 49.6211 17.4211 46.3743 18.8907 43.3264C18.945 43.2133 19.0807 43.1681 19.1892 43.2224C19.3023 43.2766 19.352 43.4123 19.2977 43.5208C17.8461 46.5325 16.8513 49.7342 16.3448 53.0489C16.3267 53.162 16.2317 53.2433 16.1187 53.2433ZM56.2796 91.8757C56.1756 91.8757 56.0806 91.7989 56.058 91.6903C56.0354 91.5682 56.1168 91.4507 56.2389 91.4281C62.8638 90.1438 68.9008 86.9331 73.6987 82.1351C80.084 75.7499 83.6067 67.2528 83.6067 58.2177C83.6067 49.1825 80.084 40.6854 73.6987 34.2957C67.309 27.9105 58.8119 24.3878 49.7768 24.3878C40.7416 24.3878 32.2445 27.9105 25.8548 34.2957C25.7689 34.3861 25.6242 34.3861 25.5382 34.2957C25.4478 34.2098 25.4478 34.0651 25.5382 33.9792C32.0139 27.5035 40.6195 23.9355 49.7768 23.9355C58.934 23.9355 67.5396 27.5035 74.0153 33.9792C80.4909 40.4503 84.0544 49.0604 84.0544 58.2177C84.0544 67.3749 80.4909 75.9805 74.0153 82.4562C69.1585 87.3129 63.0401 90.5689 56.3248 91.8712C56.3112 91.8712 56.2931 91.8757 56.2796 91.8757Z" fill="black"/>
<path d="M85.1893 8.92655C65.8482 8.40198 49.8444 19.8248 49.4465 34.4448C49.2701 40.9838 52.2502 47.057 57.324 51.8143L50.8936 66.1448L67.9103 58.5432C72.6359 60.5193 78.0172 61.7086 83.7512 61.8624C103.092 62.3915 119.092 50.9686 119.489 36.3486C119.887 21.7286 104.53 9.45563 85.1893 8.92655Z" fill="#413A84"/>
<path d="M99.0632 9.18939C99.018 9.18939 98.9773 9.18035 98.9321 9.16226C98.4844 8.95424 98.0231 8.75075 97.5619 8.55629C97.4126 8.48846 97.3358 8.3121 97.4036 8.15835C97.4669 8.0046 97.6433 7.93224 97.797 8.00007C98.2673 8.19452 98.7331 8.40254 99.1898 8.61508C99.3391 8.68744 99.4069 8.86832 99.3345 9.01755C99.2848 9.12608 99.1763 9.18939 99.0632 9.18939ZM81.5898 58.1684C81.1557 58.1684 80.7261 58.1639 80.2874 58.1503C78.8403 58.1141 77.3842 58.0056 75.9597 57.8337C75.7924 57.8157 75.6749 57.6664 75.6975 57.4991C75.7156 57.3318 75.8693 57.2142 76.0321 57.2368C77.4385 57.4041 78.8765 57.5082 80.3055 57.5489C99.4476 58.0734 115.347 46.7546 115.736 32.3245C115.962 24.135 111.214 16.4338 102.717 11.1972C102.577 11.1113 102.532 10.9259 102.622 10.7857C102.708 10.641 102.893 10.6003 103.034 10.6862C107.185 13.2457 110.59 16.5197 112.883 20.1646C115.293 23.9948 116.455 28.0918 116.342 32.3426C116.148 39.5101 112.277 46.1396 105.448 51.0189C98.9592 55.6496 90.53 58.1684 81.5898 58.1684ZM47.4433 62.4373C47.3619 62.4373 47.285 62.4056 47.2308 62.3468C47.1403 62.2564 47.1177 62.1252 47.1675 62.0122L53.512 47.8761C48.298 42.9153 45.5214 36.7245 45.6933 30.4207C45.8877 23.2577 49.7586 16.6237 56.587 11.7489C63.3883 6.89216 72.324 4.35977 81.7435 4.61301C83.9639 4.67632 86.1797 4.89338 88.3322 5.25967C88.495 5.28681 88.6036 5.44508 88.5764 5.60788C88.5493 5.77067 88.3956 5.88373 88.2282 5.85207C86.1028 5.4903 83.9187 5.27776 81.73 5.21898C72.4415 4.96574 63.637 7.45742 56.9352 12.2418C50.2651 17.0036 46.4846 23.4657 46.2992 30.4388C46.1274 36.6296 48.8904 42.7208 54.0772 47.5821C54.1722 47.6726 54.1993 47.8082 54.1496 47.9258L48.0402 61.5374L64.3334 54.2568C64.4103 54.2206 64.4962 54.2206 64.5731 54.2522C66.0021 54.8492 67.4944 55.3737 69.0183 55.8169C69.1766 55.8621 69.267 56.0294 69.2218 56.1877C69.1766 56.3505 69.0093 56.4409 68.851 56.3957C67.3496 55.9616 65.8754 55.4461 64.46 54.8627L47.5654 62.4101C47.5247 62.4282 47.484 62.4373 47.4433 62.4373Z" fill="black"/>
<path d="M83.0233 46.8576C81.7028 46.8576 80.6356 47.9294 80.6356 49.2498V49.4126C80.6356 50.7331 81.7028 51.8003 83.0233 51.8003C84.3438 51.8003 85.4155 50.7331 85.4155 49.4126V49.2498C85.4155 47.9294 84.3438 46.8576 83.0233 46.8576ZM91.751 18.6668C89.8065 17.0343 87.1565 16.2158 83.7966 16.2158C82.2998 16.2158 80.708 16.3831 79.0303 16.7223C78.058 16.9167 77.1807 17.1248 76.4029 17.3509C75.494 17.6086 74.8745 18.4452 74.8745 19.3858C74.8745 20.8917 76.3939 21.9182 77.7912 21.3575C78.0987 21.2308 78.4017 21.1178 78.6775 21.0183C80.1879 20.4892 81.7842 20.2224 83.471 20.2224C85.3612 20.2224 86.9033 20.6565 88.0971 21.5248C89.2909 22.3885 89.8879 23.7044 89.8879 25.4681C89.8879 26.8156 89.6391 27.919 89.1372 28.7873C88.6398 29.651 87.9343 30.4921 87.0299 31.3061C86.2792 32.007 85.316 32.7034 84.1403 33.3863C83.8508 33.5536 83.5705 33.7209 83.2901 33.8792C81.7797 34.7565 80.8482 36.3754 80.8482 38.1255V40.2825C80.8482 41.4221 81.73 42.3898 82.865 42.4305C84.0589 42.4712 85.0402 41.517 85.0402 40.3322V39.9253C85.0402 38.243 85.9039 36.6829 87.3238 35.7785C87.7806 35.4845 88.2328 35.1861 88.6714 34.8876C89.811 34.1053 90.8194 33.2732 91.6922 32.3824C92.583 31.4599 93.3021 30.4017 93.8492 29.2078C94.3964 28.014 94.6677 26.6483 94.6677 25.1199C94.6677 22.4473 93.6955 20.2948 91.751 18.6668Z" fill="white"/>
<path d="M22.4496 45.3838C21.6763 45.5782 20.9166 44.9316 19.7363 43.9231C18.3073 42.7022 17.3079 41.852 17.2582 40.4818C17.2084 39.2789 17.9094 38.162 18.7143 37.565C19.1801 37.2214 19.881 37.0631 21.2829 36.7465C22.8882 36.3848 23.0962 36.5295 24.0278 36.1632C25.1086 35.7381 25.2804 35.3673 25.7778 35.4623C26.5828 35.616 27.3108 36.8053 27.2927 37.9132C27.2746 39.3829 25.9678 39.6045 24.4936 42.0012C23.2635 44.0045 23.3721 45.1531 22.4496 45.3838Z" fill="black"/>
<path d="M18.2667 50.3269C20.8895 49.4722 24.8825 48.8572 29.6534 50.3766C31.3944 50.9328 32.6425 52.4658 32.8595 54.2792L36.744 76.6637C36.9385 78.2916 34.7634 79.8744 33.2304 80.4577C31.6295 81.0637 29.2102 81.638 25.7824 81.638C22.1105 81.638 19.4379 81.8505 17.9501 81.1993C16.7111 80.6567 14.8525 79.3453 14.7892 77.9977L15.0605 54.9847C14.961 52.8864 16.2724 50.9781 18.2667 50.3269Z" fill="#413A84"/>
<path d="M36.6263 59.9454C36.6263 59.9454 33.5241 51.3489 30.0421 50.5213L31.8148 62.7039L36.6263 59.9454ZM9.66998 63.4139C9.66998 63.4139 10.9136 58.7968 11.8677 56.2011C13.7896 50.9509 17.9138 50.458 17.9138 50.458V63.3777L9.66998 63.4139Z" fill="#413A84"/>
<path d="M25.4885 52.7506C22.0788 52.7506 19.0852 51.3533 18.9405 51.2855C18.8274 51.2357 18.7822 51.1 18.8365 50.987C18.8862 50.8739 19.0219 50.8242 19.1349 50.8785C19.1756 50.8966 23.137 52.7416 27.017 52.1944C27.1391 52.1763 27.2567 52.2622 27.2747 52.3843C27.2928 52.5109 27.2069 52.624 27.0803 52.6421C26.5467 52.719 26.0131 52.7506 25.4885 52.7506Z" fill="black"/>
<path d="M24.186 67.7548L39.4301 67.7321C39.8145 67.7321 40.1536 67.4653 40.2441 67.09L43.301 54.6813C43.4321 54.1477 43.0297 53.6367 42.487 53.6367L27.243 53.6593C26.8541 53.6639 26.5194 53.9261 26.429 54.3015L23.3675 66.7101C23.2364 67.2438 23.6389 67.7548 24.186 67.7548Z" fill="#EBBD58"/>
<path d="M42.487 53.8624L27.2429 53.885C26.958 53.8895 26.7139 54.0794 26.646 54.3553L23.5891 66.764C23.5439 66.9494 23.5846 67.1438 23.7021 67.293C23.8197 67.4423 23.9961 67.5282 24.186 67.5282L39.43 67.5056C39.7104 67.5056 39.9591 67.3111 40.0224 67.0353L43.0839 54.6266C43.1291 54.4412 43.0884 54.2513 42.9708 54.0975C42.8533 53.9483 42.6769 53.8624 42.487 53.8624ZM24.186 67.9804C23.8559 67.9804 23.5484 67.8312 23.3449 67.5734C23.1414 67.3111 23.069 66.981 23.1504 66.6599L26.2074 54.2467C26.3249 53.7719 26.75 53.4373 27.2429 53.4328L42.4825 53.4102H42.487C42.8171 53.4102 43.1201 53.5594 43.3236 53.8217C43.5271 54.0794 43.5994 54.4141 43.5225 54.7351L40.4656 67.1438C40.348 67.6232 39.9229 67.9578 39.43 67.9578L24.186 67.9804Z" fill="black"/>
<path d="M42.1795 59.8041L41.7319 61.0477L38.0644 59.3066C38.0644 59.3066 36.0521 61.0567 40.9405 63.2861C42.98 64.2131 42.1795 59.8041 42.1795 59.8041Z" fill="white"/>
<path d="M38.1186 59.5833C38.0055 59.7325 37.8337 60.0265 37.8925 60.4289C37.9829 61.0258 38.6024 61.971 41.0353 63.0789C41.4785 63.2824 41.6549 63.1467 41.7137 63.1015C42.1071 62.794 42.1568 61.7222 42.0754 60.7636L41.9443 61.1253C41.9262 61.1841 41.8765 61.2339 41.8177 61.2565C41.7589 61.2836 41.6956 61.2791 41.6368 61.2519L38.1186 59.5833ZM41.4514 63.6396C41.2705 63.6396 41.067 63.5899 40.8454 63.4904C38.7381 62.5317 37.594 61.5187 37.4448 60.4877C37.3272 59.6602 37.8925 59.1582 37.9151 59.1401C37.9829 59.0813 38.0824 59.0678 38.1638 59.1039L41.6051 60.7364L41.9669 59.7325C41.9986 59.633 42.0935 59.5742 42.1975 59.5833C42.3015 59.5878 42.3829 59.6647 42.401 59.7642C42.4553 60.0671 42.912 62.7442 41.9895 63.4587C41.8358 63.5808 41.6549 63.6396 41.4514 63.6396Z" fill="black"/>
<path d="M19.8312 56.3497C19.8312 56.3497 12.9847 60.2026 11.5738 61.4145C10.1629 62.6264 8.62992 63.5444 10.6287 66.1808C12.6229 68.8172 21.1019 58.2264 21.1019 58.2264C21.1019 58.2264 22.7344 58.4977 23.2996 56.2729C23.2996 56.2729 26.0536 56.3678 26.1531 55.5041L22.2686 54.8122C21.7666 54.7218 21.2511 54.8891 20.8939 55.2554L19.8312 56.3497Z" fill="white"/>
<path d="M21.9973 55.0155C21.6446 55.0155 21.3054 55.1557 21.0567 55.4135L19.994 56.5033C19.9804 56.5214 19.9623 56.535 19.9442 56.544C19.8719 56.5847 13.0978 60.4059 11.723 61.5862C11.61 61.6811 11.5015 61.7716 11.3929 61.862C10.1087 62.9338 9.0957 63.7839 10.8096 66.045C10.9724 66.262 11.1985 66.3706 11.4924 66.3751H11.5105C14.2554 66.3751 20.8577 58.172 20.9255 58.0861C20.9753 58.0227 21.0567 57.9911 21.1381 58.0047C21.1969 58.0137 22.5761 58.1991 23.0826 56.2184C23.1097 56.1144 23.1956 56.0421 23.3087 56.0466C24.1996 56.0782 25.3979 55.9561 25.7959 55.6667L22.2279 55.0336C22.151 55.0201 22.0742 55.0155 21.9973 55.0155ZM11.506 66.8273H11.4879C11.0493 66.8228 10.7011 66.6509 10.4478 66.3163C8.47617 63.7116 9.8102 62.5946 11.1035 61.5183C11.2075 61.4279 11.3206 61.3329 11.4291 61.2425C12.8084 60.0577 19.1438 56.4762 19.691 56.1687L20.7311 55.0969C21.1426 54.6764 21.7305 54.4865 22.3093 54.5905L26.1938 55.2778C26.3114 55.3004 26.3928 55.409 26.3792 55.5265C26.2752 56.4581 24.2131 56.5124 23.4715 56.5033C22.9288 58.3438 21.631 58.4704 21.2059 58.4614C20.4236 59.4246 14.3414 66.8273 11.506 66.8273Z" fill="black"/>
<path d="M27.9666 112.18L25.6965 118.954C25.6965 118.954 28.1701 118.741 28.4052 118.791C28.6404 118.836 31.5345 112.614 31.5345 112.614L27.9666 112.18Z" fill="white"/>
<path d="M28.1203 112.428L26.0175 118.7C26.7094 118.642 27.9078 118.551 28.3238 118.56C28.6856 118.076 30.2005 114.929 31.1954 112.799L28.1203 112.428ZM25.6965 119.18C25.6286 119.18 25.5608 119.148 25.5201 119.094C25.4704 119.035 25.4568 118.954 25.4794 118.881L27.7495 112.112C27.7857 112.008 27.8852 111.944 27.9937 111.958L31.5616 112.387C31.634 112.397 31.6973 112.437 31.729 112.505C31.7651 112.564 31.7697 112.641 31.738 112.709C31.729 112.722 31.0054 114.282 30.2593 115.815C28.6811 119.071 28.5816 119.053 28.36 119.012C28.2017 118.99 26.8903 119.08 25.7146 119.18H25.6965Z" fill="black"/>
<path d="M26.2163 117.467C26.2163 117.467 29.6305 116.065 30.2591 117.824C31.0641 120.058 32.3167 123.467 32.3167 123.467C32.5337 124.06 32.1222 124.693 31.4937 124.743C30.2456 124.842 28.387 124.923 27.5187 124.62C26.1485 124.141 23.8784 119.809 23.8784 119.809L24.5793 116.123C24.5793 116.123 25.8184 115.947 26.2163 117.467Z" fill="#EBBD58"/>
<path d="M24.1182 119.772C24.7694 121.002 26.5602 124.045 27.5957 124.407C28.2243 124.628 29.6035 124.665 31.4757 124.515C31.7063 124.497 31.9098 124.375 32.0319 124.185C32.1585 123.991 32.1811 123.756 32.1043 123.539C32.0952 123.507 30.8426 120.106 30.0467 117.899C29.9517 117.624 29.7709 117.434 29.495 117.312C28.4007 116.823 26.3205 117.664 26.3024 117.673C26.2391 117.701 26.1713 117.696 26.1125 117.669C26.0582 117.637 26.013 117.583 25.9949 117.524C25.7326 116.511 25.0724 116.357 24.7694 116.339L24.1182 119.772ZM29.486 125.058C28.6765 125.058 27.9258 124.999 27.4465 124.832C26.0311 124.334 23.9147 120.364 23.6796 119.912C23.657 119.867 23.6479 119.812 23.657 119.763L24.3579 116.077C24.376 115.982 24.4529 115.91 24.5478 115.896C24.5614 115.896 25.8502 115.733 26.3612 117.167C26.9717 116.95 28.6358 116.434 29.6804 116.9C30.0648 117.072 30.3316 117.357 30.4718 117.746C31.2677 119.953 32.5203 123.353 32.5294 123.385C32.656 123.738 32.6153 124.117 32.4118 124.429C32.2128 124.741 31.8827 124.936 31.5119 124.968C30.8878 125.017 30.1688 125.058 29.486 125.058Z" fill="black"/>
<path d="M31.444 123.494H27.9394C27.8127 123.494 27.7133 123.39 27.7133 123.268C27.7133 123.141 27.8127 123.042 27.9394 123.042H31.444C31.5706 123.042 31.6701 123.141 31.6701 123.268C31.6701 123.39 31.5706 123.494 31.444 123.494Z" fill="black"/>
<path d="M21.5316 113.844L22.3003 120.659L25.4025 119.809L25.1628 113.668L21.5316 113.844Z" fill="white"/>
<path d="M21.7803 114.061L22.4948 120.369L25.1718 119.637L24.9457 113.907L21.7803 114.061ZM22.3003 120.885C22.2551 120.885 22.2099 120.871 22.1737 120.844C22.1194 120.808 22.0832 120.749 22.0742 120.681L21.3054 113.871C21.2964 113.808 21.3145 113.744 21.3552 113.699C21.3959 113.649 21.4547 113.622 21.518 113.622L25.1538 113.441C25.2125 113.441 25.2713 113.459 25.3166 113.505C25.3618 113.541 25.3889 113.6 25.3889 113.658L25.6286 119.799C25.6331 119.904 25.5653 119.998 25.4613 120.026L22.3591 120.876C22.341 120.88 22.3184 120.885 22.3003 120.885Z" fill="black"/>
<path d="M22.0064 125.678H26.9174C27.5822 125.678 28.0932 125.09 27.9937 124.43C27.8309 123.322 27.2973 121.482 25.6964 118.954C25.5201 118.678 25.2171 118.511 24.887 118.511H23.3947C23.1369 118.511 22.9244 118.705 22.8973 118.963L22.7842 120.039L22.133 119.18C22.133 119.18 20.9708 121.622 20.9166 124.57C20.9075 125.176 21.4004 125.678 22.0064 125.678Z" fill="#EBBD58"/>
<path d="M22.1873 119.628C21.8753 120.397 21.1834 122.351 21.1427 124.575C21.1427 124.806 21.2286 125.028 21.3914 125.195C21.5542 125.362 21.7758 125.453 22.0064 125.453H26.9174C27.1707 125.453 27.4058 125.344 27.5731 125.154C27.7359 124.964 27.8083 124.711 27.7721 124.467C27.6093 123.386 27.0893 121.582 25.5065 119.077C25.3709 118.869 25.1357 118.737 24.887 118.737H23.3947C23.2545 118.737 23.1369 118.841 23.1189 118.986L23.0058 120.062C22.9968 120.153 22.9335 120.23 22.843 120.257C22.7526 120.279 22.6576 120.248 22.6033 120.175L22.1873 119.628ZM26.9174 125.905H22.0064C21.6537 125.905 21.3191 125.765 21.0703 125.511C20.8216 125.258 20.686 124.919 20.695 124.566C20.7493 121.604 21.8798 119.185 21.9295 119.081C21.9612 119.013 22.0336 118.963 22.1104 118.954C22.1873 118.945 22.2642 118.982 22.3139 119.045L22.6169 119.447L22.6712 118.936C22.7119 118.566 23.0239 118.285 23.3947 118.285H24.887C25.294 118.285 25.6693 118.489 25.8864 118.832C27.5143 121.405 28.0525 123.278 28.2198 124.399C28.2741 124.779 28.161 125.159 27.9123 125.448C27.6636 125.738 27.3018 125.905 26.9174 125.905Z" fill="black"/>
<path d="M27.5188 124.729H21.6445C21.5179 124.729 21.4184 124.629 21.4184 124.503C21.4184 124.381 21.5179 124.277 21.6445 124.277H27.5188C27.6454 124.277 27.7449 124.381 27.7449 124.503C27.7449 124.629 27.6454 124.729 27.5188 124.729ZM33.1804 72.9325C33.0538 72.616 32.7915 72.3763 32.4705 72.2768C30.6752 71.7116 24.4166 70.2283 17.9726 74.3615C17.6696 74.556 17.4751 74.8816 17.448 75.2433C17.2174 78.5173 16.3446 95.629 21.7621 115.897L25.4069 115.635L26.1531 80.9864C26.1531 80.9864 31.5525 93.689 27.1615 113.903L30.9556 114.604C30.9556 114.604 36.5042 107.305 37.4991 96.1491C38.3809 86.2863 34.1663 75.3293 33.1804 72.9325Z" fill="black"/>
<path d="M22.6891 99.8754H22.6801C19.2387 99.7262 18.8498 95.0594 18.8453 95.0096C18.8363 94.8875 18.9312 94.779 19.0533 94.77C19.18 94.7609 19.2885 94.8514 19.2975 94.978C19.3021 95.0187 19.6593 99.2921 22.6982 99.4232C22.8248 99.4277 22.9197 99.5318 22.9152 99.6584C22.9107 99.7805 22.8112 99.8754 22.6891 99.8754ZM26.4696 84.3917C26.3475 84.3917 26.248 84.2922 26.2435 84.1701L26.1169 79.838C26.1124 79.7611 26.1485 79.6887 26.2118 79.6435L28.4819 78.0472C28.586 77.9748 28.7261 77.9975 28.7985 78.1015C28.8708 78.201 28.8482 78.3457 28.7442 78.418L26.5691 79.9465L26.6957 84.1566C26.7002 84.2832 26.6007 84.3872 26.4741 84.3917H26.4696ZM20.9345 49.2413C21.6038 48.7982 21.9972 48.0385 21.9791 47.2335L21.9023 43.9007C21.8797 43.8781 21.857 43.8555 21.8344 43.8374C21.8344 43.8374 20.4959 43.9233 20.3014 43.245C20.107 42.5622 21.0521 42.4356 21.0521 42.4356C21.0521 42.4356 20.1613 40.5544 22.4675 40.577C23.0871 40.5815 23.3086 39.555 24.3261 39.3244C24.3261 39.3244 24.8326 39.2837 25.3391 40.5996L26.456 42.2547L25.8998 42.5622C26.0355 43.1908 26.0943 43.8826 26.0129 44.6152C25.9857 44.8278 25.841 45.0041 25.6375 45.072C25.4702 45.1262 25.2441 45.185 24.9773 45.2121L25.1582 47.4461C25.2351 48.4228 25.7506 49.3137 26.551 49.879C27.3288 50.4216 28.0433 50.806 28.0433 50.806C28.0433 50.806 23.9282 51.3667 19.1935 50.286C19.1935 50.286 20.1115 49.7885 20.9345 49.2413Z" fill="white"/>
<path d="M19.8222 50.1914C23.1053 50.8561 26.0356 50.7476 27.3199 50.6481C27.0666 50.4944 26.7501 50.2909 26.4245 50.0648C25.5608 49.4588 25.0181 48.5092 24.9322 47.4646L24.7513 45.2352C24.7423 45.1131 24.8327 45.0045 24.9548 44.991C25.1628 44.9638 25.3708 44.9231 25.5698 44.8553C25.6874 44.8191 25.7733 44.7151 25.7869 44.593C25.8592 43.9464 25.823 43.2771 25.6783 42.6078C25.6557 42.5129 25.701 42.4088 25.7914 42.3636L26.1306 42.1737L25.1538 40.7311C25.1447 40.7131 25.1357 40.6995 25.1312 40.6859C24.7558 39.7182 24.4167 39.5735 24.3443 39.5554C23.8921 39.6684 23.6253 39.9624 23.3675 40.2473C23.1188 40.5186 22.8611 40.8035 22.4767 40.8035H22.4269C21.8119 40.8035 21.4095 40.9482 21.2241 41.2286C20.9482 41.6627 21.2557 42.332 21.2557 42.3365C21.2874 42.4043 21.2874 42.4767 21.2512 42.54C21.2195 42.6033 21.1562 42.6485 21.0839 42.6576C20.9799 42.6711 20.6543 42.757 20.5412 42.9289C20.5141 42.9741 20.4824 43.0465 20.5186 43.1821C20.6407 43.5936 21.518 43.6298 21.821 43.6117C21.8798 43.6072 21.9431 43.6298 21.9883 43.6705L22.0561 43.7338C22.1014 43.7745 22.124 43.8333 22.1285 43.8966L22.2054 47.2294C22.2234 48.1203 21.7984 48.9433 21.0613 49.4317C20.6271 49.7166 20.1659 49.9924 19.8222 50.1914ZM25.2985 51.1772C23.666 51.1772 21.4728 51.0416 19.1439 50.5079C19.0534 50.4899 18.9856 50.413 18.972 50.318C18.9585 50.2276 19.0037 50.1371 19.0851 50.0919C19.0941 50.0829 20.0031 49.59 20.808 49.0518C21.4185 48.6539 21.7667 47.9756 21.7531 47.2385L21.6808 44.0685C21.2648 44.0685 20.2835 44.0006 20.0845 43.3087C20.0212 43.0781 20.0483 42.8611 20.1659 42.6802C20.3106 42.4586 20.5593 42.3365 20.7538 42.2732C20.6588 41.9612 20.5638 41.4275 20.8442 40.9889C21.1201 40.5593 21.6627 40.3468 22.4722 40.3513C22.653 40.3558 22.8023 40.1975 23.0329 39.9443C23.3178 39.6323 23.666 39.2434 24.2765 39.1032C24.2901 39.1032 24.2991 39.1032 24.3081 39.0987C24.4212 39.0896 25 39.1122 25.5427 40.496L26.6461 42.1285C26.6823 42.1827 26.6913 42.246 26.6777 42.3094C26.6642 42.3681 26.6235 42.4224 26.5647 42.4541L26.1532 42.6802C26.2843 43.3404 26.3114 44.0006 26.2346 44.6428C26.2029 44.9412 25.9949 45.1945 25.71 45.2849C25.5517 45.3392 25.3889 45.3799 25.2216 45.407L25.3844 47.4284C25.4568 48.3419 25.9316 49.1649 26.6823 49.694C27.4374 50.2231 28.1429 50.6029 28.1519 50.6074C28.2379 50.6527 28.2831 50.7476 28.265 50.8471C28.2469 50.9421 28.17 51.0144 28.0751 51.028C28.0525 51.0325 26.9717 51.1772 25.2985 51.1772Z" fill="black"/>
<path d="M24.9773 45.2123C24.9773 45.2123 23.5122 45.2666 22.9333 44.4707L24.9773 45.2123Z" fill="white"/>
<path d="M24.9186 45.4423C24.6066 45.4423 23.3269 45.3925 22.748 44.6011C22.6757 44.5017 22.6983 44.3615 22.7978 44.2846C22.9018 44.2122 23.042 44.2348 23.1143 44.3343C23.6163 45.0262 24.9548 44.99 24.9729 44.99C25.0905 44.981 25.199 45.0805 25.2035 45.2071C25.2081 45.3292 25.1131 45.4377 24.9865 45.4377C24.982 45.4423 24.9548 45.4423 24.9186 45.4423Z" fill="black"/>
<path d="M85.5511 110.416H51.3097C50.048 110.416 49.026 111.438 49.026 112.7C49.026 113.957 50.048 114.984 51.3097 114.984H85.5511C86.8128 114.984 87.8348 113.957 87.8348 112.7C87.8348 111.438 86.8128 110.416 85.5511 110.416ZM62.8908 103.145H43.9794C42.8081 103.145 41.8585 104.09 41.8585 105.261C41.8585 106.432 42.8081 107.382 43.9794 107.382H62.8908C64.0621 107.382 65.0117 106.432 65.0117 105.261C65.0117 104.09 64.0621 103.145 62.8908 103.145ZM71.5055 105.261C71.5055 106.432 70.5558 107.382 69.3891 107.382C68.2179 107.382 67.2682 106.432 67.2682 105.261C67.2682 104.09 68.2179 103.145 69.3891 103.145C70.5558 103.145 71.5055 104.09 71.5055 105.261ZM109.034 75.4831H87.6991C86.4375 75.4831 85.4155 76.5051 85.4155 77.7668C85.4155 79.0285 86.4375 80.0504 87.6991 80.0504H109.034C110.296 80.0504 111.318 79.0285 111.318 77.7668C111.318 76.5051 110.296 75.4831 109.034 75.4831ZM114.185 68.2116H95.2691C94.0979 68.2116 93.1483 69.1612 93.1483 70.3324C93.1483 71.5037 94.0979 72.4533 95.2691 72.4533H114.185C115.356 72.4533 116.306 71.5037 116.306 70.3324C116.306 69.1612 115.356 68.2116 114.185 68.2116ZM122.8 70.3324C122.8 71.5037 121.85 72.4533 120.679 72.4533C119.508 72.4533 118.558 71.5037 118.558 70.3324C118.558 69.1612 119.508 68.2116 120.679 68.2116C121.85 68.2116 122.8 69.1612 122.8 70.3324ZM30.3316 17.5684H8.99179C7.73464 17.5684 6.71265 18.5904 6.71265 19.8521C6.71265 21.1138 7.73464 22.1358 8.99179 22.1358H30.3316C31.5933 22.1358 32.6153 21.1138 32.6153 19.8521C32.6153 18.5904 31.5933 17.5684 30.3316 17.5684ZM35.4823 10.2969H16.5663C15.3951 10.2969 14.4455 11.2465 14.4455 12.4177C14.4455 13.589 15.3951 14.5386 16.5663 14.5386H35.4823C36.6535 14.5386 37.6032 13.589 37.6032 12.4177C37.6032 11.2465 36.6535 10.2969 35.4823 10.2969ZM44.0969 12.4177C44.0969 13.589 43.1473 14.5386 41.9761 14.5386C40.8048 14.5386 39.8552 13.589 39.8552 12.4177C39.8552 11.2465 40.8048 10.2969 41.9761 10.2969C43.1473 10.2969 44.0969 11.2465 44.0969 12.4177Z" fill="#EBBD58"/>
<path d="M119.499 84.4638H96.0198C95.8525 84.4638 95.7214 84.3282 95.7214 84.1654C95.7214 83.9981 95.8525 83.8624 96.0198 83.8624H119.499C119.666 83.8624 119.802 83.9981 119.802 84.1654C119.802 84.3282 119.666 84.4638 119.499 84.4638ZM102.812 88.7553H91.7962C91.6289 88.7553 91.4932 88.6197 91.4932 88.4523C91.4932 88.2895 91.6289 88.1539 91.7962 88.1539H102.812C102.975 88.1539 103.111 88.2895 103.111 88.4523C103.111 88.6197 102.975 88.7553 102.812 88.7553ZM59.7299 119.203H45.0556C44.8883 119.203 44.7527 119.067 44.7527 118.904C44.7527 118.737 44.8883 118.601 45.0556 118.601H59.7299C59.8972 118.601 60.0329 118.737 60.0329 118.904C60.0329 119.067 59.8972 119.203 59.7299 119.203ZM19.0399 26.9561H5.89868C5.73588 26.9561 5.60022 26.8205 5.60022 26.6577C5.60022 26.4904 5.73588 26.3547 5.89868 26.3547H19.0399C19.2073 26.3547 19.3384 26.4904 19.3384 26.6577C19.3384 26.8205 19.2073 26.9561 19.0399 26.9561ZM58.3416 6.05945H51.3323C51.1695 6.05945 51.0339 5.92379 51.0339 5.76099C51.0339 5.59367 51.1695 5.45801 51.3323 5.45801H58.3416C58.5089 5.45801 58.6446 5.59367 58.6446 5.76099C58.6446 5.92379 58.5089 6.05945 58.3416 6.05945ZM71.6276 122.716H50.238C50.0707 122.716 49.935 122.581 49.935 122.413C49.935 122.251 50.0707 122.115 50.238 122.115H71.6276C71.7949 122.115 71.9305 122.251 71.9305 122.413C71.9305 122.581 71.7949 122.716 71.6276 122.716Z" fill="black"/>
</svg>
