<svg width="25" height="26" viewBox="0 0 25 26" fill="none" xmlns="http://www.w3.org/2000/svg">
<path d="M12.4176 0.900391C5.76562 0.900391 0.357178 6.31336 0.357178 12.9609C0.357178 19.6084 5.76562 25.0168 12.4176 25.0168C19.0652 25.0168 24.4736 19.6084 24.4736 12.9609C24.4736 6.31336 19.0652 0.900391 12.4176 0.900391ZM5.64353 21.0374C5.75658 17.3971 8.7457 14.4667 12.4176 14.4667C16.0851 14.4667 19.0742 17.3971 19.1873 21.0374C17.3513 22.5794 14.9907 23.511 12.4176 23.511C9.84005 23.511 7.4795 22.5794 5.64353 21.0374ZM8.64621 9.18942C8.64621 7.11377 10.3375 5.4225 12.4176 5.4225C14.4933 5.4225 16.1846 7.11377 16.1846 9.18942C16.1846 11.2696 14.4933 12.9609 12.4176 12.9609C10.3375 12.9609 8.64621 11.2696 8.64621 9.18942ZM20.5484 19.6717C20.0058 16.8544 18.0296 14.5481 15.4113 13.5261C16.786 12.5765 17.6904 10.9892 17.6904 9.18942C17.6904 6.2817 15.3254 3.91664 12.4176 3.91664C9.50541 3.91664 7.14035 6.2817 7.14035 9.18942C7.14035 10.9892 8.04477 12.5765 9.41949 13.5261C6.80119 14.5481 4.82502 16.8544 4.28237 19.6717C2.77199 17.8447 1.86756 15.5068 1.86756 12.9609C1.86756 7.14091 6.59769 2.41078 12.4176 2.41078C18.2331 2.41078 22.9632 7.14091 22.9632 12.9609C22.9632 15.5068 22.0588 17.8447 20.5484 19.6717Z" fill="#413A84"/>
</svg>
